<?xml version="1.0" standalone="no"?>
<!DOCTYPE svg PUBLIC "-//W3C//DTD SVG 1.1//EN" "http://www.w3.org/Graphics/SVG/1.1/DTD/svg11.dtd" >
<svg xmlns="http://www.w3.org/2000/svg" xmlns:xlink="http://www.w3.org/1999/xlink" version="1.1">
<metadata>
Created by FontForge 20201107 at Tue Apr 16 06:15:31 2024
 By 
Vi^t ho'a bi Vntype.Com &#38; FontZin.Com (https://fontzin.com/poppins-viet-hoa/)
Copyright 2020 The Poppins Project Authors (https://github.com/itfoundry/Poppins)
</metadata>
<defs>
<font id="FzPoppins-Light" horiz-adv-x="287" >
  <font-face 
    font-family="Fz Poppins Light"
    font-weight="300"
    font-stretch="normal"
    units-per-em="1000"
    panose-1="0 0 0 0 0 0 0 0 0 0"
    ascent="800"
    descent="-200"
    x-height="546"
    cap-height="699"
    bbox="-526 -564 2591 1091"
    underline-thickness="50"
    underline-position="-100"
    unicode-range="U+000D-FB02"
  />
<missing-glyph horiz-adv-x="500" 
d="M0 700h500v-700h-500v700zM420 650h-340l170 -255zM50 95l170 255l-170 255v-510zM450 95v510l-170 -255zM420 50l-170 255l-170 -255h340z" />
    <glyph glyph-name=".notdef" horiz-adv-x="500" 
d="M0 700h500v-700h-500v700zM420 650h-340l170 -255zM50 95l170 255l-170 255v-510zM450 95v510l-170 -255zM420 50l-170 255l-170 -255h340z" />
    <glyph glyph-name=".null" horiz-adv-x="0" 
 />
    <glyph glyph-name=".null" horiz-adv-x="0" 
 />
    <glyph glyph-name="uni000D" unicode="&#xd;" horiz-adv-x="274" 
 />
    <glyph glyph-name="space" unicode=" " horiz-adv-x="274" 
 />
    <glyph glyph-name="exclam" unicode="!" horiz-adv-x="277" 
d="M174 699l-9 -514h-59l-8 514h76zM139 -5q-22 0 -36.5 15t-14.5 37t14.5 36.5t36.5 14.5q21 0 35.5 -14.5t14.5 -36.5t-14.5 -37t-35.5 -15z" />
    <glyph glyph-name="quotedbl" unicode="&#x22;" horiz-adv-x="264" 
d="M106 795l-10 -193h-49l-10 193h69zM226 795l-9 -193h-49l-11 193h69z" />
    <glyph glyph-name="numbersign" unicode="#" horiz-adv-x="812" 
d="M602 461l-39 -185h143v-62h-156l-46 -214h-67l46 214h-222l-46 -214h-67l46 214h-159v62h172l39 185h-156v62h170l46 217h67l-46 -217h222l46 217h67l-46 -217h145v-62h-159zM535 461h-222l-39 -185h222z" />
    <glyph glyph-name="dollar" unicode="$" horiz-adv-x="597" 
d="M512 184q0 -47 -23 -89.5t-69 -70.5t-112 -31v-80h-44v81q-89 8 -144 58.5t-59 125.5h75q4 -45 36.5 -81.5t91.5 -44.5v277q-67 18 -107.5 36t-68.5 55.5t-28 100.5q0 79 55 130.5t149 55.5v84h44v-85q83 -8 133 -54t59 -115h-74q-6 37 -36.5 69t-81.5 40v-267
q65 -17 106.5 -35.5t69.5 -56.5t28 -103zM131 524q0 -56 34.5 -84.5t98.5 -47.5v257q-60 -3 -96.5 -35t-36.5 -90zM308 50q64 4 99 40.5t35 90.5q0 57 -34.5 86t-99.5 49v-266z" />
    <glyph glyph-name="percent" unicode="%" horiz-adv-x="726" 
d="M43 567q0 64 39.5 103.5t100.5 39.5q62 0 101.5 -39.5t39.5 -103.5q0 -65 -39.5 -104.5t-101.5 -39.5q-61 0 -100.5 39.5t-39.5 104.5zM603 700l-410 -700h-71l411 700h70zM183 665q-38 0 -60.5 -25.5t-22.5 -72.5t22.5 -73t60.5 -26t61 26t23 73q0 46 -23 72t-61 26z
M403 133q0 65 39.5 104.5t100.5 39.5t100.5 -39.5t39.5 -104.5t-39.5 -104.5t-100.5 -39.5t-100.5 39.5t-39.5 104.5zM543 231q-38 0 -61 -26t-23 -72t23 -72t61 -26t60.5 25.5t22.5 72.5t-22.5 72.5t-60.5 25.5z" />
    <glyph glyph-name="ampersand" unicode="&#x26;" horiz-adv-x="719" 
d="M612 0l-95 97q-51 -56 -109 -82.5t-131 -26.5q-70 0 -124 26.5t-84 74.5t-30 111q0 74 42 129t123 86q-35 39 -51 72.5t-16 72.5q0 67 48 108.5t128 41.5q75 0 120.5 -41.5t45.5 -105.5v-8h-70v3q0 43 -28 68.5t-71 25.5q-46 0 -74.5 -25.5t-28.5 -65.5q0 -32 17.5 -62
t55.5 -71l230 -233q14 19 38 60l64 107h75l-76 -131q-27 -47 -54 -84l146 -147h-91zM277 49q59 0 105.5 23t88.5 72l-223 226q-139 -51 -139 -168q0 -44 21.5 -78.5t59.5 -54.5t87 -20z" />
    <glyph glyph-name="quotesingle" unicode="'" horiz-adv-x="147" 
d="M110 795l-12 -193h-49l-12 193h73z" />
    <glyph glyph-name="parenleft" unicode="(" horiz-adv-x="420" 
d="M296 -186q-94 93 -148 238.5t-54 316.5q0 173 56 321t157 244h73v-7q-107 -105 -162.5 -251t-55.5 -307q0 -159 53 -301t155 -247v-7h-74z" />
    <glyph glyph-name="parenright" unicode=")" horiz-adv-x="420" 
d="M50 -186v7q102 105 155 247t53 301q0 161 -55.5 307t-162.5 251v7h73q101 -96 157 -244t56 -321q0 -171 -54 -316.5t-148 -238.5h-74z" />
    <glyph glyph-name="asterisk" unicode="*" horiz-adv-x="469" 
d="M382 662l28 -51l-141 -64l142 -64l-29 -52l-129 86l12 -157h-58l11 157l-129 -87l-30 53l142 64l-141 63l29 52l130 -87l-12 157h59l-13 -157z" />
    <glyph glyph-name="plus" unicode="+" horiz-adv-x="655" 
d="M583 340h-223v-225h-65v225h-222v60h222v225h65v-225h223v-60z" />
    <glyph glyph-name="comma" unicode="," horiz-adv-x="173" 
d="M144 116l-104 -262h-48l74 262h78z" />
    <glyph glyph-name="hyphen" unicode="-" horiz-adv-x="519" 
d="M419 400v-59h-389v59h389z" />
    <glyph glyph-name="period" unicode="." horiz-adv-x="182" 
d="M92 -5q-22 0 -36.5 15t-14.5 37t14.5 36.5t36.5 14.5q21 0 35.5 -14.5t14.5 -36.5t-14.5 -37t-35.5 -15z" />
    <glyph glyph-name="slash" unicode="/" horiz-adv-x="441" 
d="M391 940l-276 -1106h-69l274 1106h71z" />
    <glyph glyph-name="zero" unicode="0" horiz-adv-x="616" 
d="M65 365q0 172 53 267t190 95t190 -95t53 -267q0 -175 -53 -271t-190 -96q-138 0 -190.5 96t-52.5 271zM482 365q0 93 -13 157t-51 103t-110 39t-110 -39t-51 -103t-13 -157q0 -96 13 -160.5t51 -103.5t110 -39t110 39t51 103.5t13 160.5z" />
    <glyph glyph-name="one" unicode="1" horiz-adv-x="292" 
d="M31 654v63h170v-717h-71v654h-99z" />
    <glyph glyph-name="two" unicode="2" horiz-adv-x="572" 
d="M51 55q184 138 284.5 247.5t100.5 214.5q0 69 -34.5 110.5t-112.5 41.5q-76 0 -117.5 -47.5t-46.5 -126.5h-68q6 111 68.5 172.5t163.5 61.5q97 0 157 -54.5t60 -154.5q0 -121 -100.5 -234.5t-247.5 -221.5h370v-59h-477v50z" />
    <glyph glyph-name="three" unicode="3" horiz-adv-x="585" 
d="M62 534q7 91 70.5 143.5t164.5 52.5q67 0 115 -24t72.5 -65.5t24.5 -93.5q0 -63 -37 -109t-105 -57v-5q71 -14 113 -61.5t42 -124.5q0 -86 -57.5 -140.5t-166.5 -54.5q-104 0 -171 54.5t-77 154.5h68q9 -67 56 -108.5t124 -41.5q76 0 116.5 40t40.5 102q0 152 -219 152
h-22v59h23q204 0 204 133q0 58 -38 93.5t-108 35.5q-68 0 -112.5 -35.5t-52.5 -99.5h-68z" />
    <glyph glyph-name="four" unicode="4" horiz-adv-x="613" 
d="M34 170v53l364 490h83v-482h107v-61h-107v-170h-69v170h-378zM415 636l-300 -405h300v405z" />
    <glyph glyph-name="five" unicode="5" horiz-adv-x="617" 
d="M517 657h-366v-256q25 35 73 57.5t104 22.5q82 0 134 -33.5t75 -87t23 -114.5q0 -70 -26.5 -126.5t-81 -89.5t-135.5 -33q-103 0 -167 53.5t-78 144.5h69q13 -66 60 -102t116 -36q87 0 131.5 51.5t44.5 136.5q0 83 -45 129.5t-129 46.5q-58 0 -102 -27t-65 -73h-66v397
h431v-61z" />
    <glyph glyph-name="six" unicode="6" horiz-adv-x="629" 
d="M477 542q-22 130 -151 130q-98 0 -145 -73t-47 -226v-26q20 60 76.5 94.5t129.5 34.5q105 0 166.5 -64.5t61.5 -177.5q0 -66 -25.5 -119.5t-78 -85.5t-130.5 -32q-149 0 -205.5 95t-56.5 269q0 370 254 370q96 0 151 -52.5t65 -136.5h-65zM327 416q-47 0 -89 -19
t-68.5 -57.5t-26.5 -94.5q0 -81 48 -135t140 -54q77 0 123 47t46 128q0 87 -45 136t-128 49z" />
    <glyph glyph-name="seven" unicode="7" horiz-adv-x="533" 
d="M494 662l-279 -662h-71l282 656h-400v60h468v-54z" />
    <glyph glyph-name="eight" unicode="8" horiz-adv-x="624" 
d="M204 372q-62 20 -94.5 63t-32.5 104q0 54 27.5 96.5t80.5 67t127 24.5t127 -24.5t80.5 -67t27.5 -96.5q0 -60 -32.5 -104t-94.5 -63q68 -17 107 -65t39 -117q0 -64 -31.5 -111.5t-89 -73.5t-133.5 -26t-133.5 26t-89 73.5t-31.5 111.5q0 69 39 117t107 65zM479 531
q0 66 -45 102t-122 36t-122 -35.5t-45 -102.5q0 -62 46 -99t121 -37t121 37t46 99zM312 341q-82 0 -134 -37t-52 -112q0 -72 50 -113t136 -41q85 0 135 41.5t50 112.5q0 74 -51.5 111.5t-133.5 37.5z" />
    <glyph glyph-name="nine" unicode="9" horiz-adv-x="625" 
d="M158 191q11 -65 50 -100t107 -35q94 0 137.5 70.5t43.5 219.5v27q-19 -55 -72.5 -86.5t-122.5 -31.5q-105 0 -168.5 63t-63.5 175q0 67 26 121t79 85t130 31q142 0 198 -92.5t56 -265.5q0 -187 -55.5 -281t-190.5 -94q-99 0 -154 53.5t-65 140.5h65zM312 315
q47 0 86.5 19.5t63.5 57.5t24 91q0 82 -46.5 135t-133.5 53q-77 0 -123.5 -48t-46.5 -128q0 -84 46 -132t130 -48z" />
    <glyph glyph-name="colon" unicode=":" horiz-adv-x="185" 
d="M92 -5q-22 0 -36.5 15t-14.5 37t14.5 36.5t36.5 14.5q21 0 35.5 -14.5t14.5 -36.5t-14.5 -37t-35.5 -15zM92 430q-22 0 -36.5 15t-14.5 37t14.5 36.5t36.5 14.5q21 0 35.5 -14.5t14.5 -36.5t-14.5 -37t-35.5 -15z" />
    <glyph glyph-name="semicolon" unicode=";" horiz-adv-x="227" 
d="M117 431q-22 0 -36.5 15t-14.5 37t14.5 36.5t36.5 14.5q21 0 35.5 -14.5t14.5 -36.5t-14.5 -37t-35.5 -15zM168 116l-104 -262h-48l74 262h78z" />
    <glyph glyph-name="less" unicode="&#x3c;" horiz-adv-x="504" 
d="M322 138l-251 232l251 232h89l-252 -232l252 -232h-89z" />
    <glyph glyph-name="equal" unicode="=" horiz-adv-x="676" 
d="M593 502v-60h-510v60h510zM593 298v-59h-510v59h510z" />
    <glyph glyph-name="greater" unicode="&#x3e;" horiz-adv-x="492" 
d="M78 602h89l251 -232l-251 -232h-89l252 232z" />
    <glyph glyph-name="question" unicode="?" horiz-adv-x="512" 
d="M249 708q64 0 113.5 -25t77 -71.5t27.5 -107.5q0 -108 -66.5 -158.5t-181.5 -50.5l-3 -110h-60l-4 160h26q103 0 162.5 32.5t59.5 126.5q0 66 -41.5 105t-109.5 39t-108 -37t-40 -101h-67q0 60 27.5 104.5t76 69t111.5 24.5zM186 -5q-22 0 -36.5 15t-14.5 37t14.5 36.5
t36.5 14.5q21 0 35.5 -14.5t14.5 -36.5t-14.5 -37t-35.5 -15z" />
    <glyph glyph-name="at" unicode="@" horiz-adv-x="1002" 
d="M567 636q108 0 190 -42t126 -117.5t44 -173.5q0 -78 -25 -149t-72 -115.5t-110 -44.5q-49 0 -74.5 26.5t-27.5 72.5q-31 -46 -79 -72.5t-102 -26.5q-76 0 -118.5 46t-42.5 125q0 74 31 138.5t86 103.5t125 39q50 0 84.5 -22t49.5 -64l13 74h61l-51 -291q-3 -18 -3 -33
q0 -67 58 -67q43 0 74.5 39t48 98.5t16.5 118.5q0 88 -37.5 152.5t-107.5 99t-166 34.5q-120 0 -217 -59t-152 -160t-55 -223v-3q0 -134 82.5 -209t226.5 -75q91 0 165 34l11 -49q-88 -36 -191 -36q-105 0 -185 40.5t-124 115.5t-44 175q0 139 63.5 253.5t176 180.5
t252.5 66zM457 49q45 0 83 24t62.5 67t30.5 98q2 18 2 26q0 56 -30.5 91.5t-86.5 35.5q-53 0 -93 -31t-62 -80.5t-22 -104.5q0 -58 30 -92t86 -34z" />
    <glyph glyph-name="A" unicode="A" horiz-adv-x="652" 
d="M485 166h-318l-61 -166h-74l255 690h79l254 -690h-74zM464 224l-138 378l-138 -378h276z" />
    <glyph glyph-name="B" unicode="B" horiz-adv-x="597" 
d="M407 361q59 -11 100 -60t41 -114q0 -53 -26.5 -95.5t-77.5 -67t-122 -24.5h-242v699h235q106 0 161.5 -49t55.5 -127q0 -65 -35 -105.5t-90 -56.5zM150 390h163q71 0 109.5 33.5t38.5 92.5q0 58 -38.5 91t-112.5 33h-160v-250zM317 59q76 0 118.5 36t42.5 99t-44.5 100.5
t-119.5 37.5h-164v-273h167z" />
    <glyph glyph-name="C" unicode="C" horiz-adv-x="771" 
d="M48 350q0 103 45 184.5t123 127t174 45.5q117 0 200.5 -55.5t121.5 -156.5h-82q-30 71 -91.5 111t-148.5 40q-77 0 -138.5 -36t-96.5 -103.5t-35 -156.5t35 -156t96.5 -103t138.5 -36q87 0 148.5 39.5t91.5 109.5h82q-38 -100 -122 -155t-200 -55q-96 0 -174 45.5
t-123 126.5t-45 184z" />
    <glyph glyph-name="D" unicode="D" horiz-adv-x="706" 
d="M287 699q116 0 199 -42t127 -121t44 -188q0 -108 -44 -186.5t-127 -120t-199 -41.5h-207v699h207zM287 58q146 0 222.5 76.5t76.5 213.5q0 138 -76.5 215.5t-222.5 77.5h-137v-583h137z" />
    <glyph glyph-name="E" unicode="E" horiz-adv-x="503" 
d="M150 642v-261h265v-58h-265v-265h295v-58h-365v700h365v-58h-295z" />
    <glyph glyph-name="F" unicode="F" horiz-adv-x="493" 
d="M458 699v-58h-308v-261h260v-58h-260v-322h-70v699h378z" />
    <glyph glyph-name="G" unicode="G" horiz-adv-x="782" 
d="M630 495q-30 69 -91.5 108.5t-144.5 39.5q-78 0 -140 -36t-98 -102.5t-36 -154.5t36 -155t98 -103t140 -36q73 0 131.5 31.5t94 90t40.5 136.5h-294v57h368v-51q-5 -92 -50 -166.5t-120.5 -117.5t-169.5 -43q-97 0 -176 45.5t-124.5 127t-45.5 184.5t45.5 184.5
t124.5 127t176 45.5q112 0 196 -56t122 -156h-82z" />
    <glyph glyph-name="H" unicode="H" horiz-adv-x="679" 
d="M599 699v-699h-70v327h-379v-327h-70v699h70v-314h379v314h70z" />
    <glyph glyph-name="I" unicode="I" horiz-adv-x="229" 
d="M150 699v-699h-70v699h70z" />
    <glyph glyph-name="J" unicode="J" horiz-adv-x="499" 
d="M403 699v-529q0 -80 -49 -128.5t-131 -48.5q-85 0 -135.5 51.5t-50.5 139.5h71q1 -57 28.5 -93t86.5 -36q56 0 83 33t27 82v529h70z" />
    <glyph glyph-name="K" unicode="K" horiz-adv-x="568" 
d="M453 0l-303 323v-323h-70v699h70v-327l303 327h89l-327 -349l330 -350h-92z" />
    <glyph glyph-name="L" unicode="L" horiz-adv-x="421" 
d="M150 57h251v-57h-321v699h70v-642z" />
    <glyph glyph-name="M" unicode="M" horiz-adv-x="842" 
d="M763 690v-690h-70v551l-246 -551h-51l-246 549v-549h-70v690h74l267 -598l267 598h75z" />
    <glyph glyph-name="N" unicode="N" horiz-adv-x="686" 
d="M607 0h-70l-387 588v-588h-70v699h70l387 -587v587h70v-699z" />
    <glyph glyph-name="O" unicode="O" horiz-adv-x="788" 
d="M394 -7q-97 0 -176 45.5t-124.5 127t-45.5 184.5t45.5 184.5t124.5 127t176 45.5q98 0 177 -45.5t124 -127t45 -184.5t-45 -184.5t-124 -127t-177 -45.5zM394 54q78 0 140 36t98 103.5t36 156.5t-36 156t-98 103t-140 36t-140 -36t-98 -103t-36 -156t36 -156.5t98 -103.5
t140 -36z" />
    <glyph glyph-name="P" unicode="P" horiz-adv-x="564" 
d="M527 498q0 -90 -59 -145t-177 -55h-141v-298h-70v699h211q117 0 176.5 -55t59.5 -146zM291 358q164 0 164 140q0 70 -39 106t-125 36h-141v-282h141z" />
    <glyph glyph-name="Q" unicode="Q" horiz-adv-x="789" 
d="M657 -137l-156 145q-51 -15 -107 -15q-97 0 -176 45.5t-124.5 127t-45.5 184.5t45.5 184.5t124.5 127t176 45.5q98 0 177 -45.5t124 -127t45 -184.5q0 -106 -47 -188.5t-129 -126.5l187 -172h-94zM120 350q0 -89 36 -156.5t98 -103.5t140 -36t140 36t98 103.5t36 156.5
t-36 156t-98 103t-140 36t-140 -36t-98 -103t-36 -156z" />
    <glyph glyph-name="R" unicode="R" horiz-adv-x="587" 
d="M452 0l-173 292h-129v-292h-70v699h210q117 0 177.5 -56t60.5 -147q0 -76 -43.5 -129.5t-128.5 -69.5l180 -297h-84zM150 349h141q82 0 123.5 40t41.5 107q0 69 -40 106.5t-126 37.5h-140v-291z" />
    <glyph glyph-name="S" unicode="S" horiz-adv-x="572" 
d="M292 -7q-69 0 -121.5 24t-82.5 67t-32 96h74q5 -51 45 -89.5t117 -38.5q71 0 112.5 36.5t41.5 92.5q0 45 -23 72.5t-57 41t-94 29.5q-70 19 -111 37t-70 56t-29 103q0 54 28 96.5t79 66.5t117 24q97 0 156.5 -47.5t68.5 -122.5h-76q-7 43 -47 76.5t-108 33.5
q-63 0 -105 -33.5t-42 -91.5q0 -44 23 -71t57.5 -41t93.5 -30q68 -19 110 -37.5t71 -56.5t29 -102q0 -49 -26 -93t-77 -71t-122 -27z" />
    <glyph glyph-name="T" unicode="T" horiz-adv-x="520" 
d="M489 699v-58h-194v-641h-70v641h-195v58h459z" />
    <glyph glyph-name="U" unicode="U" horiz-adv-x="661" 
d="M147 699v-440q0 -104 49.5 -154t135.5 -50t134.5 49.5t48.5 154.5v440h70v-439q0 -133 -70.5 -200t-183.5 -67t-183.5 67t-70.5 200v439h70z" />
    <glyph glyph-name="V" unicode="V" horiz-adv-x="659" 
d="M634 699l-265 -699h-80l-265 699h76l229 -623l231 623h74z" />
    <glyph glyph-name="W" unicode="W" horiz-adv-x="955" 
d="M928 699l-198 -699h-78l-176 596l-180 -596l-76 -1l-194 700h75l160 -613l179 613h78l174 -613l161 613h75z" />
    <glyph glyph-name="X" unicode="X" horiz-adv-x="585" 
d="M332 349l212 -349h-78l-178 292l-169 -292h-78l211 352l-211 347h78l177 -291l171 291h78z" />
    <glyph glyph-name="Y" unicode="Y" horiz-adv-x="564" 
d="M542 699l-224 -427v-272h-70v272l-226 427h79l182 -363l181 363h78z" />
    <glyph glyph-name="Z" unicode="Z" horiz-adv-x="525" 
d="M125 62h357v-62h-439v56l352 581h-346v62h428v-56z" />
    <glyph glyph-name="bracketleft" unicode="[" horiz-adv-x="367" 
d="M273 934v-58h-88v-1003h88v-59h-154v1120h154z" />
    <glyph glyph-name="backslash" unicode="\" horiz-adv-x="603" 
d="M427 -166l-326 1106h71l324 -1106h-69z" />
    <glyph glyph-name="bracketright" unicode="]" horiz-adv-x="367" 
d="M248 -186h-154v59h88v1003h-88v58h154v-1120z" />
    <glyph glyph-name="asciicircum" unicode="^" horiz-adv-x="606" 
d="M110 171h-72l234 519h63l234 -519h-73l-192 431z" />
    <glyph glyph-name="underscore" unicode="_" horiz-adv-x="674" 
d="M595 -35v-65h-509v65h509z" />
    <glyph glyph-name="grave" unicode="`" horiz-adv-x="324" 
d="M68 706l45 70l146 -116l-33 -50z" />
    <glyph glyph-name="a" unicode="a" horiz-adv-x="675" 
d="M48 274q0 84 33.5 147.5t93 98t134.5 34.5q78 0 134.5 -36t81.5 -92v120h70v-546h-70v121q-26 -56 -82.5 -92.5t-134.5 -36.5q-74 0 -133.5 35t-93 99t-33.5 148zM525 273q0 66 -27 116t-73.5 77t-102.5 27q-58 0 -104 -26t-72.5 -75.5t-26.5 -117.5q0 -67 26.5 -117.5
t72.5 -77t104 -26.5q56 0 102.5 27t73.5 77t27 116z" />
    <glyph glyph-name="b" unicode="b" horiz-adv-x="675" 
d="M149 425q27 57 83.5 93t133.5 36q75 0 134 -34.5t92.5 -98t33.5 -147.5t-33.5 -148t-93 -99t-133.5 -35q-78 0 -134.5 35.5t-82.5 92.5v-120h-69v740h69v-315zM555 274q0 68 -26.5 117.5t-72.5 75.5t-104 26q-56 0 -102.5 -27t-73.5 -77t-27 -116t27 -116t73.5 -77
t102.5 -27q58 0 104 26.5t72.5 77t26.5 117.5z" />
    <glyph glyph-name="c" unicode="c" horiz-adv-x="613" 
d="M48 273q0 85 34 148.5t94 98t137 34.5q101 0 166.5 -50t84.5 -136h-75q-14 59 -60.5 92.5t-115.5 33.5q-55 0 -99 -25t-69.5 -74.5t-25.5 -121.5t25.5 -122t69.5 -75t99 -25q69 0 115.5 33.5t60.5 93.5h75q-19 -84 -85 -135t-166 -51q-77 0 -137 34.5t-94 98t-34 148.5z
" />
    <glyph glyph-name="d" unicode="d" horiz-adv-x="675" 
d="M48 274q0 84 34 147.5t93.5 98t134.5 34.5q72 0 130 -35t85 -91v312h70v-740h-70v122q-25 -57 -82 -93.5t-134 -36.5q-75 0 -134.5 35t-93 99t-33.5 148zM525 273q0 66 -27 116t-73.5 77t-102.5 27q-58 0 -104 -26t-72.5 -75.5t-26.5 -117.5q0 -67 26.5 -117.5t72.5 -77
t104 -26.5q56 0 102.5 27t73.5 77t27 116z" />
    <glyph glyph-name="e" unicode="e" horiz-adv-x="622" 
d="M574 301q0 -36 -2 -55h-453q3 -62 30 -106t71 -66.5t96 -22.5q68 0 114.5 33t61.5 89h74q-20 -80 -85.5 -130.5t-164.5 -50.5q-77 0 -138 34.5t-95.5 98t-34.5 148.5t34 149t95 98t139 34t136.5 -34t90 -91.5t31.5 -127.5zM503 303v5q0 58 -25 100t-69 64t-96 22
q-78 0 -133 -50t-61 -141h384z" />
    <glyph glyph-name="f" unicode="f" horiz-adv-x="325" 
d="M295 487h-127v-487h-70v487h-76v59h76v38q0 89 45.5 131t147.5 42v-60q-68 0 -95.5 -26t-27.5 -87v-38h127v-59z" />
    <glyph glyph-name="g" unicode="g" horiz-adv-x="675" 
d="M309 554q77 0 134 -36t82 -91v119h70v-560q0 -75 -32.5 -133t-90.5 -89.5t-132 -31.5q-105 0 -174.5 50t-86.5 136h69q18 -57 68.5 -91t123.5 -34q53 0 95 22.5t66 66.5t24 104v135q-26 -56 -82.5 -92.5t-133.5 -36.5q-75 0 -134.5 35t-93 99t-33.5 148t33.5 147.5t93 98
t134.5 34.5zM525 273q0 66 -27 116t-73.5 77t-102.5 27q-58 0 -104 -26t-72.5 -75.5t-26.5 -117.5q0 -67 26.5 -117.5t72.5 -77t104 -26.5q56 0 102.5 27t73.5 77t27 116z" />
    <glyph glyph-name="h" unicode="h" horiz-adv-x="633" 
d="M340 556q62 0 111.5 -26t78 -79.5t28.5 -130.5v-320h-69v312q0 89 -44.5 136t-121.5 47q-79 0 -126 -50t-47 -147v-298h-70v740h70v-287q26 49 76.5 76t113.5 27z" />
    <glyph glyph-name="i" unicode="i" horiz-adv-x="229" 
d="M115 649q-21 0 -36 15t-15 37t15 36.5t36 14.5t36 -14.5t15 -36.5t-15 -37t-36 -15zM150 546v-546h-70v546h70z" />
    <glyph glyph-name="j" unicode="j" horiz-adv-x="234" 
d="M120 649q-21 0 -36 15t-15 37t15 36.5t36 14.5t35.5 -14.5t14.5 -36.5t-14.5 -37t-35.5 -15zM154 -129q0 -66 -33 -97.5t-99 -31.5h-49v60h38q39 0 56 16.5t17 55.5v672h70v-675z" />
    <glyph glyph-name="k" unicode="k" horiz-adv-x="480" 
d="M375 0l-225 245v-245h-70v740h70v-438l220 244h98l-259 -272l261 -274h-95z" />
    <glyph glyph-name="l" unicode="l" horiz-adv-x="229" 
d="M150 740v-740h-70v740h70z" />
    <glyph glyph-name="m" unicode="m" horiz-adv-x="1022" 
d="M730 556q96 0 156.5 -60.5t60.5 -175.5v-320h-69v312q0 89 -43 136t-117 47q-77 0 -123 -51t-46 -148v-296h-69v312q0 89 -43 136t-118 47q-77 0 -123 -51t-46 -148v-296h-70v546h70v-94q26 51 74 77.5t107 26.5q71 0 124.5 -34t77.5 -100q22 65 75.5 99.5t121.5 34.5z
" />
    <glyph glyph-name="n" unicode="n" horiz-adv-x="633" 
d="M336 556q98 0 160 -60.5t62 -175.5v-320h-69v312q0 89 -44.5 136t-121.5 47q-79 0 -126 -50t-47 -147v-298h-70v546h70v-93q26 50 75 76.5t111 26.5z" />
    <glyph glyph-name="o" unicode="o" horiz-adv-x="642" 
d="M319 -8q-77 0 -138.5 34.5t-97 98t-35.5 148.5t36 148.5t98 98t139 34.5t139.5 -34.5t98 -98t35.5 -148.5q0 -84 -36 -148t-99 -98.5t-140 -34.5zM319 53q54 0 100 24.5t74.5 74t28.5 121.5t-28 121.5t-74 74t-100 24.5t-100 -24.5t-73.5 -74t-27.5 -121.5t27.5 -121.5
t73 -74t99.5 -24.5z" />
    <glyph glyph-name="p" unicode="p" horiz-adv-x="675" 
d="M149 426q26 55 82.5 91.5t134.5 36.5q74 0 133.5 -34.5t93 -98t33.5 -147.5t-33.5 -148t-93 -99t-133.5 -35q-77 0 -134 36.5t-83 91.5v-378h-69v804h69v-120zM555 274q0 68 -26.5 117.5t-72.5 75.5t-104 26q-56 0 -102.5 -27t-73.5 -77t-27 -116t27 -116t73.5 -77
t102.5 -27q58 0 104 26.5t72.5 77t26.5 117.5z" />
    <glyph glyph-name="q" unicode="q" horiz-adv-x="675" 
d="M48 274q0 84 34 147.5t93.5 98t134.5 34.5q77 0 134 -36.5t81 -91.5v120h70v-804h-70v378q-24 -55 -81.5 -91.5t-135.5 -36.5q-74 0 -133.5 35t-93 99t-33.5 148zM525 273q0 66 -27 116t-73.5 77t-102.5 27q-58 0 -104 -26t-72.5 -75.5t-26.5 -117.5q0 -67 26.5 -117.5
t72.5 -77t104 -26.5q56 0 102.5 27t73.5 77t27 116z" />
    <glyph glyph-name="r" unicode="r" horiz-adv-x="362" 
d="M150 449q23 51 70.5 79t116.5 28v-73h-19q-76 0 -122 -41t-46 -137v-305h-70v546h70v-97z" />
    <glyph glyph-name="s" unicode="s" horiz-adv-x="510" 
d="M268 -8q-94 0 -153.5 43.5t-66.5 118.5h72q5 -46 43.5 -74.5t103.5 -28.5q57 0 89.5 27t32.5 67q0 28 -18 46t-45.5 28.5t-74.5 22.5q-61 16 -99 32t-64.5 47.5t-26.5 84.5q0 40 24 74t68 54t100 20q88 0 142 -44.5t58 -122.5h-70q-3 48 -37.5 77.5t-94.5 29.5
q-53 0 -86 -25t-33 -62q0 -32 19.5 -52.5t48.5 -32t78 -25.5q59 -16 94 -31t60 -44t26 -77q0 -44 -24 -78.5t-67 -54.5t-99 -20z" />
    <glyph glyph-name="t" unicode="t" horiz-adv-x="356" 
d="M171 487v-339q0 -50 19 -69t67 -19h64v-60h-75q-74 0 -110 34.5t-36 113.5v339h-76v59h76v137h71v-137h150v-59h-150z" />
    <glyph glyph-name="u" unicode="u" horiz-adv-x="633" 
d="M553 546v-546h-70v96q-24 -51 -74 -78t-112 -27q-98 0 -160 60.5t-62 175.5v319h69v-311q0 -89 44.5 -136t121.5 -47q79 0 126 50t47 147v297h70z" />
    <glyph glyph-name="v" unicode="v" horiz-adv-x="547" 
d="M274 68l184 478h74l-219 -546h-79l-219 546h75z" />
    <glyph glyph-name="w" unicode="w" horiz-adv-x="815" 
d="M800 546l-171 -546h-70l-151 458l-151 -458h-71l-171 546h71l136 -475l153 475h70l151 -476l135 476h69z" />
    <glyph glyph-name="x" unicode="x" horiz-adv-x="460" 
d="M366 0l-141 220l-136 -220h-74l176 273l-174 273h79l139 -217l135 217h73l-174 -270l176 -276h-79z" />
    <glyph glyph-name="y" unicode="y" horiz-adv-x="545" 
d="M530 546l-324 -803h-73l106 260l-224 543h77l186 -466l180 466h72z" />
    <glyph glyph-name="z" unicode="z" horiz-adv-x="441" 
d="M117 58h286v-58h-366v58l281 430h-276v58h356v-58z" />
    <glyph glyph-name="braceleft" unicode="{" horiz-adv-x="413" 
d="M86 402q105 24 105 117q0 46 -11 128q-1 9 -6 55.5t-5 85.5q0 72 39 108.5t106 36.5h50v-61h-38q-44 0 -66.5 -21t-22.5 -68q0 -35 5 -79.5t6 -54.5q11 -84 11 -132q0 -55 -27.5 -92.5t-84.5 -50.5v-2q57 -13 84.5 -50.5t27.5 -92.5q0 -47 -11 -131q-1 -11 -6 -55.5
t-5 -79.5q0 -47 22.5 -68t66.5 -21h38v-61h-50q-67 0 -106 36.5t-39 108.5q0 39 5 85.5t6 56.5q11 83 11 127q0 93 -105 118v57z" />
    <glyph glyph-name="bar" unicode="|" horiz-adv-x="261" 
d="M166 -100h-70v890h70v-890z" />
    <glyph glyph-name="braceright" unicode="}" horiz-adv-x="413" 
d="M327 345q-105 -25 -105 -118q0 -44 11 -127q1 -10 6 -56.5t5 -85.5q0 -72 -39 -108.5t-106 -36.5h-50v61h38q44 0 66.5 21t22.5 68q0 35 -5 79.5t-6 55.5q-11 84 -11 131q0 55 27.5 92.5t84.5 50.5v2q-57 13 -84.5 50.5t-27.5 92.5q0 48 11 132q1 10 6 54.5t5 79.5
q0 47 -22.5 68t-66.5 21h-38v61h50q67 0 106 -36.5t39 -108.5q0 -39 -5 -85.5t-6 -55.5q-11 -82 -11 -128q0 -93 105 -117v-57z" />
    <glyph glyph-name="asciitilde" unicode="~" horiz-adv-x="487" 
d="M38 257q11 64 42.5 96.5t81.5 32.5q27 0 48 -9.5t48 -27.5q26 -16 40.5 -23t31.5 -7q27 0 44.5 18t21.5 48h53q-21 -129 -124 -129q-25 0 -44.5 9t-48.5 27q-24 16 -39.5 23.5t-34.5 7.5q-26 0 -44 -18.5t-23 -47.5h-53z" />
    <glyph glyph-name="uni00A0" unicode="&#xa0;" horiz-adv-x="274" 
 />
    <glyph glyph-name="exclamdown" unicode="&#xa1;" horiz-adv-x="277" 
d="M139 561q21 0 35.5 -15t14.5 -37t-14.5 -36.5t-35.5 -14.5q-22 0 -36.5 14.5t-14.5 36.5t14.5 37t36.5 15zM106 371h59l9 -514h-76z" />
    <glyph glyph-name="cent" unicode="&#xa2;" horiz-adv-x="642" 
d="M315 68q67 0 111 33t56 91h66q-11 -77 -68 -127t-147 -55v-100h-44v101q-105 8 -165.5 77t-60.5 176t60.5 176.5t165.5 77.5v96h44v-95q90 -5 147 -55t68 -127h-66q-12 58 -56 91t-111 33q-81 0 -133 -51.5t-52 -145.5t52 -145t133 -51z" />
    <glyph glyph-name="sterling" unicode="&#xa3;" horiz-adv-x="596" 
d="M533 58v-59h-431l-12 42q43 49 63.5 90.5t20.5 101.5q0 36 -14 81h-114v50h96q-15 44 -23 76.5t-8 72.5q0 60 26 106t73.5 71.5t108.5 25.5q99 0 153 -57t60 -145h-64q-4 64 -42.5 103.5t-106.5 39.5q-61 0 -101.5 -36.5t-40.5 -110.5q0 -36 8.5 -68t24.5 -78h194v-50
h-177q13 -48 13 -79q0 -51 -18.5 -94t-56.5 -83h368z" />
    <glyph glyph-name="currency" unicode="&#xa4;" horiz-adv-x="526" 
d="M432 377q0 -62 -33 -108l60 -60l-33 -33l-60 60q-45 -34 -104 -34q-60 0 -104 33l-59 -59l-33 33l60 60q-32 43 -32 108t33 109l-61 61l33 33l61 -61q44 33 103 33q57 0 103 -33l60 61l33 -33l-61 -61q34 -47 34 -109zM262 248q45 0 77.5 34.5t32.5 94.5q0 59 -32 94.5
t-78 35.5t-77 -35t-31 -95t30.5 -94.5t77.5 -34.5z" />
    <glyph glyph-name="yen" unicode="&#xa5;" horiz-adv-x="585" 
d="M382 372h148v-52l-175 -1l-25 -47v-47h200v-53h-200v-172h-70v172h-200v53h200v47l-25 47l-175 1v52h147l-173 327h79l181 -363l181 363h79z" />
    <glyph glyph-name="brokenbar" unicode="&#xa6;" horiz-adv-x="261" 
d="M96 790h70v-370h-70v370zM166 -100h-70v370h70v-370z" />
    <glyph glyph-name="section" unicode="&#xa7;" horiz-adv-x="572" 
d="M367 106q59 -22 93 -54.5t34 -83.5q0 -42 -23 -76t-67 -54t-104 -20q-91 0 -149.5 44t-63.5 122h70q6 -50 40.5 -82.5t102.5 -32.5q58 0 91 23.5t33 69.5q0 28 -15 48t-50 37t-98 36q-105 31 -158 72.5t-53 114.5q0 59 41 104.5t116 60.5q-60 23 -94.5 55t-34.5 84
q0 41 23.5 75t68 53.5t104.5 19.5q91 0 148.5 -43.5t62.5 -121.5h-70q-4 48 -39 81.5t-102 33.5q-59 0 -92.5 -23.5t-33.5 -68.5q0 -29 15 -49t50 -37.5t99 -36.5q105 -31 157.5 -72t52.5 -115q0 -58 -40.5 -103t-114.5 -61zM121 270q0 -54 45.5 -89t122.5 -35q76 0 119 36
t43 88q0 55 -45 89.5t-122 34.5q-51 0 -88 -17t-56 -45t-19 -62z" />
    <glyph glyph-name="dieresis" unicode="&#xa8;" horiz-adv-x="315" 
d="M81 623q-19 0 -32.5 13.5t-13.5 32.5t13.5 32.5t32.5 13.5t32.5 -13.5t13.5 -32.5t-13.5 -32.5t-32.5 -13.5zM235 623q-19 0 -32.5 13.5t-13.5 32.5t13.5 32.5t32.5 13.5t32 -13.5t13 -32.5t-13 -32.5t-32 -13.5z" />
    <glyph glyph-name="copyright" unicode="&#xa9;" horiz-adv-x="796" 
d="M398 703q101 0 179.5 -45t122 -125t43.5 -183t-43.5 -183.5t-122 -125.5t-179.5 -45t-179.5 45t-122 125.5t-43.5 183.5t43.5 183t122 125t179.5 45zM398 670q-94 0 -163.5 -40.5t-107.5 -113t-38 -166.5t38 -166.5t108 -113t163 -40.5t163 40.5t108 113t38 166.5
t-38 166.5t-107.5 113t-163.5 40.5zM398 584q75 0 130 -39.5t74 -111.5h-65q-15 48 -52.5 73.5t-86.5 25.5q-66 0 -109.5 -48t-43.5 -134t43.5 -133.5t109.5 -47.5q51 0 87 25t52 73h65q-19 -69 -74.5 -109.5t-129.5 -40.5q-60 0 -109 28t-78 81t-29 125q0 71 29 124t78 81
t109 28z" />
    <glyph glyph-name="ordfeminine" unicode="&#xaa;" horiz-adv-x="445" 
d="M35 529q0 53 21.5 94t59 63.5t84.5 22.5q51 0 86 -22t51 -58v74h57v-350h-57v73q-15 -36 -50 -57.5t-85 -21.5q-48 0 -86 23.5t-59.5 65t-21.5 93.5zM94 529q0 -63 34.5 -100t85.5 -37q53 0 88 37t35 99t-35 99t-88 37q-51 0 -85.5 -36.5t-34.5 -98.5z" />
    <glyph glyph-name="guillemotleft" unicode="&#xab;" horiz-adv-x="435" 
d="M144 120l-99 175l99 175h71l-102 -175l102 -175h-71zM314 120l-99 175l99 175h71l-102 -175l102 -175h-71z" />
    <glyph glyph-name="logicalnot" unicode="&#xac;" horiz-adv-x="651" 
d="M607 430v-200h-69v143h-493v57h562z" />
    <glyph glyph-name="uni00AD" unicode="&#xad;" horiz-adv-x="519" 
d="M419 400v-59h-389v59h389z" />
    <glyph glyph-name="registered" unicode="&#xae;" horiz-adv-x="502" 
d="M252 708q57 0 101.5 -26t70 -72t25.5 -103t-25.5 -102.5t-70 -71.5t-101.5 -26t-102 26t-70.5 71.5t-25.5 102.5t25.5 103t70.5 72t102 26zM252 340q72 0 116.5 47t44.5 120t-44.5 120t-116.5 47q-73 0 -117.5 -47t-44.5 -120t44.5 -120t117.5 -47zM339 551
q0 -25 -14 -41.5t-39 -21.5l60 -86l-51 -1l-55 85h-23v-85h-43v215h93q33 0 52.5 -17.5t19.5 -47.5zM217 522h47q14 0 23 7t9 21t-9 20.5t-23 6.5h-47v-55z" />
    <glyph glyph-name="macron" unicode="&#xaf;" horiz-adv-x="387" 
d="M363 700v-54h-339v54h339z" />
    <glyph glyph-name="degree" unicode="&#xb0;" horiz-adv-x="394" 
d="M29 522q0 79 47 127t121 48t121 -48t47 -127q0 -52 -21.5 -91.5t-60 -61.5t-87.5 -22q-75 0 -121 48t-46 127zM307 522q0 62 -31 97t-80 35q-48 0 -79 -35t-31 -97t30.5 -96.5t79.5 -34.5q48 0 79.5 34.5t31.5 96.5z" />
    <glyph glyph-name="plusminus" unicode="&#xb1;" horiz-adv-x="657" 
d="M361 381v-211h222v-60h-509v60h222v211h-222v59h222v188h65v-188h222v-59h-222z" />
    <glyph glyph-name="twosuperior" unicode="&#xb2;" horiz-adv-x="322" 
d="M281 399v-47h-247v40l111 95q34 30 52 55.5t18 58.5q0 31 -17 47.5t-43 16.5q-28 0 -44.5 -16.5t-20.5 -46.5h-57q3 47 35 77t89 30q53 0 85.5 -30t32.5 -76q0 -40 -22 -71t-70 -69l-83 -64h181z" />
    <glyph glyph-name="threesuperior" unicode="&#xb3;" horiz-adv-x="323" 
d="M31 614q5 42 39.5 68.5t90.5 26.5q52 0 88 -29t36 -72q0 -30 -17 -51t-47 -29v-2q29 -9 47.5 -30t18.5 -53q0 -40 -35.5 -68t-94.5 -28q-57 0 -91 27t-38 77h56q8 -60 73 -60q32 0 51 15.5t19 42.5q0 28 -20.5 43.5t-52.5 15.5h-48v39h48q32 0 51.5 15.5t19.5 43.5
q0 26 -18.5 42t-49.5 16q-59 0 -72 -50h-54z" />
    <glyph glyph-name="acute" unicode="&#xb4;" horiz-adv-x="279" 
d="M112 639l108 151l65 -53l-131 -129z" />
    <glyph glyph-name="uni00B5" unicode="&#xb5;" horiz-adv-x="638" 
d="M558 546v-546h-70v113q-24 -60 -74 -91.5t-113 -31.5q-50 0 -90 21t-62 69v-338h-69v804h69v-294q0 -99 46 -150t125 -51q77 0 122.5 50t45.5 147v298h70z" />
    <glyph glyph-name="paragraph" unicode="&#xb6;" horiz-adv-x="564" 
d="M484 0h-63v634h-86v-634h-63v289h-8q-117 0 -176.5 55t-59.5 145t60 145.5t176 55.5h220v-690z" />
    <glyph glyph-name="periodcentered" unicode="&#xb7;" horiz-adv-x="183" 
d="M94 295q-22 0 -36.5 15t-14.5 37t14.5 36.5t36.5 14.5q21 0 35.5 -14.5t14.5 -36.5t-14.5 -37t-35.5 -15z" />
    <glyph glyph-name="cedilla" unicode="&#xb8;" horiz-adv-x="265" 
d="M113 -67h9q53 0 86 -23.5t33 -69.5q0 -45 -32 -71.5t-85 -26.5h-100v47h86q37 0 54.5 12.5t17.5 38.5q0 48 -72 48h-46v119h49v-74z" />
    <glyph glyph-name="onesuperior" unicode="&#xb9;" horiz-adv-x="183" 
d="M29 659v45h111v-352h-57v307h-54z" />
    <glyph glyph-name="ordmasculine" unicode="&#xba;" horiz-adv-x="429" 
d="M35 527q0 54 23.5 95.5t64.5 64t92 22.5t92 -22.5t64.5 -64t23.5 -95.5q0 -53 -24 -94.5t-65 -64.5t-92 -23t-92 23t-64 64t-23 95zM336 527q0 64 -35 100t-87 36q-51 0 -85.5 -36t-34.5 -100t34 -99.5t86 -35.5q51 0 86.5 36t35.5 99z" />
    <glyph glyph-name="guillemotright" unicode="&#xbb;" horiz-adv-x="435" 
d="M152 295l-102 175h71l99 -175l-99 -175h-71zM322 295l-102 175h71l99 -175l-99 -175h-71z" />
    <glyph glyph-name="onequarter" unicode="&#xbc;" horiz-adv-x="602" 
d="M41 659v45h111v-352h-57v307h-54zM493 700l-366 -700h-67l367 700h66zM568 71h-50v-71h-57v71h-179v35l163 248h73v-244h50v-39zM462 296l-122 -186h122v186z" />
    <glyph glyph-name="onehalf" unicode="&#xbd;" horiz-adv-x="650" 
d="M92 659h-54v45h111v-352h-57v307zM479 700l-360 -700h-67l360 700h67zM599 46v-47h-247v40l111 95q34 30 52 55.5t18 58.5q0 31 -17 47.5t-43 16.5q-28 0 -44.5 -16.5t-20.5 -46.5h-57q3 47 35 77t89 30q53 0 85.5 -30t32.5 -76q0 -40 -22 -71t-70 -69l-83 -64h181z" />
    <glyph glyph-name="threequarters" unicode="&#xbe;" horiz-adv-x="680" 
d="M41 614q5 42 39.5 68.5t90.5 26.5q52 0 88 -29t36 -72q0 -30 -17 -51t-47 -29v-2q29 -9 47.5 -30t18.5 -53q0 -40 -35.5 -68t-94.5 -28q-57 0 -91 27t-38 77h56q8 -60 73 -60q32 0 51 15.5t19 42.5q0 28 -20.5 43.5t-52.5 15.5h-48v39h48q32 0 51.5 15.5t19.5 43.5
q0 26 -18.5 42t-49.5 16q-59 0 -72 -50h-54zM589 700l-377 -700h-66l377 700h66zM652 71h-50v-71h-57v71h-179v35l163 248h73v-244h50v-39zM547 296l-122 -186h122v186z" />
    <glyph glyph-name="questiondown" unicode="&#xbf;" horiz-adv-x="502" 
d="M321 551q22 0 36.5 -15t14.5 -37t-14.5 -36.5t-36.5 -14.5q-21 0 -35.5 14.5t-14.5 36.5t14.5 37t35.5 15zM258 -162q-64 0 -113.5 25t-77 71.5t-27.5 107.5q0 108 66.5 158.5t181.5 50.5l3 110h60l4 -160h-26q-103 0 -162.5 -32.5t-59.5 -126.5q0 -66 41.5 -105
t109.5 -39t108 37t40 101h67q0 -60 -27.5 -104.5t-76 -69t-111.5 -24.5z" />
    <glyph glyph-name="Agrave" unicode="&#xc0;" horiz-adv-x="652" 
d="M485 166h-318l-61 -166h-74l255 690h79l254 -690h-74zM464 224l-138 378l-138 -378h276zM231 860l45 70l146 -116l-33 -50z" />
    <glyph glyph-name="Aacute" unicode="&#xc1;" horiz-adv-x="652" 
d="M485 166h-318l-61 -166h-74l255 690h79l254 -690h-74zM464 224l-138 378l-138 -378h276zM240 793l108 151l65 -53l-131 -129z" />
    <glyph glyph-name="Acircumflex" unicode="&#xc2;" horiz-adv-x="652" 
d="M485 166h-318l-61 -166h-74l255 690h79l254 -690h-74zM464 224l-138 378l-138 -378h276zM182 764l-10 53l151 98l157 -98l-10 -53l-147 62z" />
    <glyph glyph-name="Atilde" unicode="&#xc3;" horiz-adv-x="652" 
d="M485 166h-318l-61 -166h-74l255 690h79l254 -690h-74zM464 224l-138 378l-138 -378h276zM179 791q2 14 7 31t14.5 32t23 25.5t31.5 10.5q15 0 30 -5t30.5 -11t32.5 -12t35 -8q38 -5 44 36l47 -4q-3 -16 -8.5 -34t-14.5 -33t-22 -24.5t-31 -9.5q-16 0 -30.5 6t-29.5 13.5
t-30.5 13.5t-33.5 6q-16 0 -28.5 -11t-17.5 -29z" />
    <glyph glyph-name="Adieresis" unicode="&#xc4;" horiz-adv-x="652" 
d="M250 767q-19 0 -32.5 13.5t-13.5 32.5t13.5 32.5t32.5 13.5t32.5 -13.5t13.5 -32.5t-13.5 -32.5t-32.5 -13.5zM404 767q-19 0 -32.5 13.5t-13.5 32.5t13.5 32.5t32.5 13.5t32 -13.5t13 -32.5t-13 -32.5t-32 -13.5zM485 166h-318l-61 -166h-74l255 690h79l254 -690h-74z
M464 224l-138 378l-138 -378h276z" />
    <glyph glyph-name="Aring" unicode="&#xc5;" horiz-adv-x="652" 
d="M428 854q0 -45 -29 -72.5t-73 -27.5q-43 0 -72.5 27.5t-29.5 72.5t29.5 72.5t72.5 27.5q44 0 73 -27.5t29 -72.5zM385 854q0 28 -17 44.5t-42 16.5t-41.5 -16.5t-16.5 -44.5q0 -27 16.5 -44t41.5 -17t42 17t17 44zM485 166h-318l-61 -166h-74l255 690h79l254 -690h-74z
M464 224l-138 378l-138 -378h276z" />
    <glyph glyph-name="AE" unicode="&#xc6;" horiz-adv-x="882" 
d="M528 644v-264h265v-56h-265v-268h295v-56h-365v166h-274l-96 -166h-77l406 700h406v-56h-295zM458 222v418l-242 -418h242z" />
    <glyph glyph-name="Ccedilla" unicode="&#xc7;" horiz-adv-x="771" 
d="M390 55q87 0 148.5 39.5t91.5 109.5h82q-35 -92 -109.5 -146.5t-177.5 -62.5v-62h9q53 0 86 -23.5t33 -69.5q0 -45 -32 -71.5t-85 -26.5h-100v47h86q37 0 54.5 12.5t17.5 38.5q0 48 -72 48h-46v106q-93 3 -168 49.5t-117.5 126t-42.5 180.5q0 103 45 184.5t123 127
t174 45.5q117 0 200.5 -55.5t121.5 -156.5h-82q-30 71 -91.5 111t-148.5 40q-77 0 -138.5 -36t-96.5 -103.5t-35 -156.5t35 -156t96.5 -103t138.5 -36z" />
    <glyph glyph-name="Egrave" unicode="&#xc8;" horiz-adv-x="503" 
d="M150 642v-261h265v-58h-265v-265h295v-58h-365v700h365v-58h-295zM156 860l45 70l146 -116l-33 -50z" />
    <glyph glyph-name="Eacute" unicode="&#xc9;" horiz-adv-x="503" 
d="M150 642v-261h265v-58h-265v-265h295v-58h-365v700h365v-58h-295zM165 793l108 151l65 -53l-131 -129z" />
    <glyph glyph-name="Ecircumflex" unicode="&#xca;" horiz-adv-x="503" 
d="M150 642v-261h265v-58h-265v-265h295v-58h-365v700h365v-58h-295zM108 764l-10 53l151 98l157 -98l-10 -53l-147 62z" />
    <glyph glyph-name="Edieresis" unicode="&#xcb;" horiz-adv-x="503" 
d="M172 767q-19 0 -32.5 13.5t-13.5 32.5t13.5 32.5t32.5 13.5t32.5 -13.5t13.5 -32.5t-13.5 -32.5t-32.5 -13.5zM326 767q-19 0 -32.5 13.5t-13.5 32.5t13.5 32.5t32.5 13.5t32 -13.5t13 -32.5t-13 -32.5t-32 -13.5zM150 642v-261h265v-58h-265v-265h295v-58h-365v700h365
v-58h-295z" />
    <glyph glyph-name="Igrave" unicode="&#xcc;" horiz-adv-x="229" 
d="M150 699v-699h-70v699h70zM19 860l45 70l146 -116l-33 -50z" />
    <glyph glyph-name="Iacute" unicode="&#xcd;" horiz-adv-x="229" 
d="M150 699v-699h-70v699h70zM28 793l108 151l65 -53l-131 -129z" />
    <glyph glyph-name="Icircumflex" unicode="&#xce;" horiz-adv-x="229" 
d="M115 832l-134 -84v57l134 82l134 -82v-57zM150 699v-699h-70v699h70z" />
    <glyph glyph-name="Idieresis" unicode="&#xcf;" horiz-adv-x="229" 
d="M38 767q-19 0 -32.5 13.5t-13.5 32.5t13.5 32.5t32.5 13.5t32.5 -13.5t13.5 -32.5t-13.5 -32.5t-32.5 -13.5zM192 767q-19 0 -32.5 13.5t-13.5 32.5t13.5 32.5t32.5 13.5t32 -13.5t13 -32.5t-13 -32.5t-32 -13.5zM150 699v-699h-70v699h70z" />
    <glyph glyph-name="Eth" unicode="&#xd0;" horiz-adv-x="730" 
d="M312 699q116 0 199 -42t127 -121t44 -188q0 -108 -44 -186.5t-127 -120t-199 -41.5h-208v316h-95v65h95v318h208zM312 55q145 0 221.5 77.5t76.5 215.5t-76.5 216t-221.5 78h-137v-261h204v-65h-204v-261h137z" />
    <glyph glyph-name="Ntilde" unicode="&#xd1;" horiz-adv-x="686" 
d="M212 750q6 45 29 69t59 24q18 0 31 -6.5t31 -18.5q15 -11 26 -16.5t24 -5.5q17 0 29 11.5t15 33.5h42q-4 -44 -28.5 -68.5t-60.5 -24.5q-19 0 -32.5 6.5t-31.5 19.5q-14 11 -24.5 16t-23.5 5q-36 0 -42 -45h-43zM607 0h-70l-387 588v-588h-70v699h70l387 -587v587h70
v-699z" />
    <glyph glyph-name="Ograve" unicode="&#xd2;" horiz-adv-x="788" 
d="M394 -7q-97 0 -176 45.5t-124.5 127t-45.5 184.5t45.5 184.5t124.5 127t176 45.5q98 0 177 -45.5t124 -127t45 -184.5t-45 -184.5t-124 -127t-177 -45.5zM394 54q78 0 140 36t98 103.5t36 156.5t-36 156t-98 103t-140 36t-140 -36t-98 -103t-36 -156t36 -156.5t98 -103.5
t140 -36zM299 860l45 70l146 -116l-33 -50z" />
    <glyph glyph-name="Oacute" unicode="&#xd3;" horiz-adv-x="788" 
d="M394 -7q-97 0 -176 45.5t-124.5 127t-45.5 184.5t45.5 184.5t124.5 127t176 45.5q98 0 177 -45.5t124 -127t45 -184.5t-45 -184.5t-124 -127t-177 -45.5zM394 54q78 0 140 36t98 103.5t36 156.5t-36 156t-98 103t-140 36t-140 -36t-98 -103t-36 -156t36 -156.5t98 -103.5
t140 -36zM308 793l108 151l65 -53l-131 -129z" />
    <glyph glyph-name="Ocircumflex" unicode="&#xd4;" horiz-adv-x="788" 
d="M250 764l-10 53l151 98l157 -98l-10 -53l-147 62zM394 -7q-97 0 -176 45.5t-124.5 127t-45.5 184.5t45.5 184.5t124.5 127t176 45.5q98 0 177 -45.5t124 -127t45 -184.5t-45 -184.5t-124 -127t-177 -45.5zM394 54q78 0 140 36t98 103.5t36 156.5t-36 156t-98 103t-140 36
t-140 -36t-98 -103t-36 -156t36 -156.5t98 -103.5t140 -36z" />
    <glyph glyph-name="Otilde" unicode="&#xd5;" horiz-adv-x="788" 
d="M394 -7q-97 0 -176 45.5t-124.5 127t-45.5 184.5t45.5 184.5t124.5 127t176 45.5q98 0 177 -45.5t124 -127t45 -184.5t-45 -184.5t-124 -127t-177 -45.5zM394 54q78 0 140 36t98 103.5t36 156.5t-36 156t-98 103t-140 36t-140 -36t-98 -103t-36 -156t36 -156.5t98 -103.5
t140 -36zM247 791q2 14 7 31t14.5 32t23 25.5t31.5 10.5q15 0 30 -5t30.5 -11t32.5 -12t35 -8q38 -5 44 36l47 -4q-3 -16 -8.5 -34t-14.5 -33t-22 -24.5t-31 -9.5q-16 0 -30.5 6t-29.5 13.5t-30.5 13.5t-33.5 6q-16 0 -28.5 -11t-17.5 -29z" />
    <glyph glyph-name="Odieresis" unicode="&#xd6;" horiz-adv-x="788" 
d="M323 767q-19 0 -32.5 13.5t-13.5 32.5t13.5 32.5t32.5 13.5t32.5 -13.5t13.5 -32.5t-13.5 -32.5t-32.5 -13.5zM477 767q-19 0 -32.5 13.5t-13.5 32.5t13.5 32.5t32.5 13.5t32 -13.5t13 -32.5t-13 -32.5t-32 -13.5zM394 -7q-97 0 -176 45.5t-124.5 127t-45.5 184.5
t45.5 184.5t124.5 127t176 45.5q98 0 177 -45.5t124 -127t45 -184.5t-45 -184.5t-124 -127t-177 -45.5zM394 54q78 0 140 36t98 103.5t36 156.5t-36 156t-98 103t-140 36t-140 -36t-98 -103t-36 -156t36 -156.5t98 -103.5t140 -36z" />
    <glyph glyph-name="multiply" unicode="&#xd7;" horiz-adv-x="591" 
d="M461 160l-165 165l-165 -165l-46 46l165 165l-164 165l46 45l164 -164l163 163l46 -46l-163 -163l165 -166z" />
    <glyph glyph-name="Oslash" unicode="&#xd8;" horiz-adv-x="788" 
d="M650 597q43 -48 66.5 -111t23.5 -136q0 -103 -45 -184.5t-124 -127t-177 -45.5q-65 0 -122.5 20.5t-102.5 59.5l-67 -73h-60l95 104q-43 47 -66 110t-23 136q0 103 45.5 184.5t124.5 127t176 45.5q65 0 122.5 -20.5t102.5 -59.5l67 73h59zM120 350q0 -119 62 -198
l393 428q-36 32 -82.5 48.5t-98.5 16.5q-78 0 -140 -36t-98 -103t-36 -156zM668 350q0 119 -63 198l-393 -428q36 -32 82.5 -49t99.5 -17q78 0 140 36t98 103.5t36 156.5z" />
    <glyph glyph-name="Ugrave" unicode="&#xd9;" horiz-adv-x="661" 
d="M147 699v-440q0 -104 49.5 -154t135.5 -50t134.5 49.5t48.5 154.5v440h70v-439q0 -133 -70.5 -200t-183.5 -67t-183.5 67t-70.5 200v439h70zM235 860l45 70l146 -116l-33 -50z" />
    <glyph glyph-name="Uacute" unicode="&#xda;" horiz-adv-x="661" 
d="M147 699v-440q0 -104 49.5 -154t135.5 -50t134.5 49.5t48.5 154.5v440h70v-439q0 -133 -70.5 -200t-183.5 -67t-183.5 67t-70.5 200v439h70zM244 793l108 151l65 -53l-131 -129z" />
    <glyph glyph-name="Ucircumflex" unicode="&#xdb;" horiz-adv-x="661" 
d="M330 832l-134 -84v57l134 82l134 -82v-57zM147 699v-440q0 -104 49.5 -154t135.5 -50t134.5 49.5t48.5 154.5v440h70v-439q0 -133 -70.5 -200t-183.5 -67t-183.5 67t-70.5 200v439h70z" />
    <glyph glyph-name="Udieresis" unicode="&#xdc;" horiz-adv-x="661" 
d="M254 767q-19 0 -32.5 13.5t-13.5 32.5t13.5 32.5t32.5 13.5t32.5 -13.5t13.5 -32.5t-13.5 -32.5t-32.5 -13.5zM408 767q-19 0 -32.5 13.5t-13.5 32.5t13.5 32.5t32.5 13.5t32 -13.5t13 -32.5t-13 -32.5t-32 -13.5zM147 699v-440q0 -104 49.5 -154t135.5 -50t134.5 49.5
t48.5 154.5v440h70v-439q0 -133 -70.5 -200t-183.5 -67t-183.5 67t-70.5 200v439h70z" />
    <glyph glyph-name="Yacute" unicode="&#xdd;" horiz-adv-x="564" 
d="M542 699l-224 -427v-272h-70v272l-226 427h79l182 -363l181 363h78zM196 793l108 151l65 -53l-131 -129z" />
    <glyph glyph-name="Thorn" unicode="&#xde;" horiz-adv-x="564" 
d="M527 350q0 -90 -59 -145t-177 -55h-141v-150h-70v700h69v-149h142q117 0 176.5 -55t59.5 -146zM291 207q85 0 124.5 37.5t39.5 105.5q0 144 -164 144h-141v-287h141z" />
    <glyph glyph-name="germandbls" unicode="&#xdf;" horiz-adv-x="665" 
d="M66 560q0 93 57.5 150.5t165.5 57.5q65 0 112 -21.5t71.5 -57.5t24.5 -80q0 -47 -23 -78t-66 -68q-30 -26 -43.5 -42.5t-13.5 -35.5q0 -25 24.5 -43t92.5 -40q71 -23 103.5 -60.5t32.5 -94.5q0 -71 -48 -114t-132 -43t-137.5 47.5t-60.5 129.5h71q5 -55 38.5 -87.5
t88.5 -32.5q51 0 79.5 25.5t28.5 69.5q0 40 -24 64t-82 43q-80 27 -113 55t-33 72q0 35 19 60.5t57 58.5q36 32 53.5 55t17.5 54q0 48 -37.5 76.5t-101.5 28.5q-76 0 -114 -41t-38 -116v-552h-70v560z" />
    <glyph glyph-name="agrave" unicode="&#xe0;" horiz-adv-x="675" 
d="M48 274q0 84 33.5 147.5t93 98t134.5 34.5q78 0 134.5 -36t81.5 -92v120h70v-546h-70v121q-26 -56 -82.5 -92.5t-134.5 -36.5q-74 0 -133.5 35t-93 99t-33.5 148zM525 273q0 66 -27 116t-73.5 77t-102.5 27q-58 0 -104 -26t-72.5 -75.5t-26.5 -117.5q0 -67 26.5 -117.5
t72.5 -77t104 -26.5q56 0 102.5 27t73.5 77t27 116zM238 706l45 70l146 -116l-33 -50z" />
    <glyph glyph-name="aacute" unicode="&#xe1;" horiz-adv-x="675" 
d="M48 274q0 84 33.5 147.5t93 98t134.5 34.5q78 0 134.5 -36t81.5 -92v120h70v-546h-70v121q-26 -56 -82.5 -92.5t-134.5 -36.5q-74 0 -133.5 35t-93 99t-33.5 148zM525 273q0 66 -27 116t-73.5 77t-102.5 27q-58 0 -104 -26t-72.5 -75.5t-26.5 -117.5q0 -67 26.5 -117.5
t72.5 -77t104 -26.5q56 0 102.5 27t73.5 77t27 116zM257 639l108 151l65 -53l-131 -129z" />
    <glyph glyph-name="acircumflex" unicode="&#xe2;" horiz-adv-x="675" 
d="M48 274q0 84 33.5 147.5t93 98t134.5 34.5q78 0 134.5 -36t81.5 -92v120h70v-546h-70v121q-26 -56 -82.5 -92.5t-134.5 -36.5q-74 0 -133.5 35t-93 99t-33.5 148zM525 273q0 66 -27 116t-73.5 77t-102.5 27q-58 0 -104 -26t-72.5 -75.5t-26.5 -117.5q0 -67 26.5 -117.5
t72.5 -77t104 -26.5q56 0 102.5 27t73.5 77t27 116zM194 610l-10 53l151 98l157 -98l-10 -53l-147 62z" />
    <glyph glyph-name="atilde" unicode="&#xe3;" horiz-adv-x="675" 
d="M48 274q0 84 33.5 147.5t93 98t134.5 34.5q78 0 134.5 -36t81.5 -92v120h70v-546h-70v121q-26 -56 -82.5 -92.5t-134.5 -36.5q-74 0 -133.5 35t-93 99t-33.5 148zM525 273q0 66 -27 116t-73.5 77t-102.5 27q-58 0 -104 -26t-72.5 -75.5t-26.5 -117.5q0 -67 26.5 -117.5
t72.5 -77t104 -26.5q56 0 102.5 27t73.5 77t27 116zM191 637q2 14 7 31t14.5 32t23 25.5t31.5 10.5q15 0 30 -5t30.5 -11t32.5 -12t35 -8q38 -5 44 36l47 -4q-3 -16 -8.5 -34t-14.5 -33t-22 -24.5t-31 -9.5q-16 0 -30.5 6t-29.5 13.5t-30.5 13.5t-33.5 6q-16 0 -28.5 -11
t-17.5 -29z" />
    <glyph glyph-name="adieresis" unicode="&#xe4;" horiz-adv-x="675" 
d="M263 623q-19 0 -32.5 13.5t-13.5 32.5t13.5 32.5t32.5 13.5t32.5 -13.5t13.5 -32.5t-13.5 -32.5t-32.5 -13.5zM417 623q-19 0 -32.5 13.5t-13.5 32.5t13.5 32.5t32.5 13.5t32 -13.5t13 -32.5t-13 -32.5t-32 -13.5zM48 274q0 84 33.5 147.5t93 98t134.5 34.5
q78 0 134.5 -36t81.5 -92v120h70v-546h-70v121q-26 -56 -82.5 -92.5t-134.5 -36.5q-74 0 -133.5 35t-93 99t-33.5 148zM525 273q0 66 -27 116t-73.5 77t-102.5 27q-58 0 -104 -26t-72.5 -75.5t-26.5 -117.5q0 -67 26.5 -117.5t72.5 -77t104 -26.5q56 0 102.5 27t73.5 77
t27 116z" />
    <glyph glyph-name="aring" unicode="&#xe5;" horiz-adv-x="675" 
d="M441 710q0 -45 -29 -72.5t-73 -27.5q-43 0 -72.5 27.5t-29.5 72.5t29.5 72.5t72.5 27.5q44 0 73 -27.5t29 -72.5zM398 710q0 28 -17 44.5t-42 16.5t-41.5 -16.5t-16.5 -44.5q0 -27 16.5 -44t41.5 -17t42 17t17 44zM48 274q0 84 33.5 147.5t93 98t134.5 34.5
q78 0 134.5 -36t81.5 -92v120h70v-546h-70v121q-26 -56 -82.5 -92.5t-134.5 -36.5q-74 0 -133.5 35t-93 99t-33.5 148zM525 273q0 66 -27 116t-73.5 77t-102.5 27q-58 0 -104 -26t-72.5 -75.5t-26.5 -117.5q0 -67 26.5 -117.5t72.5 -77t104 -26.5q56 0 102.5 27t73.5 77
t27 116z" />
    <glyph glyph-name="ae" unicode="&#xe6;" horiz-adv-x="1108" 
d="M1061 302q0 -29 -4 -54h-461q4 -64 33 -108.5t73.5 -66.5t93.5 -22q72 0 120 33t61 89h76q-19 -80 -84 -130.5t-162 -50.5q-74 0 -133 35.5t-86 98.5v-126h-61v126q-27 -60 -84.5 -97t-133.5 -37q-75 0 -134.5 35t-93 99t-33.5 148t34 147.5t94 98t136 34.5q75 0 131 -35
t86 -96v123h59v-124q32 66 89 99t130 33q77 0 134.5 -34t88.5 -91.5t31 -126.5zM989 300v9q0 56 -25 98.5t-69 64.5t-98 22q-52 0 -96.5 -22.5t-72.5 -66.5t-32 -105h393zM322 53q56 0 102.5 27t73.5 77t27 116t-27 116t-73.5 77t-102.5 27q-58 0 -104 -26t-72.5 -75.5
t-26.5 -117.5q0 -67 26.5 -117.5t72.5 -77t104 -26.5z" />
    <glyph glyph-name="ccedilla" unicode="&#xe7;" horiz-adv-x="613" 
d="M313 51q69 0 115.5 33.5t60.5 93.5h75q-18 -79 -77.5 -129t-150.5 -56v-60h9q53 0 86 -23.5t33 -69.5q0 -45 -32 -71.5t-85 -26.5h-100v47h86q37 0 54.5 12.5t17.5 38.5q0 48 -72 48h-46v105q-70 6 -124 41.5t-84.5 97t-30.5 141.5q0 85 34 148.5t94 98t137 34.5
q101 0 166.5 -50t84.5 -136h-75q-14 59 -60.5 92.5t-115.5 33.5q-55 0 -99 -25t-69.5 -74.5t-25.5 -121.5t25.5 -122t69.5 -75t99 -25z" />
    <glyph glyph-name="egrave" unicode="&#xe8;" horiz-adv-x="622" 
d="M574 301q0 -36 -2 -55h-453q3 -62 30 -106t71 -66.5t96 -22.5q68 0 114.5 33t61.5 89h74q-20 -80 -85.5 -130.5t-164.5 -50.5q-77 0 -138 34.5t-95.5 98t-34.5 148.5t34 149t95 98t139 34t136.5 -34t90 -91.5t31.5 -127.5zM503 303v5q0 58 -25 100t-69 64t-96 22
q-78 0 -133 -50t-61 -141h384zM212 706l45 70l146 -116l-33 -50z" />
    <glyph glyph-name="eacute" unicode="&#xe9;" horiz-adv-x="622" 
d="M574 301q0 -36 -2 -55h-453q3 -62 30 -106t71 -66.5t96 -22.5q68 0 114.5 33t61.5 89h74q-20 -80 -85.5 -130.5t-164.5 -50.5q-77 0 -138 34.5t-95.5 98t-34.5 148.5t34 149t95 98t139 34t136.5 -34t90 -91.5t31.5 -127.5zM503 303v5q0 58 -25 100t-69 64t-96 22
q-78 0 -133 -50t-61 -141h384zM231 639l108 151l65 -53l-131 -129z" />
    <glyph glyph-name="ecircumflex" unicode="&#xea;" horiz-adv-x="622" 
d="M574 301q0 -36 -2 -55h-453q3 -62 30 -106t71 -66.5t96 -22.5q68 0 114.5 33t61.5 89h74q-20 -80 -85.5 -130.5t-164.5 -50.5q-77 0 -138 34.5t-95.5 98t-34.5 148.5t34 149t95 98t139 34t136.5 -34t90 -91.5t31.5 -127.5zM503 303v5q0 58 -25 100t-69 64t-96 22
q-78 0 -133 -50t-61 -141h384zM168 610l-10 53l151 98l157 -98l-10 -53l-147 62z" />
    <glyph glyph-name="edieresis" unicode="&#xeb;" horiz-adv-x="622" 
d="M235 623q-19 0 -32.5 13.5t-13.5 32.5t13.5 32.5t32.5 13.5t32.5 -13.5t13.5 -32.5t-13.5 -32.5t-32.5 -13.5zM389 623q-19 0 -32.5 13.5t-13.5 32.5t13.5 32.5t32.5 13.5t32 -13.5t13 -32.5t-13 -32.5t-32 -13.5zM574 301q0 -36 -2 -55h-453q3 -62 30 -106t71 -66.5
t96 -22.5q68 0 114.5 33t61.5 89h74q-20 -80 -85.5 -130.5t-164.5 -50.5q-77 0 -138 34.5t-95.5 98t-34.5 148.5t34 149t95 98t139 34t136.5 -34t90 -91.5t31.5 -127.5zM503 303v5q0 58 -25 100t-69 64t-96 22q-78 0 -133 -50t-61 -141h384z" />
    <glyph glyph-name="igrave" unicode="&#xec;" horiz-adv-x="229" 
d="M150 546v-546h-70v546h70zM15 706l45 70l146 -116l-33 -50z" />
    <glyph glyph-name="iacute" unicode="&#xed;" horiz-adv-x="229" 
d="M150 546v-546h-70v546h70zM34 639l108 151l65 -53l-131 -129z" />
    <glyph glyph-name="icircumflex" unicode="&#xee;" horiz-adv-x="229" 
d="M115 688l-134 -84v57l134 82l134 -82v-57zM150 546v-546h-70v546h70z" />
    <glyph glyph-name="idieresis" unicode="&#xef;" horiz-adv-x="229" 
d="M38 623q-19 0 -32.5 13.5t-13.5 32.5t13.5 32.5t32.5 13.5t32.5 -13.5t13.5 -32.5t-13.5 -32.5t-32.5 -13.5zM192 623q-19 0 -32.5 13.5t-13.5 32.5t13.5 32.5t32.5 13.5t32 -13.5t13 -32.5t-13 -32.5t-32 -13.5zM150 546v-546h-70v546h70z" />
    <glyph glyph-name="eth" unicode="&#xf0;" horiz-adv-x="640" 
d="M448 664q73 -77 108.5 -164t35.5 -188q0 -104 -35 -176t-96.5 -108t-142.5 -36q-80 0 -141 36t-95 101.5t-34 151.5q0 82 34 144.5t94.5 96.5t137.5 34q68 0 120 -31t81 -93q-15 61 -43 112.5t-75 102.5l-139 -48v41l108 37q-23 23 -72 63h72l52 -45l136 47v-41zM318 51
q55 0 101.5 26t74 76.5t27.5 119.5q0 70 -27.5 121t-73.5 77t-101 26q-56 0 -101.5 -25t-72 -74t-26.5 -117q0 -72 26 -124t71 -79t102 -27z" />
    <glyph glyph-name="ntilde" unicode="&#xf1;" horiz-adv-x="633" 
d="M178 606q6 45 29 69t59 24q18 0 31 -6.5t31 -18.5q15 -11 26 -16.5t24 -5.5q17 0 29 11.5t15 33.5h42q-4 -44 -28.5 -68.5t-60.5 -24.5q-19 0 -32.5 6.5t-31.5 19.5q-14 11 -24.5 16t-23.5 5q-36 0 -42 -45h-43zM336 556q98 0 160 -60.5t62 -175.5v-320h-69v312
q0 89 -44.5 136t-121.5 47q-79 0 -126 -50t-47 -147v-298h-70v546h70v-93q26 50 75 76.5t111 26.5z" />
    <glyph glyph-name="ograve" unicode="&#xf2;" horiz-adv-x="642" 
d="M319 -8q-77 0 -138.5 34.5t-97 98t-35.5 148.5t36 148.5t98 98t139 34.5t139.5 -34.5t98 -98t35.5 -148.5q0 -84 -36 -148t-99 -98.5t-140 -34.5zM319 53q54 0 100 24.5t74.5 74t28.5 121.5t-28 121.5t-74 74t-100 24.5t-100 -24.5t-73.5 -74t-27.5 -121.5t27.5 -121.5
t73 -74t99.5 -24.5zM222 706l45 70l146 -116l-33 -50z" />
    <glyph glyph-name="oacute" unicode="&#xf3;" horiz-adv-x="642" 
d="M319 -8q-77 0 -138.5 34.5t-97 98t-35.5 148.5t36 148.5t98 98t139 34.5t139.5 -34.5t98 -98t35.5 -148.5q0 -84 -36 -148t-99 -98.5t-140 -34.5zM319 53q54 0 100 24.5t74.5 74t28.5 121.5t-28 121.5t-74 74t-100 24.5t-100 -24.5t-73.5 -74t-27.5 -121.5t27.5 -121.5
t73 -74t99.5 -24.5zM241 639l108 151l65 -53l-131 -129z" />
    <glyph glyph-name="ocircumflex" unicode="&#xf4;" horiz-adv-x="642" 
d="M319 -8q-77 0 -138.5 34.5t-97 98t-35.5 148.5t36 148.5t98 98t139 34.5t139.5 -34.5t98 -98t35.5 -148.5q0 -84 -36 -148t-99 -98.5t-140 -34.5zM319 53q54 0 100 24.5t74.5 74t28.5 121.5t-28 121.5t-74 74t-100 24.5t-100 -24.5t-73.5 -74t-27.5 -121.5t27.5 -121.5
t73 -74t99.5 -24.5zM178 610l-10 53l151 98l157 -98l-10 -53l-147 62z" />
    <glyph glyph-name="otilde" unicode="&#xf5;" horiz-adv-x="642" 
d="M319 -8q-77 0 -138.5 34.5t-97 98t-35.5 148.5t36 148.5t98 98t139 34.5t139.5 -34.5t98 -98t35.5 -148.5q0 -84 -36 -148t-99 -98.5t-140 -34.5zM319 53q54 0 100 24.5t74.5 74t28.5 121.5t-28 121.5t-74 74t-100 24.5t-100 -24.5t-73.5 -74t-27.5 -121.5t27.5 -121.5
t73 -74t99.5 -24.5zM175 637q2 14 7 31t14.5 32t23 25.5t31.5 10.5q15 0 30 -5t30.5 -11t32.5 -12t35 -8q38 -5 44 36l47 -4q-3 -16 -8.5 -34t-14.5 -33t-22 -24.5t-31 -9.5q-16 0 -30.5 6t-29.5 13.5t-30.5 13.5t-33.5 6q-16 0 -28.5 -11t-17.5 -29z" />
    <glyph glyph-name="odieresis" unicode="&#xf6;" horiz-adv-x="642" 
d="M246 628q-19 0 -32.5 13.5t-13.5 32.5t13.5 32.5t32.5 13.5t32.5 -13.5t13.5 -32.5t-13.5 -32.5t-32.5 -13.5zM400 628q-19 0 -32.5 13.5t-13.5 32.5t13.5 32.5t32.5 13.5t32 -13.5t13 -32.5t-13 -32.5t-32 -13.5zM319 -8q-77 0 -138.5 34.5t-97 98t-35.5 148.5t36 148.5
t98 98t139 34.5t139.5 -34.5t98 -98t35.5 -148.5q0 -84 -36 -148t-99 -98.5t-140 -34.5zM319 53q54 0 100 24.5t74.5 74t28.5 121.5t-28 121.5t-74 74t-100 24.5t-100 -24.5t-73.5 -74t-27.5 -121.5t27.5 -121.5t73 -74t99.5 -24.5z" />
    <glyph glyph-name="divide" unicode="&#xf7;" horiz-adv-x="637" 
d="M324 534q-22 0 -36.5 15t-14.5 37t14.5 36.5t36.5 14.5q21 0 35.5 -14.5t14.5 -36.5t-14.5 -37t-35.5 -15zM576 400v-59h-509v59h509zM324 105q-22 0 -36.5 15t-14.5 37t14.5 36.5t36.5 14.5q21 0 35.5 -14.5t14.5 -36.5t-14.5 -37t-35.5 -15z" />
    <glyph glyph-name="oslash" unicode="&#xf8;" horiz-adv-x="642" 
d="M525 468q69 -77 69 -195q0 -84 -36 -148t-99 -98.5t-140 -34.5q-100 0 -174 58l-45 -50h-53l70 77q-33 37 -51 86.5t-18 109.5q0 85 36 148.5t98 98t139 34.5q103 0 176 -59l47 51h52zM119 273q0 -88 43 -146l291 319q-54 47 -133 47q-54 0 -100 -24.5t-73.5 -74
t-27.5 -121.5zM522 273q0 88 -43 144l-290 -319q54 -45 130 -45q54 0 100 24.5t74.5 74t28.5 121.5z" />
    <glyph glyph-name="ugrave" unicode="&#xf9;" horiz-adv-x="633" 
d="M553 546v-546h-70v96q-24 -51 -74 -78t-112 -27q-98 0 -160 60.5t-62 175.5v319h69v-311q0 -89 44.5 -136t121.5 -47q79 0 126 50t47 147v297h70zM217 706l45 70l146 -116l-33 -50z" />
    <glyph glyph-name="uacute" unicode="&#xfa;" horiz-adv-x="633" 
d="M553 546v-546h-70v96q-24 -51 -74 -78t-112 -27q-98 0 -160 60.5t-62 175.5v319h69v-311q0 -89 44.5 -136t121.5 -47q79 0 126 50t47 147v297h70zM236 639l108 151l65 -53l-131 -129z" />
    <glyph glyph-name="ucircumflex" unicode="&#xfb;" horiz-adv-x="633" 
d="M317 688l-134 -84v57l134 82l134 -82v-57zM553 546v-546h-70v96q-24 -51 -74 -78t-112 -27q-98 0 -160 60.5t-62 175.5v319h69v-311q0 -89 44.5 -136t121.5 -47q79 0 126 50t47 147v297h70z" />
    <glyph glyph-name="udieresis" unicode="&#xfc;" horiz-adv-x="633" 
d="M241 623q-19 0 -32.5 13.5t-13.5 32.5t13.5 32.5t32.5 13.5t32.5 -13.5t13.5 -32.5t-13.5 -32.5t-32.5 -13.5zM395 623q-19 0 -32.5 13.5t-13.5 32.5t13.5 32.5t32.5 13.5t32 -13.5t13 -32.5t-13 -32.5t-32 -13.5zM553 546v-546h-70v96q-24 -51 -74 -78t-112 -27
q-98 0 -160 60.5t-62 175.5v319h69v-311q0 -89 44.5 -136t121.5 -47q79 0 126 50t47 147v297h70z" />
    <glyph glyph-name="yacute" unicode="&#xfd;" horiz-adv-x="545" 
d="M530 546l-324 -803h-73l106 260l-224 543h77l186 -466l180 466h72zM192 639l108 151l65 -53l-131 -129z" />
    <glyph glyph-name="thorn" unicode="&#xfe;" horiz-adv-x="675" 
d="M149 412q25 64 81.5 103t135.5 39q74 0 133.5 -34.5t93 -98t33.5 -147.5t-33.5 -148t-93 -99t-133.5 -35q-79 0 -135.5 39.5t-81.5 104.5v-394h-69v998h69v-328zM555 274q0 68 -26.5 117.5t-72.5 75.5t-104 26q-56 0 -102.5 -27t-73.5 -77t-27 -116t27 -116t73.5 -77
t102.5 -27q58 0 104 26.5t72.5 77t26.5 117.5z" />
    <glyph glyph-name="ydieresis" unicode="&#xff;" horiz-adv-x="545" 
d="M197 623q-19 0 -32.5 13.5t-13.5 32.5t13.5 32.5t32.5 13.5t32.5 -13.5t13.5 -32.5t-13.5 -32.5t-32.5 -13.5zM351 623q-19 0 -32.5 13.5t-13.5 32.5t13.5 32.5t32.5 13.5t32 -13.5t13 -32.5t-13 -32.5t-32 -13.5zM530 546l-324 -803h-73l106 260l-224 543h77l186 -466
l180 466h72z" />
    <glyph glyph-name="Amacron" unicode="&#x100;" horiz-adv-x="652" 
d="M496 844v-54h-339v54h339zM485 166h-318l-61 -166h-74l255 690h79l254 -690h-74zM464 224l-138 378l-138 -378h276z" />
    <glyph glyph-name="amacron" unicode="&#x101;" horiz-adv-x="675" 
d="M508 700v-54h-339v54h339zM48 274q0 84 33.5 147.5t93 98t134.5 34.5q78 0 134.5 -36t81.5 -92v120h70v-546h-70v121q-26 -56 -82.5 -92.5t-134.5 -36.5q-74 0 -133.5 35t-93 99t-33.5 148zM525 273q0 66 -27 116t-73.5 77t-102.5 27q-58 0 -104 -26t-72.5 -75.5
t-26.5 -117.5q0 -67 26.5 -117.5t72.5 -77t104 -26.5q56 0 102.5 27t73.5 77t27 116z" />
    <glyph glyph-name="Abreve" unicode="&#x102;" horiz-adv-x="652" 
d="M485 166h-318l-61 -166h-74l255 690h79l254 -690h-74zM464 224l-138 378l-138 -378h276zM230 894q3 -15 12.5 -26.5t22.5 -20t28 -12.5t30 -4t29.5 4.5t27.5 12.5t22 19.5t12 26.5h65q-12 -66 -52.5 -99.5t-105.5 -33.5q-63 0 -100 35.5t-48 97.5h57z" />
    <glyph glyph-name="abreve" unicode="&#x103;" horiz-adv-x="675" 
d="M48 274q0 84 33.5 147.5t93 98t134.5 34.5q78 0 134.5 -36t81.5 -92v120h70v-546h-70v121q-26 -56 -82.5 -92.5t-134.5 -36.5q-74 0 -133.5 35t-93 99t-33.5 148zM525 273q0 66 -27 116t-73.5 77t-102.5 27q-58 0 -104 -26t-72.5 -75.5t-26.5 -117.5q0 -67 26.5 -117.5
t72.5 -77t104 -26.5q56 0 102.5 27t73.5 77t27 116zM242 740q3 -15 12.5 -26.5t22.5 -20t28 -12.5t30 -4t29.5 4.5t27.5 12.5t22 19.5t12 26.5h65q-12 -66 -52.5 -99.5t-105.5 -33.5q-63 0 -100 35.5t-48 97.5h57z" />
    <glyph glyph-name="Aogonek" unicode="&#x104;" horiz-adv-x="652" 
d="M559 -153q31 0 65 14v-49q-36 -13 -72 -13q-48 0 -80.5 22.5t-32.5 69.5q0 71 103 120l-57 155h-318l-61 -166h-74l255 690h79l254 -690l-59 -29q-34 -16 -48.5 -34t-14.5 -39q0 -24 16.5 -37.5t44.5 -13.5zM464 224l-138 378l-138 -378h276z" />
    <glyph glyph-name="aogonek" unicode="&#x105;" horiz-adv-x="675" 
d="M534 -153q30 0 64 14v-49q-36 -13 -72 -13q-48 0 -80.5 22.5t-32.5 69.5q0 73 108 122l4 2v106q-26 -56 -82.5 -92.5t-134.5 -36.5q-74 0 -133.5 35t-93 99t-33.5 148t33.5 147.5t93 98t134.5 34.5q78 0 134.5 -36t81.5 -92v120h70v-546l-60 -29q-63 -31 -63 -73
q0 -24 17 -37.5t45 -13.5zM322 53q56 0 102.5 27t73.5 77t27 116t-27 116t-73.5 77t-102.5 27q-58 0 -104 -26t-72.5 -75.5t-26.5 -117.5q0 -67 26.5 -117.5t72.5 -77t104 -26.5z" />
    <glyph glyph-name="Cacute" unicode="&#x106;" horiz-adv-x="771" 
d="M493 855l-205 -119v54l205 128v-63zM48 350q0 103 45 184.5t123 127t174 45.5q117 0 200.5 -55.5t121.5 -156.5h-82q-30 71 -91.5 111t-148.5 40q-77 0 -138.5 -36t-96.5 -103.5t-35 -156.5t35 -156t96.5 -103t138.5 -36q87 0 148.5 39.5t91.5 109.5h82
q-38 -100 -122 -155t-200 -55q-96 0 -174 45.5t-123 126.5t-45 184z" />
    <glyph glyph-name="cacute" unicode="&#x107;" horiz-adv-x="613" 
d="M400 707l-205 -119v54l205 128v-63zM48 273q0 85 34 148.5t94 98t137 34.5q101 0 166.5 -50t84.5 -136h-75q-14 59 -60.5 92.5t-115.5 33.5q-55 0 -99 -25t-69.5 -74.5t-25.5 -121.5t25.5 -122t69.5 -75t99 -25q69 0 115.5 33.5t60.5 93.5h75q-19 -84 -85 -135t-166 -51
q-77 0 -137 34.5t-94 98t-34 148.5z" />
    <glyph glyph-name="Cdotaccent" unicode="&#x10a;" horiz-adv-x="771" 
d="M401 761q-19 0 -32.5 13.5t-13.5 32.5t13.5 32.5t32.5 13.5t32.5 -13.5t13.5 -32.5t-13.5 -32.5t-32.5 -13.5zM48 350q0 103 45 184.5t123 127t174 45.5q117 0 200.5 -55.5t121.5 -156.5h-82q-30 71 -91.5 111t-148.5 40q-77 0 -138.5 -36t-96.5 -103.5t-35 -156.5
t35 -156t96.5 -103t138.5 -36q87 0 148.5 39.5t91.5 109.5h82q-38 -100 -122 -155t-200 -55q-96 0 -174 45.5t-123 126.5t-45 184z" />
    <glyph glyph-name="cdotaccent" unicode="&#x10b;" horiz-adv-x="613" 
d="M308 613q-19 0 -32.5 13.5t-13.5 32.5t13.5 32.5t32.5 13.5t32.5 -13.5t13.5 -32.5t-13.5 -32.5t-32.5 -13.5zM48 273q0 85 34 148.5t94 98t137 34.5q101 0 166.5 -50t84.5 -136h-75q-14 59 -60.5 92.5t-115.5 33.5q-55 0 -99 -25t-69.5 -74.5t-25.5 -121.5t25.5 -122
t69.5 -75t99 -25q69 0 115.5 33.5t60.5 93.5h75q-19 -84 -85 -135t-166 -51q-77 0 -137 34.5t-94 98t-34 148.5z" />
    <glyph glyph-name="Ccaron" unicode="&#x10c;" horiz-adv-x="771" 
d="M535 833l-134 -82l-134 82v56l134 -83l134 83v-56zM48 350q0 103 45 184.5t123 127t174 45.5q117 0 200.5 -55.5t121.5 -156.5h-82q-30 71 -91.5 111t-148.5 40q-77 0 -138.5 -36t-96.5 -103.5t-35 -156.5t35 -156t96.5 -103t138.5 -36q87 0 148.5 39.5t91.5 109.5h82
q-38 -100 -122 -155t-200 -55q-96 0 -174 45.5t-123 126.5t-45 184z" />
    <glyph glyph-name="ccaron" unicode="&#x10d;" horiz-adv-x="613" 
d="M442 685l-134 -82l-134 82v56l134 -83l134 83v-56zM48 273q0 85 34 148.5t94 98t137 34.5q101 0 166.5 -50t84.5 -136h-75q-14 59 -60.5 92.5t-115.5 33.5q-55 0 -99 -25t-69.5 -74.5t-25.5 -121.5t25.5 -122t69.5 -75t99 -25q69 0 115.5 33.5t60.5 93.5h75
q-19 -84 -85 -135t-166 -51q-77 0 -137 34.5t-94 98t-34 148.5z" />
    <glyph glyph-name="Dcaron" unicode="&#x10e;" horiz-adv-x="706" 
d="M482 829l-134 -82l-134 82v56l134 -83l134 83v-56zM287 699q116 0 199 -42t127 -121t44 -188q0 -108 -44 -186.5t-127 -120t-199 -41.5h-207v699h207zM287 58q146 0 222.5 76.5t76.5 213.5q0 138 -76.5 215.5t-222.5 77.5h-137v-583h137z" />
    <glyph glyph-name="dcaron" unicode="&#x10f;" horiz-adv-x="730" 
d="M48 274q0 84 34 147.5t93.5 98t134.5 34.5q72 0 130 -35t85 -91v312h70v-740h-70v122q-25 -57 -82 -93.5t-134 -36.5q-75 0 -134.5 35t-93 99t-33.5 148zM729 740q10 -47 10 -85q0 -54 -23 -78.5t-69 -24.5v36q25 0 36 12.5t11 38.5v25h-46v76h81zM525 273q0 66 -27 116
t-73.5 77t-102.5 27q-58 0 -104 -26t-72.5 -75.5t-26.5 -117.5q0 -67 26.5 -117.5t72.5 -77t104 -26.5q56 0 102.5 27t73.5 77t27 116z" />
    <glyph glyph-name="Dcroat" unicode="&#x110;" horiz-adv-x="730" 
d="M312 699q116 0 199 -42t127 -121t44 -188q0 -108 -44 -186.5t-127 -120t-199 -41.5h-208v316h-95v65h95v318h208zM312 55q145 0 221.5 77.5t76.5 215.5t-76.5 216t-221.5 78h-137v-261h204v-65h-204v-261h137z" />
    <glyph glyph-name="dcroat" unicode="&#x111;" horiz-adv-x="675" 
d="M48 274q0 84 34 147.5t93.5 98t134.5 34.5q72 0 130 -35t85 -91v312h70v-740h-70v122q-25 -57 -82 -93.5t-134 -36.5q-75 0 -134.5 35t-93 99t-33.5 148zM525 273q0 66 -27 116t-73.5 77t-102.5 27q-58 0 -104 -26t-72.5 -75.5t-26.5 -117.5q0 -67 26.5 -117.5t72.5 -77
t104 -26.5q56 0 102.5 27t73.5 77t27 116zM645 669v-54h-339v54h339z" />
    <glyph glyph-name="Emacron" unicode="&#x112;" horiz-adv-x="503" 
d="M417 844v-54h-339v54h339zM150 642v-261h265v-58h-265v-265h295v-58h-365v700h365v-58h-295z" />
    <glyph glyph-name="emacron" unicode="&#x113;" horiz-adv-x="622" 
d="M480 700v-54h-339v54h339zM574 301q0 -36 -2 -55h-453q3 -62 30 -106t71 -66.5t96 -22.5q68 0 114.5 33t61.5 89h74q-20 -80 -85.5 -130.5t-164.5 -50.5q-77 0 -138 34.5t-95.5 98t-34.5 148.5t34 149t95 98t139 34t136.5 -34t90 -91.5t31.5 -127.5zM503 303v5
q0 58 -25 100t-69 64t-96 22q-78 0 -133 -50t-61 -141h384z" />
    <glyph glyph-name="Ebreve" unicode="&#x114;" horiz-adv-x="503" 
d="M384 873q0 -53 -35.5 -88t-100.5 -35t-100 35t-35 88v13h44q0 -80 91 -80t91 80h45v-13zM150 642v-261h265v-58h-265v-265h295v-58h-365v700h365v-58h-295z" />
    <glyph glyph-name="ebreve" unicode="&#x115;" horiz-adv-x="622" 
d="M447 729q0 -53 -35.5 -88t-100.5 -35t-100 35t-35 88v13h44q0 -80 91 -80t91 80h45v-13zM574 301q0 -36 -2 -55h-453q3 -62 30 -106t71 -66.5t96 -22.5q68 0 114.5 33t61.5 89h74q-20 -80 -85.5 -130.5t-164.5 -50.5q-77 0 -138 34.5t-95.5 98t-34.5 148.5t34 149t95 98
t139 34t136.5 -34t90 -91.5t31.5 -127.5zM503 303v5q0 58 -25 100t-69 64t-96 22q-78 0 -133 -50t-61 -141h384z" />
    <glyph glyph-name="Edotaccent" unicode="&#x116;" horiz-adv-x="503" 
d="M248 757q-19 0 -32.5 13.5t-13.5 32.5t13.5 32.5t32.5 13.5t32.5 -13.5t13.5 -32.5t-13.5 -32.5t-32.5 -13.5zM150 642v-261h265v-58h-265v-265h295v-58h-365v700h365v-58h-295z" />
    <glyph glyph-name="edotaccent" unicode="&#x117;" horiz-adv-x="622" 
d="M311 613q-19 0 -32.5 13.5t-13.5 32.5t13.5 32.5t32.5 13.5t32.5 -13.5t13.5 -32.5t-13.5 -32.5t-32.5 -13.5zM574 301q0 -36 -2 -55h-453q3 -62 30 -106t71 -66.5t96 -22.5q68 0 114.5 33t61.5 89h74q-20 -80 -85.5 -130.5t-164.5 -50.5q-77 0 -138 34.5t-95.5 98
t-34.5 148.5t34 149t95 98t139 34t136.5 -34t90 -91.5t31.5 -127.5zM503 303v5q0 58 -25 100t-69 64t-96 22q-78 0 -133 -50t-61 -141h384z" />
    <glyph glyph-name="Eogonek" unicode="&#x118;" horiz-adv-x="503" 
d="M384 -153q30 0 64 14v-49q-36 -13 -72 -13q-48 0 -80.5 22.5t-32.5 69.5q0 63 82 109h-265v700h365v-58h-295v-261h265v-58h-265v-265h295v-58l-60 -29q-63 -31 -63 -73q0 -24 17 -37.5t45 -13.5z" />
    <glyph glyph-name="eogonek" unicode="&#x119;" horiz-adv-x="622" 
d="M574 301q0 -36 -2 -55h-453q3 -62 30 -106t71 -66.5t96 -22.5q68 0 114.5 33t61.5 89h74q-15 -60 -56 -104.5t-104 -63.5l-43 -21q-63 -31 -63 -73q0 -24 17 -37.5t45 -13.5q30 0 64 14v-49q-36 -13 -72 -13q-48 0 -80.5 22.5t-32.5 69.5q0 50 51 89q-72 6 -127 41.5
t-86 97t-31 141.5q0 85 34 149t95 98t139 34t136.5 -34t90 -91.5t31.5 -127.5zM503 303v5q0 58 -25 100t-69 64t-96 22q-78 0 -133 -50t-61 -141h384z" />
    <glyph glyph-name="Ecaron" unicode="&#x11a;" horiz-adv-x="503" 
d="M382 829l-134 -82l-134 82v56l134 -83l134 83v-56zM150 642v-261h265v-58h-265v-265h295v-58h-365v700h365v-58h-295z" />
    <glyph glyph-name="ecaron" unicode="&#x11b;" horiz-adv-x="622" 
d="M445 685l-134 -82l-134 82v56l134 -83l134 83v-56zM574 301q0 -36 -2 -55h-453q3 -62 30 -106t71 -66.5t96 -22.5q68 0 114.5 33t61.5 89h74q-20 -80 -85.5 -130.5t-164.5 -50.5q-77 0 -138 34.5t-95.5 98t-34.5 148.5t34 149t95 98t139 34t136.5 -34t90 -91.5
t31.5 -127.5zM503 303v5q0 58 -25 100t-69 64t-96 22q-78 0 -133 -50t-61 -141h384z" />
    <glyph glyph-name="Gbreve" unicode="&#x11e;" horiz-adv-x="782" 
d="M534 873q0 -53 -35.5 -88t-100.5 -35t-100 35t-35 88v13h44q0 -80 91 -80t91 80h45v-13zM630 495q-30 69 -91.5 108.5t-144.5 39.5q-78 0 -140 -36t-98 -102.5t-36 -154.5t36 -155t98 -103t140 -36q73 0 131.5 31.5t94 90t40.5 136.5h-294v57h368v-51q-5 -92 -50 -166.5
t-120.5 -117.5t-169.5 -43q-97 0 -176 45.5t-124.5 127t-45.5 184.5t45.5 184.5t124.5 127t176 45.5q112 0 196 -56t122 -156h-82z" />
    <glyph glyph-name="gbreve" unicode="&#x11f;" horiz-adv-x="675" 
d="M475 729q0 -53 -35.5 -88t-100.5 -35t-100 35t-35 88v13h44q0 -80 91 -80t91 80h45v-13zM309 554q77 0 134 -36t82 -91v119h70v-560q0 -75 -32.5 -133t-90.5 -89.5t-132 -31.5q-105 0 -174.5 50t-86.5 136h69q18 -57 68.5 -91t123.5 -34q53 0 95 22.5t66 66.5t24 104v135
q-26 -56 -82.5 -92.5t-133.5 -36.5q-75 0 -134.5 35t-93 99t-33.5 148t33.5 147.5t93 98t134.5 34.5zM525 273q0 66 -27 116t-73.5 77t-102.5 27q-58 0 -104 -26t-72.5 -75.5t-26.5 -117.5q0 -67 26.5 -117.5t72.5 -77t104 -26.5q56 0 102.5 27t73.5 77t27 116z" />
    <glyph glyph-name="Gdotaccent" unicode="&#x120;" horiz-adv-x="782" 
d="M397 757q-19 0 -32.5 13.5t-13.5 32.5t13.5 32.5t32.5 13.5t32.5 -13.5t13.5 -32.5t-13.5 -32.5t-32.5 -13.5zM630 495q-30 69 -91.5 108.5t-144.5 39.5q-78 0 -140 -36t-98 -102.5t-36 -154.5t36 -155t98 -103t140 -36q73 0 131.5 31.5t94 90t40.5 136.5h-294v57h368
v-51q-5 -92 -50 -166.5t-120.5 -117.5t-169.5 -43q-97 0 -176 45.5t-124.5 127t-45.5 184.5t45.5 184.5t124.5 127t176 45.5q112 0 196 -56t122 -156h-82z" />
    <glyph glyph-name="gdotaccent" unicode="&#x121;" horiz-adv-x="675" 
d="M339 613q-19 0 -32.5 13.5t-13.5 32.5t13.5 32.5t32.5 13.5t32.5 -13.5t13.5 -32.5t-13.5 -32.5t-32.5 -13.5zM309 554q77 0 134 -36t82 -91v119h70v-560q0 -75 -32.5 -133t-90.5 -89.5t-132 -31.5q-105 0 -174.5 50t-86.5 136h69q18 -57 68.5 -91t123.5 -34
q53 0 95 22.5t66 66.5t24 104v135q-26 -56 -82.5 -92.5t-133.5 -36.5q-75 0 -134.5 35t-93 99t-33.5 148t33.5 147.5t93 98t134.5 34.5zM525 273q0 66 -27 116t-73.5 77t-102.5 27q-58 0 -104 -26t-72.5 -75.5t-26.5 -117.5q0 -67 26.5 -117.5t72.5 -77t104 -26.5
q56 0 102.5 27t73.5 77t27 116z" />
    <glyph glyph-name="uni0122" unicode="&#x122;" horiz-adv-x="782" 
d="M630 495q-30 69 -91.5 108.5t-144.5 39.5q-78 0 -140 -36t-98 -102.5t-36 -154.5t36 -155t98 -103t140 -36q73 0 131.5 31.5t94 90t40.5 136.5h-294v57h368v-51q-5 -92 -50 -166.5t-120.5 -117.5t-169.5 -43q-97 0 -176 45.5t-124.5 127t-45.5 184.5t45.5 184.5
t124.5 127t176 45.5q112 0 196 -56t122 -156h-82zM432 -52q8 -38 8 -67q0 -56 -23 -81.5t-67 -25.5v35q46 0 46 56v14h-43v69h79z" />
    <glyph glyph-name="uni0123" unicode="&#x123;" horiz-adv-x="675" 
d="M292 595q-9 50 -9 85q0 54 23 78.5t68 24.5v-36q-25 0 -36 -12.5t-11 -38.5v-24h46v-77h-81zM309 554q77 0 134 -36t82 -91v119h70v-560q0 -75 -32.5 -133t-90.5 -89.5t-132 -31.5q-105 0 -174.5 50t-86.5 136h69q18 -57 68.5 -91t123.5 -34q53 0 95 22.5t66 66.5t24 104
v135q-26 -56 -82.5 -92.5t-133.5 -36.5q-75 0 -134.5 35t-93 99t-33.5 148t33.5 147.5t93 98t134.5 34.5zM525 273q0 66 -27 116t-73.5 77t-102.5 27q-58 0 -104 -26t-72.5 -75.5t-26.5 -117.5q0 -67 26.5 -117.5t72.5 -77t104 -26.5q56 0 102.5 27t73.5 77t27 116z" />
    <glyph glyph-name="Itilde" unicode="&#x128;" horiz-adv-x="229" 
d="M150 699v-699h-70v699h70zM-33 791q2 14 7 31t14.5 32t23 25.5t31.5 10.5q15 0 30 -5t30.5 -11t32.5 -12t35 -8q38 -5 44 36l47 -4q-3 -16 -8.5 -34t-14.5 -33t-22 -24.5t-31 -9.5q-16 0 -30.5 6t-29.5 13.5t-30.5 13.5t-33.5 6q-16 0 -28.5 -11t-17.5 -29z" />
    <glyph glyph-name="itilde" unicode="&#x129;" horiz-adv-x="229" 
d="M150 546v-546h-70v546h70zM-32 637q2 14 7 31t14.5 32t23 25.5t31.5 10.5q15 0 30 -5t30.5 -11t32.5 -12t35 -8q38 -5 44 36l47 -4q-3 -16 -8.5 -34t-14.5 -33t-22 -24.5t-31 -9.5q-16 0 -30.5 6t-29.5 13.5t-30.5 13.5t-33.5 6q-16 0 -28.5 -11t-17.5 -29z" />
    <glyph glyph-name="Imacron" unicode="&#x12a;" horiz-adv-x="229" 
d="M284 844v-54h-339v54h339zM150 699v-699h-70v699h70z" />
    <glyph glyph-name="imacron" unicode="&#x12b;" horiz-adv-x="229" 
d="M284 700v-54h-339v54h339zM150 546v-546h-70v546h70z" />
    <glyph glyph-name="Ibreve" unicode="&#x12c;" horiz-adv-x="229" 
d="M251 873q0 -53 -35.5 -88t-100.5 -35t-100 35t-35 88v13h44q0 -80 91 -80t91 80h45v-13zM150 699v-699h-70v699h70z" />
    <glyph glyph-name="ibreve" unicode="&#x12d;" horiz-adv-x="229" 
d="M251 729q0 -53 -35.5 -88t-100.5 -35t-100 35t-35 88v13h44q0 -80 91 -80t91 80h45v-13zM150 546v-546h-70v546h70z" />
    <glyph glyph-name="Iogonek" unicode="&#x12e;" horiz-adv-x="229" 
d="M89 -152q30 0 64 14v-49q-36 -13 -72 -13q-48 0 -80.5 22.5t-32.5 69.5q0 73 108 122l4 2v683h70v-699h-2l-58 -28q-63 -31 -63 -73q0 -24 17 -37.5t45 -13.5z" />
    <glyph glyph-name="iogonek" unicode="&#x12f;" horiz-adv-x="229" 
d="M115 649q-21 0 -36 15t-15 37t15 36.5t36 14.5t36 -14.5t15 -36.5t-15 -37t-36 -15zM27 -101q0 -24 17 -37.5t45 -13.5q30 0 64 14v-49q-36 -13 -72 -13q-48 0 -80.5 22.5t-32.5 69.5q0 73 108 122l4 2v530h70v-546h-2l-58 -28q-63 -31 -63 -73z" />
    <glyph glyph-name="Idotaccent" unicode="&#x130;" horiz-adv-x="229" 
d="M114 757q-19 0 -32.5 13.5t-13.5 32.5t13.5 32.5t32.5 13.5t32.5 -13.5t13.5 -32.5t-13.5 -32.5t-32.5 -13.5zM150 699v-699h-70v699h70z" />
    <glyph glyph-name="dotlessi" unicode="&#x131;" horiz-adv-x="229" 
d="M150 546v-546h-70v546h70z" />
    <glyph glyph-name="uni0136" unicode="&#x136;" horiz-adv-x="568" 
d="M545 0h-92l-303 323v-323h-70v699h70v-327l303 327h89l-327 -349zM320 -52q8 -38 8 -67q0 -56 -23 -81.5t-67 -25.5v35q46 0 46 56v14h-43v69h79z" />
    <glyph glyph-name="uni0137" unicode="&#x137;" horiz-adv-x="480" 
d="M470 0h-95l-225 245v-245h-70v740h70v-438l220 244h98l-259 -272zM280 -52q8 -38 8 -67q0 -56 -23 -81.5t-67 -25.5v35q46 0 46 56v14h-43v69h79z" />
    <glyph glyph-name="Lacute" unicode="&#x139;" horiz-adv-x="421" 
d="M305 851l-205 -119v54l205 128v-63zM150 57h251v-57h-321v699h70v-642z" />
    <glyph glyph-name="lacute" unicode="&#x13a;" horiz-adv-x="229" 
d="M207 901l-205 -119v54l205 128v-63zM150 740v-740h-70v740h70z" />
    <glyph glyph-name="uni013B" unicode="&#x13b;" horiz-adv-x="421" 
d="M150 57h251v-57h-321v699h70v-642zM278 -52q9 -36 9 -67q0 -57 -23 -82t-68 -25v35q46 0 46 56v14h-42v69h78z" />
    <glyph glyph-name="uni013C" unicode="&#x13c;" horiz-adv-x="229" 
d="M150 740v-740h-70v740h70zM152 -52q8 -38 8 -67q0 -57 -23 -82t-68 -25v35q47 0 47 56v14h-43v69h79z" />
    <glyph glyph-name="Lcaron" unicode="&#x13d;" horiz-adv-x="431" 
d="M150 57h251v-57h-321v699h70v-642zM348 699q9 -49 9 -85q0 -103 -91 -103v36q25 0 36 13t11 39v24h-46v76h81z" />
    <glyph glyph-name="lcaron" unicode="&#x13e;" horiz-adv-x="316" 
d="M150 740v-740h-70v740h70zM299 740q9 -42 9 -85q0 -54 -23 -78.5t-68 -24.5v36q25 0 36 12.5t11 38.5v25h-46v76h81z" />
    <glyph glyph-name="Ldot" unicode="&#x13f;" horiz-adv-x="421" 
d="M80 699h70v-642h251v-57h-321v699zM338 330q-19 0 -32.5 13.5t-13.5 32.5t13.5 32.5t32.5 13.5t32.5 -13.5t13.5 -32.5t-13.5 -32.5t-32.5 -13.5z" />
    <glyph glyph-name="ldot" unicode="&#x140;" horiz-adv-x="278" 
d="M80 740h70v-740h-70v740zM255 322q-19 0 -32.5 13.5t-13.5 32.5t13.5 32.5t32.5 13.5t32.5 -13.5t13.5 -32.5t-13.5 -32.5t-32.5 -13.5z" />
    <glyph glyph-name="Lslash" unicode="&#x141;" horiz-adv-x="430" 
d="M416 55v-55h-321v323l-86 -34v55l86 34v321h70v-294l125 49v-55l-125 -49v-295h251z" />
    <glyph glyph-name="lslash" unicode="&#x142;" horiz-adv-x="239" 
d="M230 439l-76 -33v-406h-70v376l-75 -33v55l75 33v309h70v-279l76 33v-55z" />
    <glyph glyph-name="Nacute" unicode="&#x143;" horiz-adv-x="686" 
d="M436 851l-205 -119v54l205 128v-63zM607 0h-70l-387 588v-588h-70v699h70l387 -587v587h70v-699z" />
    <glyph glyph-name="nacute" unicode="&#x144;" horiz-adv-x="633" 
d="M402 707l-205 -119v54l205 128v-63zM336 556q98 0 160 -60.5t62 -175.5v-320h-69v312q0 89 -44.5 136t-121.5 47q-79 0 -126 -50t-47 -147v-298h-70v546h70v-93q26 50 75 76.5t111 26.5z" />
    <glyph glyph-name="uni0145" unicode="&#x145;" horiz-adv-x="686" 
d="M607 0h-70l-387 588v-588h-70v699h70l387 -587v587h70v-699zM380 -52q9 -36 9 -67q0 -56 -23 -81.5t-67 -25.5v35q45 0 45 56v14h-42v69h78z" />
    <glyph glyph-name="uni0146" unicode="&#x146;" horiz-adv-x="633" 
d="M336 556q98 0 160 -60.5t62 -175.5v-320h-69v312q0 89 -44.5 136t-121.5 47q-79 0 -126 -50t-47 -147v-298h-70v546h70v-93q26 50 75 76.5t111 26.5zM357 -52q8 -38 8 -67q0 -56 -23 -81.5t-67 -25.5v35q46 0 46 56v14h-43v69h79z" />
    <glyph glyph-name="Ncaron" unicode="&#x147;" horiz-adv-x="686" 
d="M478 829l-134 -82l-134 82v56l134 -83l134 83v-56zM607 0h-70l-387 588v-588h-70v699h70l387 -587v587h70v-699z" />
    <glyph glyph-name="ncaron" unicode="&#x148;" horiz-adv-x="633" 
d="M444 685l-134 -82l-134 82v56l134 -83l134 83v-56zM336 556q98 0 160 -60.5t62 -175.5v-320h-69v312q0 89 -44.5 136t-121.5 47q-79 0 -126 -50t-47 -147v-298h-70v546h70v-93q26 50 75 76.5t111 26.5z" />
    <glyph glyph-name="Omacron" unicode="&#x14c;" horiz-adv-x="788" 
d="M568 844v-54h-339v54h339zM394 -7q-97 0 -176 45.5t-124.5 127t-45.5 184.5t45.5 184.5t124.5 127t176 45.5q98 0 177 -45.5t124 -127t45 -184.5t-45 -184.5t-124 -127t-177 -45.5zM394 54q78 0 140 36t98 103.5t36 156.5t-36 156t-98 103t-140 36t-140 -36t-98 -103
t-36 -156t36 -156.5t98 -103.5t140 -36z" />
    <glyph glyph-name="omacron" unicode="&#x14d;" horiz-adv-x="642" 
d="M492 705v-54h-339v54h339zM319 -8q-77 0 -138.5 34.5t-97 98t-35.5 148.5t36 148.5t98 98t139 34.5t139.5 -34.5t98 -98t35.5 -148.5q0 -84 -36 -148t-99 -98.5t-140 -34.5zM319 53q54 0 100 24.5t74.5 74t28.5 121.5t-28 121.5t-74 74t-100 24.5t-100 -24.5t-73.5 -74
t-27.5 -121.5t27.5 -121.5t73 -74t99.5 -24.5z" />
    <glyph glyph-name="Obreve" unicode="&#x14e;" horiz-adv-x="788" 
d="M535 873q0 -53 -35.5 -88t-100.5 -35t-100 35t-35 88v13h44q0 -80 91 -80t91 80h45v-13zM394 -7q-97 0 -176 45.5t-124.5 127t-45.5 184.5t45.5 184.5t124.5 127t176 45.5q98 0 177 -45.5t124 -127t45 -184.5t-45 -184.5t-124 -127t-177 -45.5zM394 54q78 0 140 36
t98 103.5t36 156.5t-36 156t-98 103t-140 36t-140 -36t-98 -103t-36 -156t36 -156.5t98 -103.5t140 -36z" />
    <glyph glyph-name="obreve" unicode="&#x14f;" horiz-adv-x="642" 
d="M459 734q0 -53 -35.5 -88t-100.5 -35t-100 35t-35 88v13h44q0 -80 91 -80t91 80h45v-13zM319 -8q-77 0 -138.5 34.5t-97 98t-35.5 148.5t36 148.5t98 98t139 34.5t139.5 -34.5t98 -98t35.5 -148.5q0 -84 -36 -148t-99 -98.5t-140 -34.5zM319 53q54 0 100 24.5t74.5 74
t28.5 121.5t-28 121.5t-74 74t-100 24.5t-100 -24.5t-73.5 -74t-27.5 -121.5t27.5 -121.5t73 -74t99.5 -24.5z" />
    <glyph glyph-name="Ohungarumlaut" unicode="&#x150;" horiz-adv-x="788" 
d="M346 745h-49l65 139h63zM483 745h-48l69 139h63zM394 -7q-97 0 -176 45.5t-124.5 127t-45.5 184.5t45.5 184.5t124.5 127t176 45.5q98 0 177 -45.5t124 -127t45 -184.5t-45 -184.5t-124 -127t-177 -45.5zM394 54q78 0 140 36t98 103.5t36 156.5t-36 156t-98 103t-140 36
t-140 -36t-98 -103t-36 -156t36 -156.5t98 -103.5t140 -36z" />
    <glyph glyph-name="ohungarumlaut" unicode="&#x151;" horiz-adv-x="642" 
d="M270 606h-49l65 139h63zM407 606h-48l69 139h63zM319 -8q-77 0 -138.5 34.5t-97 98t-35.5 148.5t36 148.5t98 98t139 34.5t139.5 -34.5t98 -98t35.5 -148.5q0 -84 -36 -148t-99 -98.5t-140 -34.5zM319 53q54 0 100 24.5t74.5 74t28.5 121.5t-28 121.5t-74 74t-100 24.5
t-100 -24.5t-73.5 -74t-27.5 -121.5t27.5 -121.5t73 -74t99.5 -24.5z" />
    <glyph glyph-name="OE" unicode="&#x152;" horiz-adv-x="1092" 
d="M738 379h266v-55h-266v-268h296v-56h-366v171q-34 -84 -108.5 -131t-170.5 -47q-95 0 -173 45.5t-123 127t-45 184.5t45 184.5t123 127t173 45.5q96 0 170.5 -47.5t108.5 -129.5v169h366v-56h-296v-264zM120 350q0 -88 36 -155t98 -103t140 -36t140 36t98 103t36 155
t-36 154.5t-98 102.5t-140 36t-140 -36t-98 -102.5t-36 -154.5z" />
    <glyph glyph-name="oe" unicode="&#x153;" horiz-adv-x="1096" 
d="M1048 302q0 -29 -4 -54h-450q2 -62 28.5 -106.5t69.5 -67.5t95 -23q69 0 115.5 33t61.5 89h74q-20 -80 -86 -130.5t-165 -50.5q-81 0 -141.5 39.5t-89.5 112.5q-31 -72 -93.5 -112t-143.5 -40q-77 0 -139 34.5t-97 98t-35 148.5t36 148.5t98 98t139 34.5q81 0 143 -39.5
t93 -111.5q28 72 89.5 111.5t143.5 39.5q78 0 136.5 -33.5t90 -91t31.5 -127.5zM319 51q54 0 100 25t74.5 75t28.5 122t-28 122t-74 74.5t-100 24.5t-100 -24.5t-73.5 -74.5t-27.5 -122t27.5 -122t73 -75t99.5 -25zM977 298v5q0 60 -25 103t-69 65.5t-96 22.5
q-51 0 -94 -22.5t-70 -66.5t-29 -107h383z" />
    <glyph glyph-name="Racute" unicode="&#x154;" horiz-adv-x="587" 
d="M399 851l-205 -119v54l205 128v-63zM452 0l-173 292h-129v-292h-70v699h210q117 0 177.5 -56t60.5 -147q0 -76 -43.5 -129.5t-128.5 -69.5l180 -297h-84zM150 349h141q82 0 123.5 40t41.5 107q0 69 -40 106.5t-126 37.5h-140v-291z" />
    <glyph glyph-name="racute" unicode="&#x155;" horiz-adv-x="362" 
d="M314 707l-205 -119v54l205 128v-63zM150 449q23 51 70.5 79t116.5 28v-73h-19q-76 0 -122 -41t-46 -137v-305h-70v546h70v-97z" />
    <glyph glyph-name="uni0156" unicode="&#x156;" horiz-adv-x="587" 
d="M536 0h-84l-173 292h-129v-292h-70v699h210q117 0 177.5 -56t60.5 -147q0 -76 -43.5 -129.5t-128.5 -69.5zM150 349h141q82 0 123.5 40t41.5 107q0 69 -40 106.5t-126 37.5h-140v-291zM329 -52q8 -38 8 -67q0 -56 -23 -81.5t-67 -25.5v35q45 0 45 56v14h-42v69h79z" />
    <glyph glyph-name="uni0157" unicode="&#x157;" horiz-adv-x="362" 
d="M150 449q23 51 70.5 79t116.5 28v-73h-19q-76 0 -122 -41t-46 -137v-305h-70v546h70v-97zM151 -52q8 -32 8 -67q0 -57 -23 -82t-67 -25v35q46 0 46 56v14h-43v69h79z" />
    <glyph glyph-name="Rcaron" unicode="&#x158;" horiz-adv-x="587" 
d="M440 829l-134 -82l-134 82v56l134 -83l134 83v-56zM452 0l-173 292h-129v-292h-70v699h210q117 0 177.5 -56t60.5 -147q0 -76 -43.5 -129.5t-128.5 -69.5l180 -297h-84zM150 349h141q82 0 123.5 40t41.5 107q0 69 -40 106.5t-126 37.5h-140v-291z" />
    <glyph glyph-name="rcaron" unicode="&#x159;" horiz-adv-x="362" 
d="M356 685l-134 -82l-134 82v56l134 -83l134 83v-56zM150 449q23 51 70.5 79t116.5 28v-73h-19q-76 0 -122 -41t-46 -137v-305h-70v546h70v-97z" />
    <glyph glyph-name="Sacute" unicode="&#x15a;" horiz-adv-x="572" 
d="M376 855l-205 -119v54l205 128v-63zM292 -7q-69 0 -121.5 24t-82.5 67t-32 96h74q5 -51 45 -89.5t117 -38.5q71 0 112.5 36.5t41.5 92.5q0 45 -23 72.5t-57 41t-94 29.5q-70 19 -111 37t-70 56t-29 103q0 54 28 96.5t79 66.5t117 24q97 0 156.5 -47.5t68.5 -122.5h-76
q-7 43 -47 76.5t-108 33.5q-63 0 -105 -33.5t-42 -91.5q0 -44 23 -71t57.5 -41t93.5 -30q68 -19 110 -37.5t71 -56.5t29 -102q0 -49 -26 -93t-77 -71t-122 -27z" />
    <glyph glyph-name="sacute" unicode="&#x15b;" horiz-adv-x="510" 
d="M348 712l-205 -119v54l205 128v-63zM268 -8q-94 0 -153.5 43.5t-66.5 118.5h72q5 -46 43.5 -74.5t103.5 -28.5q57 0 89.5 27t32.5 67q0 28 -18 46t-45.5 28.5t-74.5 22.5q-61 16 -99 32t-64.5 47.5t-26.5 84.5q0 40 24 74t68 54t100 20q88 0 142 -44.5t58 -122.5h-70
q-3 48 -37.5 77.5t-94.5 29.5q-53 0 -86 -25t-33 -62q0 -32 19.5 -52.5t48.5 -32t78 -25.5q59 -16 94 -31t60 -44t26 -77q0 -44 -24 -78.5t-67 -54.5t-99 -20z" />
    <glyph glyph-name="Scedilla" unicode="&#x15e;" horiz-adv-x="572" 
d="M517 184q0 -46 -23.5 -88t-69.5 -70t-110 -32v-65h9q53 0 86 -23.5t33 -69.5q0 -45 -32 -71.5t-85 -26.5h-100v47h86q37 0 54.5 12.5t17.5 38.5q0 48 -72 48h-46v110q-93 7 -149.5 58.5t-59.5 127.5h74q5 -51 45 -89.5t117 -38.5q71 0 112.5 36.5t41.5 92.5
q0 45 -23 72.5t-57 41t-94 29.5q-70 19 -111 37t-70 56t-29 103q0 54 28 96.5t79 66.5t117 24q97 0 156.5 -47.5t68.5 -122.5h-76q-7 43 -47 76.5t-108 33.5q-63 0 -105 -33.5t-42 -91.5q0 -44 23 -71t57.5 -41t93.5 -30q68 -19 110 -37.5t71 -56.5t29 -102z" />
    <glyph glyph-name="scedilla" unicode="&#x15f;" horiz-adv-x="510" 
d="M458 145q0 -63 -48 -106t-126 -47v-59h9q53 0 86 -23.5t33 -69.5q0 -45 -32 -71.5t-85 -26.5h-100v47h86q37 0 54.5 12.5t17.5 38.5q0 48 -72 48h-46v106q-80 8 -130.5 50t-56.5 110h72q5 -46 43.5 -74.5t103.5 -28.5q57 0 89.5 27t32.5 67q0 28 -18 46t-45.5 28.5
t-74.5 22.5q-61 16 -99 32t-64.5 47.5t-26.5 84.5q0 40 24 74t68 54t100 20q88 0 142 -44.5t58 -122.5h-70q-3 48 -37.5 77.5t-94.5 29.5q-53 0 -86 -25t-33 -62q0 -32 19.5 -52.5t48.5 -32t78 -25.5q59 -16 94 -31t60 -44t26 -77z" />
    <glyph glyph-name="Scaron" unicode="&#x160;" horiz-adv-x="572" 
d="M418 833l-134 -82l-134 82v56l134 -83l134 83v-56zM292 -7q-69 0 -121.5 24t-82.5 67t-32 96h74q5 -51 45 -89.5t117 -38.5q71 0 112.5 36.5t41.5 92.5q0 45 -23 72.5t-57 41t-94 29.5q-70 19 -111 37t-70 56t-29 103q0 54 28 96.5t79 66.5t117 24q97 0 156.5 -47.5
t68.5 -122.5h-76q-7 43 -47 76.5t-108 33.5q-63 0 -105 -33.5t-42 -91.5q0 -44 23 -71t57.5 -41t93.5 -30q68 -19 110 -37.5t71 -56.5t29 -102q0 -49 -26 -93t-77 -71t-122 -27z" />
    <glyph glyph-name="scaron" unicode="&#x161;" horiz-adv-x="510" 
d="M390 690l-134 -82l-134 82v56l134 -83l134 83v-56zM268 -8q-94 0 -153.5 43.5t-66.5 118.5h72q5 -46 43.5 -74.5t103.5 -28.5q57 0 89.5 27t32.5 67q0 28 -18 46t-45.5 28.5t-74.5 22.5q-61 16 -99 32t-64.5 47.5t-26.5 84.5q0 40 24 74t68 54t100 20q88 0 142 -44.5
t58 -122.5h-70q-3 48 -37.5 77.5t-94.5 29.5q-53 0 -86 -25t-33 -62q0 -32 19.5 -52.5t48.5 -32t78 -25.5q59 -16 94 -31t60 -44t26 -77q0 -44 -24 -78.5t-67 -54.5t-99 -20z" />
    <glyph glyph-name="uni0162" unicode="&#x162;" horiz-adv-x="520" 
d="M286 0v-67h9q53 0 86 -23.5t33 -69.5q0 -45 -32 -71.5t-85 -26.5h-100v47h86q37 0 54.5 12.5t17.5 38.5q0 48 -72 48h-46v112h-12v641h-195v58h459v-58h-194v-641h-9z" />
    <glyph glyph-name="uni0163" unicode="&#x163;" horiz-adv-x="356" 
d="M226 -67h9q53 0 86 -23.5t33 -69.5q0 -45 -32 -71.5t-85 -26.5h-100v47h86q37 0 54 12.5t17 38.5q0 48 -71 48h-47v122q-38 14 -57 47t-19 91v339h-76v59h76v137h71v-137h150v-59h-150v-339q0 -50 19 -69t67 -19h64v-60h-75q-14 0 -20 1v-68z" />
    <glyph glyph-name="Tcaron" unicode="&#x164;" horiz-adv-x="520" 
d="M394 829l-134 -82l-134 82v56l134 -83l134 83v-56zM489 699v-58h-194v-641h-70v641h-195v58h459z" />
    <glyph glyph-name="tcaron" unicode="&#x165;" horiz-adv-x="359" 
d="M334 683q0 -49 -23 -70.5t-68 -21.5v36q25 0 36 9.5t11 28.5v22h-46v76h81q9 -49 9 -80zM171 546h150v-59h-150v-339q0 -50 19 -69t67 -19h64v-60h-75q-74 0 -110 34.5t-36 113.5v339h-76v59h76v137h71v-137z" />
    <glyph glyph-name="Utilde" unicode="&#x168;" horiz-adv-x="661" 
d="M147 699v-440q0 -104 49.5 -154t135.5 -50t134.5 49.5t48.5 154.5v440h70v-439q0 -133 -70.5 -200t-183.5 -67t-183.5 67t-70.5 200v439h70zM183 791q2 14 7 31t14.5 32t23 25.5t31.5 10.5q15 0 30 -5t30.5 -11t32.5 -12t35 -8q38 -5 44 36l47 -4q-3 -16 -8.5 -34
t-14.5 -33t-22 -24.5t-31 -9.5q-16 0 -30.5 6t-29.5 13.5t-30.5 13.5t-33.5 6q-16 0 -28.5 -11t-17.5 -29z" />
    <glyph glyph-name="utilde" unicode="&#x169;" horiz-adv-x="633" 
d="M553 546v-546h-70v96q-24 -51 -74 -78t-112 -27q-98 0 -160 60.5t-62 175.5v319h69v-311q0 -89 44.5 -136t121.5 -47q79 0 126 50t47 147v297h70zM170 637q2 14 7 31t14.5 32t23 25.5t31.5 10.5q15 0 30 -5t30.5 -11t32.5 -12t35 -8q38 -5 44 36l47 -4q-3 -16 -8.5 -34
t-14.5 -33t-22 -24.5t-31 -9.5q-16 0 -30.5 6t-29.5 13.5t-30.5 13.5t-33.5 6q-16 0 -28.5 -11t-17.5 -29z" />
    <glyph glyph-name="Umacron" unicode="&#x16a;" horiz-adv-x="661" 
d="M500 844v-54h-339v54h339zM147 699v-440q0 -104 49.5 -154t135.5 -50t134.5 49.5t48.5 154.5v440h70v-439q0 -133 -70.5 -200t-183.5 -67t-183.5 67t-70.5 200v439h70z" />
    <glyph glyph-name="umacron" unicode="&#x16b;" horiz-adv-x="633" 
d="M486 700v-54h-339v54h339zM553 546v-546h-70v96q-24 -51 -74 -78t-112 -27q-98 0 -160 60.5t-62 175.5v319h69v-311q0 -89 44.5 -136t121.5 -47q79 0 126 50t47 147v297h70z" />
    <glyph glyph-name="Ubreve" unicode="&#x16c;" horiz-adv-x="661" 
d="M466 873q0 -53 -35.5 -88t-100.5 -35t-100 35t-35 88v13h44q0 -80 91 -80t91 80h45v-13zM147 699v-440q0 -104 49.5 -154t135.5 -50t134.5 49.5t48.5 154.5v440h70v-439q0 -133 -70.5 -200t-183.5 -67t-183.5 67t-70.5 200v439h70z" />
    <glyph glyph-name="ubreve" unicode="&#x16d;" horiz-adv-x="633" 
d="M453 729q0 -53 -35.5 -88t-100.5 -35t-100 35t-35 88v13h44q0 -80 91 -80t91 80h45v-13zM553 546v-546h-70v96q-24 -51 -74 -78t-112 -27q-98 0 -160 60.5t-62 175.5v319h69v-311q0 -89 44.5 -136t121.5 -47q79 0 126 50t47 147v297h70z" />
    <glyph glyph-name="Uring" unicode="&#x16e;" horiz-adv-x="661" 
d="M432 854q0 -45 -29 -72.5t-73 -27.5q-43 0 -72.5 27.5t-29.5 72.5t29.5 72.5t72.5 27.5q44 0 73 -27.5t29 -72.5zM389 854q0 28 -17 44.5t-42 16.5t-41.5 -16.5t-16.5 -44.5q0 -27 16.5 -44t41.5 -17t42 17t17 44zM147 699v-440q0 -104 49.5 -154t135.5 -50t134.5 49.5
t48.5 154.5v440h70v-439q0 -133 -70.5 -200t-183.5 -67t-183.5 67t-70.5 200v439h70z" />
    <glyph glyph-name="uring" unicode="&#x16f;" horiz-adv-x="633" 
d="M419 710q0 -45 -29 -72.5t-73 -27.5q-43 0 -72.5 27.5t-29.5 72.5t29.5 72.5t72.5 27.5q44 0 73 -27.5t29 -72.5zM376 710q0 28 -17 44.5t-42 16.5t-41.5 -16.5t-16.5 -44.5q0 -27 16.5 -44t41.5 -17t42 17t17 44zM553 546v-546h-70v96q-24 -51 -74 -78t-112 -27
q-98 0 -160 60.5t-62 175.5v319h69v-311q0 -89 44.5 -136t121.5 -47q79 0 126 50t47 147v297h70z" />
    <glyph glyph-name="Uhungarumlaut" unicode="&#x170;" horiz-adv-x="661" 
d="M278 745h-49l65 139h63zM415 745h-48l69 139h63zM147 699v-440q0 -104 49.5 -154t135.5 -50t134.5 49.5t48.5 154.5v440h70v-439q0 -133 -70.5 -200t-183.5 -67t-183.5 67t-70.5 200v439h70z" />
    <glyph glyph-name="uhungarumlaut" unicode="&#x171;" horiz-adv-x="633" 
d="M264 601h-49l65 139h63zM401 601h-48l69 139h63zM553 546v-546h-70v96q-24 -51 -74 -78t-112 -27q-98 0 -160 60.5t-62 175.5v319h69v-311q0 -89 44.5 -136t121.5 -47q79 0 126 50t47 147v297h70z" />
    <glyph glyph-name="Uogonek" unicode="&#x172;" horiz-adv-x="661" 
d="M585 699v-439q0 -111 -50.5 -176.5t-135.5 -83.5l-60 -29q-63 -31 -63 -73q0 -24 17 -37.5t45 -13.5q30 0 64 14v-49q-36 -13 -72 -13q-48 0 -80.5 22.5t-32.5 69.5q0 62 74 104q-97 12 -155.5 78.5t-58.5 186.5v439h70v-440q0 -104 49.5 -154t135.5 -50t134.5 49.5
t48.5 154.5v440h70z" />
    <glyph glyph-name="uogonek" unicode="&#x173;" horiz-adv-x="633" 
d="M492 -154q30 0 64 14v-49q-36 -13 -72 -13q-48 0 -80.5 22.5t-32.5 69.5q0 73 108 122l4 2v82q-24 -51 -74 -78t-112 -27q-98 0 -160 60.5t-62 175.5v319h69v-311q0 -89 44.5 -136t121.5 -47q79 0 126 50t47 147v297h70v-547l-60 -29q-63 -31 -63 -73q0 -24 17 -37.5
t45 -13.5z" />
    <glyph glyph-name="Wcircumflex" unicode="&#x174;" horiz-adv-x="955" 
d="M475 845l-134 -84v57l134 82l134 -82v-57zM928 699l-198 -699h-78l-176 596l-180 -596l-76 -1l-194 700h75l160 -613l179 613h78l174 -613l161 613h75z" />
    <glyph glyph-name="wcircumflex" unicode="&#x175;" horiz-adv-x="815" 
d="M408 688l-134 -84v57l134 82l134 -82v-57zM800 546l-171 -546h-70l-151 458l-151 -458h-71l-171 546h71l136 -475l153 475h70l151 -476l135 476h69z" />
    <glyph glyph-name="Ycircumflex" unicode="&#x176;" horiz-adv-x="564" 
d="M283 832l-134 -84v57l134 82l134 -82v-57zM542 699l-224 -427v-272h-70v272l-226 427h79l182 -363l181 363h78z" />
    <glyph glyph-name="ycircumflex" unicode="&#x177;" horiz-adv-x="545" 
d="M273 688l-134 -84v57l134 82l134 -82v-57zM530 546l-324 -803h-73l106 260l-224 543h77l186 -466l180 466h72z" />
    <glyph glyph-name="Ydieresis" unicode="&#x178;" horiz-adv-x="564" 
d="M206 767q-19 0 -32.5 13.5t-13.5 32.5t13.5 32.5t32.5 13.5t32.5 -13.5t13.5 -32.5t-13.5 -32.5t-32.5 -13.5zM360 767q-19 0 -32.5 13.5t-13.5 32.5t13.5 32.5t32.5 13.5t32 -13.5t13 -32.5t-13 -32.5t-32 -13.5zM542 699l-224 -427v-272h-70v272l-226 427h79l182 -363
l181 363h78z" />
    <glyph glyph-name="Zacute" unicode="&#x179;" horiz-adv-x="525" 
d="M355 851l-205 -119v54l205 128v-63zM125 62h357v-62h-439v56l352 581h-346v62h428v-56z" />
    <glyph glyph-name="zacute" unicode="&#x17a;" horiz-adv-x="441" 
d="M314 707l-205 -119v54l205 128v-63zM117 58h286v-58h-366v58l281 430h-276v58h356v-58z" />
    <glyph glyph-name="Zdotaccent" unicode="&#x17b;" horiz-adv-x="525" 
d="M263 757q-19 0 -32.5 13.5t-13.5 32.5t13.5 32.5t32.5 13.5t32.5 -13.5t13.5 -32.5t-13.5 -32.5t-32.5 -13.5zM125 62h357v-62h-439v56l352 581h-346v62h428v-56z" />
    <glyph glyph-name="zdotaccent" unicode="&#x17c;" horiz-adv-x="441" 
d="M221 613q-19 0 -32.5 13.5t-13.5 32.5t13.5 32.5t32.5 13.5t32.5 -13.5t13.5 -32.5t-13.5 -32.5t-32.5 -13.5zM117 58h286v-58h-366v58l281 430h-276v58h356v-58z" />
    <glyph glyph-name="Zcaron" unicode="&#x17d;" horiz-adv-x="525" 
d="M397 829l-134 -82l-134 82v56l134 -83l134 83v-56zM125 62h357v-62h-439v56l352 581h-346v62h428v-56z" />
    <glyph glyph-name="zcaron" unicode="&#x17e;" horiz-adv-x="441" 
d="M355 685l-134 -82l-134 82v56l134 -83l134 83v-56zM117 58h286v-58h-366v58l281 430h-276v58h356v-58z" />
    <glyph glyph-name="uni018F" unicode="&#x18f;" horiz-adv-x="788" 
d="M398 707q97 0 172 -45.5t117 -126.5t42 -185q0 -105 -42 -186t-117.5 -126t-174.5 -45q-95 0 -168 38.5t-113.5 112t-40.5 174.5q0 28 3 58h577q-3 81 -36.5 141.5t-90.5 93t-128 32.5q-87 0 -152 -44.5t-89 -122.5h-80q31 106 117 168.5t204 62.5zM395 56q71 0 129 30.5
t92 88t37 136.5h-507v-5q0 -73 30 -130t87 -88.5t132 -31.5z" />
    <glyph glyph-name="florin" unicode="&#x192;" horiz-adv-x="332" 
d="M324 704q-63 0 -94 -25t-37 -80l-6 -53h127l-5 -58h-128l-57 -538q-7 -67 -40.5 -98t-99.5 -31h-25l5 58h21q33 0 49 15.5t20 55.5l57 538h-75l5 58h76l6 53q9 85 59.5 124.5t146.5 39.5z" />
    <glyph glyph-name="Ohorn" unicode="&#x1a0;" horiz-adv-x="788" 
d="M394 -7q-97 0 -176 45.5t-124.5 127t-45.5 184.5t45.5 184.5t124.5 127t176 45.5q98 0 177 -45.5t124 -127t45 -184.5t-45 -184.5t-124 -127t-177 -45.5zM394 54q78 0 140 36t98 103.5t36 156.5t-36 156t-98 103t-140 36t-140 -36t-98 -103t-36 -156t36 -156.5t98 -103.5
t140 -36zM630 786v-12q0 -35 -10.5 -57t-29.5 -34t-45.5 -16.5t-57.5 -4.5q-3 5 -10 6t-10 6v26q27 -1 46 2t31 12.5t17.5 26.5t5.5 45h63z" />
    <glyph glyph-name="ohorn" unicode="&#x1a1;" horiz-adv-x="642" 
d="M319 -8q-77 0 -138.5 34.5t-97 98t-35.5 148.5t36 148.5t98 98t139 34.5t139.5 -34.5t98 -98t35.5 -148.5q0 -84 -36 -148t-99 -98.5t-140 -34.5zM319 53q54 0 100 24.5t74.5 74t28.5 121.5t-28 121.5t-74 74t-100 24.5t-100 -24.5t-73.5 -74t-27.5 -121.5t27.5 -121.5
t73 -74t99.5 -24.5zM554 632v-12q0 -35 -10.5 -57t-29.5 -34t-45.5 -16.5t-57.5 -4.5q-3 5 -10 6t-10 6v26q27 -1 46 2t31 12.5t17.5 26.5t5.5 45h63z" />
    <glyph glyph-name="Uhorn" unicode="&#x1af;" horiz-adv-x="661" 
d="M147 699v-440q0 -104 49.5 -154t135.5 -50t134.5 49.5t48.5 154.5v440h70v-439q0 -133 -70.5 -200t-183.5 -67t-183.5 67t-70.5 200v439h70zM678 785v-12q0 -35 -10.5 -57t-29.5 -34t-45.5 -16.5t-57.5 -4.5q-3 5 -10 6t-10 6v26q27 -1 46 2t31 12.5t17.5 26.5t5.5 45h63
z" />
    <glyph glyph-name="uhorn" unicode="&#x1b0;" horiz-adv-x="633" 
d="M553 546v-546h-70v96q-24 -51 -74 -78t-112 -27q-98 0 -160 60.5t-62 175.5v319h69v-311q0 -89 44.5 -136t121.5 -47q79 0 126 50t47 147v297h70zM646 632v-12q0 -35 -10.5 -57t-29.5 -34t-45.5 -16.5t-57.5 -4.5q-3 5 -10 6t-10 6v26q27 -1 46 2t31 12.5t17.5 26.5
t5.5 45h63z" />
    <glyph glyph-name="AEacute" unicode="&#x1fc;" horiz-adv-x="882" 
d="M652 862l-205 -119v54l205 128v-63zM528 644v-264h265v-56h-265v-268h295v-56h-365v166h-274l-96 -166h-77l406 700h406v-56h-295zM458 222v418l-242 -418h242z" />
    <glyph glyph-name="aeacute" unicode="&#x1fd;" horiz-adv-x="1110" 
d="M730 707l-205 -119v54l205 128v-63zM1061 302q0 -29 -4 -54h-461q4 -64 33 -108.5t73.5 -66.5t93.5 -22q72 0 120 33t61 89h76q-19 -80 -84 -130.5t-162 -50.5q-74 0 -133 35.5t-86 98.5v-126h-61v126q-27 -60 -84.5 -97t-133.5 -37q-75 0 -134.5 35t-93 99t-33.5 148
t34 147.5t94 98t136 34.5q75 0 131 -35t86 -96v123h59v-124q32 66 89 99t130 33q77 0 134.5 -34t88.5 -91.5t31 -126.5zM989 300v9q0 56 -25 98.5t-69 64.5t-98 22q-52 0 -96.5 -22.5t-72.5 -66.5t-32 -105h393zM322 53q56 0 102.5 27t73.5 77t27 116t-27 116t-73.5 77
t-102.5 27q-58 0 -104 -26t-72.5 -75.5t-26.5 -117.5q0 -67 26.5 -117.5t72.5 -77t104 -26.5z" />
    <glyph glyph-name="uni0218" unicode="&#x218;" horiz-adv-x="572" 
d="M292 -7q-69 0 -121.5 24t-82.5 67t-32 96h74q5 -51 45 -89.5t117 -38.5q71 0 112.5 36.5t41.5 92.5q0 45 -23 72.5t-57 41t-94 29.5q-70 19 -111 37t-70 56t-29 103q0 54 28 96.5t79 66.5t117 24q97 0 156.5 -47.5t68.5 -122.5h-76q-7 43 -47 76.5t-108 33.5
q-63 0 -105 -33.5t-42 -91.5q0 -44 23 -71t57.5 -41t93.5 -30q68 -19 110 -37.5t71 -56.5t29 -102q0 -49 -26 -93t-77 -71t-122 -27zM336 -52q8 -38 8 -67q0 -57 -23 -82t-68 -25v35q47 0 47 56v14h-43v69h79z" />
    <glyph glyph-name="uni0219" unicode="&#x219;" horiz-adv-x="510" 
d="M268 -8q-94 0 -153.5 43.5t-66.5 118.5h72q5 -46 43.5 -74.5t103.5 -28.5q57 0 89.5 27t32.5 67q0 28 -18 46t-45.5 28.5t-74.5 22.5q-61 16 -99 32t-64.5 47.5t-26.5 84.5q0 40 24 74t68 54t100 20q88 0 142 -44.5t58 -122.5h-70q-3 48 -37.5 77.5t-94.5 29.5
q-53 0 -86 -25t-33 -62q0 -32 19.5 -52.5t48.5 -32t78 -25.5q59 -16 94 -31t60 -44t26 -77q0 -44 -24 -78.5t-67 -54.5t-99 -20zM303 -52q8 -38 8 -67q0 -56 -23 -81.5t-67 -25.5v35q46 0 46 56v14h-43v69h79z" />
    <glyph glyph-name="uni021A" unicode="&#x21a;" horiz-adv-x="520" 
d="M489 699v-58h-194v-641h-70v641h-195v58h459zM297 -52q8 -38 8 -67q0 -56 -23 -81.5t-67 -25.5v35q46 0 46 56v14h-43v69h79z" />
    <glyph glyph-name="uni021B" unicode="&#x21b;" horiz-adv-x="356" 
d="M171 487v-339q0 -50 19 -69t67 -19h64v-60h-75q-74 0 -110 34.5t-36 113.5v339h-76v59h76v137h71v-137h150v-59h-150zM232 -52q8 -32 8 -67q0 -56 -23 -81.5t-67 -25.5v35q46 0 46 56v14h-43v69h79z" />
    <glyph glyph-name="uni0259" unicode="&#x259;" horiz-adv-x="622" 
d="M306 554q77 0 138 -34.5t95.5 -98t34.5 -148.5t-34 -149t-95 -98t-139 -34t-136.5 34t-90 91.5t-31.5 127.5q0 36 2 55h453q-3 62 -30 106t-71 66.5t-96 22.5q-68 0 -114.5 -33t-61.5 -89h-74q20 80 85.5 130.5t164.5 50.5zM309 52q78 0 133 50t61 141h-384v-5
q0 -58 25 -100t69 -64t96 -22z" />
    <glyph glyph-name="uni02BC" unicode="&#x2bc;" horiz-adv-x="197" 
d="M89 699h81l-88 -216h-51z" />
    <glyph glyph-name="circumflex" unicode="&#x2c6;" horiz-adv-x="417" 
d="M74 610l-10 53l151 98l157 -98l-10 -53l-147 62z" />
    <glyph glyph-name="caron" unicode="&#x2c7;" horiz-adv-x="316" 
d="M292 685l-134 -82l-134 82v56l134 -83l134 83v-56z" />
    <glyph glyph-name="uni02C9" unicode="&#x2c9;" horiz-adv-x="387" 
d="M363 700v-54h-339v54h339z" />
    <glyph glyph-name="breve" unicode="&#x2d8;" horiz-adv-x="395" 
d="M108 740q3 -15 12.5 -26.5t22.5 -20t28 -12.5t30 -4t29.5 4.5t27.5 12.5t22 19.5t12 26.5h65q-12 -66 -52.5 -99.5t-105.5 -33.5q-63 0 -100 35.5t-48 97.5h57z" />
    <glyph glyph-name="dotaccent" unicode="&#x2d9;" horiz-adv-x="147" 
d="M73 623q-19 0 -32.5 13.5t-13.5 32.5t13.5 32.5t32.5 13.5t32.5 -13.5t13.5 -32.5t-13.5 -32.5t-32.5 -13.5z" />
    <glyph glyph-name="ring" unicode="&#x2da;" horiz-adv-x="248" 
d="M226 710q0 -45 -29 -72.5t-73 -27.5q-43 0 -72.5 27.5t-29.5 72.5t29.5 72.5t72.5 27.5q44 0 73 -27.5t29 -72.5zM183 710q0 28 -17 44.5t-42 16.5t-41.5 -16.5t-16.5 -44.5q0 -27 16.5 -44t41.5 -17t42 17t17 44z" />
    <glyph glyph-name="ogonek" unicode="&#x2db;" horiz-adv-x="248" 
d="M211 0l-60 -29q-63 -31 -63 -73q0 -24 17 -37.5t45 -13.5q30 0 64 14v-49q-36 -13 -72 -13q-48 0 -80.5 22.5t-32.5 69.5q0 73 108 122l55 25z" />
    <glyph glyph-name="tilde" unicode="&#x2dc;" horiz-adv-x="458" 
d="M98 637q2 14 7 31t14.5 32t23 25.5t31.5 10.5q15 0 30 -5t30.5 -11t32.5 -12t35 -8q38 -5 44 36l47 -4q-3 -16 -8.5 -34t-14.5 -33t-22 -24.5t-31 -9.5q-16 0 -30.5 6t-29.5 13.5t-30.5 13.5t-33.5 6q-16 0 -28.5 -11t-17.5 -29z" />
    <glyph glyph-name="hungarumlaut" unicode="&#x2dd;" horiz-adv-x="325" 
d="M73 601h-49l65 139h63zM210 601h-48l69 139h63z" />
    <glyph glyph-name="hookabovecomb" unicode="&#x309;" horiz-adv-x="333" 
d="M174 636q7 7 13.5 16.5t8.5 20.5t-1 18t-10 11t-16.5 5.5t-19.5 1.5q-15 0 -30 -3t-30 -7l-16 61q21 4 42 5.5t42 1.5q17 0 36.5 -2.5t36 -9t27.5 -19.5t11 -34q0 -14 -6 -27t-16 -24.5t-21 -21.5t-22 -19z" />
    <glyph glyph-name="uni031B" unicode="&#x31b;" horiz-adv-x="333" 
d="M190 632v-12q0 -35 -10.5 -57t-29.5 -34t-45.5 -16.5t-57.5 -4.5q-3 5 -10 6t-10 6v26q27 -1 46 2t31 12.5t17.5 26.5t5.5 45h63z" />
    <glyph glyph-name="dotbelowcomb" unicode="&#x323;" horiz-adv-x="192" 
d="M50 -131q0 20 13 35.5t37 15.5q22 0 35.5 -13.5t13.5 -36.5q0 -25 -15 -37t-35 -12q-22 0 -35.5 13t-13.5 35z" />
    <glyph glyph-name="pi" unicode="&#x3c0;" horiz-adv-x="713" 
d="M663 546v-56h-81v-490h-70v490h-314v-490h-70v490h-81v56h616z" />
    <glyph glyph-name="uni0901" unicode="&#x901;" horiz-adv-x="0" 
d="M-110 1017q0 -15 -10 -25.5t-26 -10.5t-26.5 10.5t-10.5 25.5t10.5 25.5t26.5 10.5t26 -10.5t10 -25.5zM47 987q0 -45 -21.5 -83t-65.5 -61t-107 -23t-106.5 23t-65.5 61t-22 83h53q0 -30 15.5 -57.5t47.5 -44.5t78 -17t78 17t48 44.5t16 57.5h52z" />
    <glyph glyph-name="uni0902" unicode="&#x902;" horiz-adv-x="0" 
d="M-97 888q0 -20 -13.5 -33.5t-33.5 -13.5t-33.5 13.5t-13.5 33.5t13.5 33t33.5 13t33.5 -13t13.5 -33z" />
    <glyph glyph-name="uni0903" unicode="&#x903;" horiz-adv-x="219" 
d="M157 498q0 -19 -13.5 -32.5t-33.5 -13.5t-33.5 13t-13.5 33t13.5 33t33.5 13t33.5 -13.5t13.5 -32.5zM157 191q0 -20 -13.5 -33.5t-33.5 -13.5t-33.5 13.5t-13.5 33.5t13.5 33t33.5 13t33.5 -13.5t13.5 -32.5z" />
    <glyph glyph-name="uni0905" unicode="&#x905;" horiz-adv-x="824" 
d="M853 740v-54h-141v-686h-63v344l-181 1q29 -46 29 -102q0 -86 -55 -138.5t-146 -52.5q-63 0 -113 25.5t-78 71t-28 104.5h61q0 -64 43 -105t111 -41q67 0 106.5 39t39.5 103q0 26 -9 51.5t-27 44.5h-2l-1 2q-41 41 -114 41h-37v53h37q46 0 78 17.5t47.5 45.5t15.5 59
q0 60 -39.5 95.5t-97.5 35.5q-62 0 -103 -34.5t-41 -92.5h-60q0 55 26.5 96.5t72.5 63.5t105 22q86 0 140.5 -48.5t54.5 -127.5q0 -59 -32 -100.5t-94 -55.5v-2q29 -5 52 -17h239v342h204z" />
    <glyph glyph-name="uni0906" unicode="&#x906;" horiz-adv-x="1104" 
d="M1140 686h-141v-686h-63v686h-224v-686h-63v344l-181 1q29 -46 29 -102q0 -86 -55 -138.5t-146 -52.5q-63 0 -113 25.5t-78 71t-28 104.5h61q0 -64 43 -105t111 -41q67 0 106.5 39t39.5 103q0 26 -9 51.5t-27 44.5h-2l-1 2q-41 41 -114 41h-37v53h37q46 0 78 17.5
t47.5 45.5t15.5 59q0 60 -39.5 95.5t-97.5 35.5q-62 0 -103 -34.5t-41 -92.5h-60q0 55 26.5 96.5t72.5 63.5t105 22q86 0 140.5 -48.5t54.5 -127.5q0 -59 -32 -100.5t-94 -55.5v-2q29 -5 52 -17h239v342h491v-54z" />
    <glyph glyph-name="uni0907" unicode="&#x907;" horiz-adv-x="581" 
d="M289 506q-58 0 -97.5 -20.5t-39.5 -73.5q0 -48 34 -70t88 -22h44q87 0 146 -39.5t59 -129.5q0 -70 -47.5 -116.5t-133.5 -46.5q-78 0 -123.5 33.5t-59.5 69.5v-166h-60v255h57q6 -63 51 -103t120 -40q66 0 100.5 33t34.5 83q0 65 -44 92.5t-110 27.5h-51q-73 2 -121 36.5
t-48 103.5q0 74 52.5 107t130.5 33h131v133h-442v54h661v-54h-157v-180h-175z" />
    <glyph glyph-name="uni0908" unicode="&#x908;" horiz-adv-x="581" 
d="M561 1003q72 0 111.5 -42.5t39.5 -109.5v-7h-56v3q0 44 -25.5 73t-68.5 29q-100 0 -100 -132v-77h159v-54h-157v-180h-175q-58 0 -97.5 -20.5t-39.5 -73.5q0 -48 34 -70t88 -22h44q87 0 146 -39.5t59 -129.5q0 -70 -47.5 -116.5t-133.5 -46.5q-78 0 -123.5 33.5
t-59.5 69.5v-166h-60v255h57q6 -63 51 -103t120 -40q66 0 100.5 33t34.5 83q0 65 -44 92.5t-110 27.5h-51q-73 2 -121 36.5t-48 103.5q0 74 52.5 107t130.5 33h131v133h-442v54h442v77q0 87 39.5 136.5t119.5 49.5z" />
    <glyph glyph-name="uni0909" unicode="&#x909;" horiz-adv-x="578" 
d="M476 571q0 -62 -32.5 -103.5t-83.5 -50.5v-2q68 -13 108 -68t40 -129q0 -63 -26 -111.5t-75 -76t-116 -27.5q-68 0 -122 28.5t-84.5 78.5t-30.5 114h61q0 -46 23 -83.5t62.5 -59t87.5 -21.5q72 0 115.5 45.5t43.5 116.5q0 41 -17 78.5t-54.5 61.5t-94.5 24h-42v56h35
q69 0 104.5 37.5t35.5 95.5v111h-443v54h636v-54h-131v-115z" />
    <glyph glyph-name="uni090A" unicode="&#x90a;" horiz-adv-x="868" 
d="M476 571q0 -62 -32.5 -103.5t-83.5 -50.5v-2h215q103 0 167 -48t64 -149q0 -95 -54 -141.5t-141 -46.5q-20 0 -43 3v49q12 -1 35 -1q63 0 102.5 33.5t39.5 106.5q0 74 -47.5 108t-121.5 34h-124q26 -28 40.5 -66.5t14.5 -81.5q0 -61 -26 -109t-74.5 -75.5t-115.5 -27.5
q-68 0 -122 28.5t-84.5 78.5t-30.5 114h61q0 -46 23 -83.5t62.5 -59t87.5 -21.5q72 0 115.5 45.5t43.5 116.5q0 41 -17 78.5t-54.5 61.5t-94.5 24h-42v56h35q69 0 104.5 37.5t35.5 95.5v111h-443v54h926v-54h-421v-115z" />
    <glyph glyph-name="uni090B" unicode="&#x90b;" horiz-adv-x="1013" 
d="M564 686v-251h187q90 0 90 80v64h57v-354h-17q-59 0 -92.5 -33t-33.5 -82q0 -58 35 -85t90 -27q32 0 57 9v-53q-34 -9 -64 -9q-78 0 -128.5 41t-50.5 119q0 64 39.5 107.5t107.5 52.5v144q-37 -27 -98 -27h-179v-382h-60v305l-296 -305h-79v5l375 368q-10 65 -57 106
t-117 41q-56 0 -99.5 -24.5t-68 -69.5t-24.5 -105h-64q0 76 30.5 133.5t84.5 89t124 31.5q67 0 115.5 -28.5t75.5 -78.5v218h-533v54h1071v-54h-478z" />
    <glyph glyph-name="uni090C" unicode="&#x90c;" horiz-adv-x="899" 
d="M663 686v-138q75 -11 118 -71.5t43 -153.5q0 -56 -16 -100h-7q-63 0 -97.5 -32.5t-34.5 -82.5q0 -56 35 -83.5t90 -27.5q33 0 58 9v-53q-29 -9 -64 -9q-79 0 -129.5 41.5t-50.5 120.5q0 62 40 105.5t106 50.5q7 27 7 62q0 73 -36 121t-102 48q-71 0 -108 -53.5
t-37 -146.5v-15h-55v15q0 91 -35 145.5t-103 54.5q-70 0 -108 -47t-38 -123q0 -84 44.5 -135t127.5 -51q8 0 30 2v-56q-24 -2 -34 -2q-112 0 -172.5 67t-60.5 175q0 104 55.5 165.5t148.5 61.5q73 0 115.5 -45.5t55.5 -108.5h3q12 57 48.5 100t100.5 52v138h-630v54h956v-54
h-264z" />
    <glyph glyph-name="uni090D" unicode="&#x90d;" horiz-adv-x="652" 
d="M523 1010q0 -44 -21 -82t-65 -61.5t-108 -23.5t-108 23.5t-65 61.5t-21 82h56q0 -47 35 -82.5t103 -35.5q46 0 77.5 17t46.5 44t15 57h55zM364 419q8 -1 22 -1q60 0 87 34.5t27 109.5v124h-329v-413q0 -94 44 -146.5t130 -52.5q78 0 121 45.5t43 128.5h63
q0 -108 -59.5 -168.5t-166.5 -60.5q-119 0 -178.5 68.5t-59.5 187.5l-1 411h-136v54h710v-54h-119v-125q0 -104 -38 -153t-126 -49q-10 0 -34 2v58z" />
    <glyph glyph-name="uni090F" unicode="&#x90f;" horiz-adv-x="652" 
d="M364 419q8 -1 22 -1q60 0 87 34.5t27 109.5v124h-329v-413q0 -94 44 -146.5t130 -52.5q78 0 121 45.5t43 128.5h63q0 -108 -59.5 -168.5t-166.5 -60.5q-119 0 -178.5 68.5t-59.5 187.5l-1 411h-136v54h710v-54h-119v-125q0 -104 -38 -153t-126 -49q-10 0 -34 2v58z" />
    <glyph glyph-name="uni0910" unicode="&#x910;" horiz-adv-x="652" 
d="M364 419q8 -1 22 -1q60 0 87 34.5t27 109.5v124h-329v-413q0 -94 44 -146.5t130 -52.5q78 0 121 45.5t43 128.5h63q0 -108 -59.5 -168.5t-166.5 -60.5q-119 0 -178.5 68.5t-59.5 187.5l-1 411h-136v54h525q-54 86 -89 123.5t-67 48.5t-88 11h-38v53h37q70 0 111 -14
t86 -63t110 -159h123v-54h-119v-125q0 -104 -38 -153t-126 -49q-10 0 -34 2v58z" />
    <glyph glyph-name="uni0911" unicode="&#x911;" horiz-adv-x="1111" 
d="M1020 1010q0 -44 -21 -82t-65 -61.5t-108 -23.5t-108 23.5t-65 61.5t-21 82h56q0 -47 35 -82.5t103 -35.5q46 0 77.5 17t46.5 44t15 57h55zM1140 686h-141v-686h-63v686h-224v-686h-63v344l-181 1q29 -46 29 -102q0 -86 -55 -138.5t-146 -52.5q-63 0 -113 25.5t-78 71
t-28 104.5h61q0 -64 43 -105t111 -41q67 0 106.5 39t39.5 103q0 26 -9 51.5t-27 44.5h-2l-1 2q-41 41 -114 41h-37v53h37q46 0 78 17.5t47.5 45.5t15.5 59q0 60 -39.5 95.5t-97.5 35.5q-62 0 -103 -34.5t-41 -92.5h-60q0 55 26.5 96.5t72.5 63.5t105 22q86 0 140.5 -48.5
t54.5 -127.5q0 -59 -32 -100.5t-94 -55.5v-2q29 -5 52 -17h239v342h491v-54z" />
    <glyph glyph-name="uni0913" unicode="&#x913;" horiz-adv-x="1111" 
d="M1140 740v-54h-141v-686h-63v686h-224v-686h-63v344l-181 1q29 -46 29 -102q0 -86 -55 -138.5t-146 -52.5q-63 0 -113 25.5t-78 71t-28 104.5h61q0 -64 43 -105t111 -41q67 0 106.5 39t39.5 103q0 26 -9 51.5t-27 44.5h-2l-1 2q-41 41 -114 41h-37v53h37q46 0 78 17.5
t47.5 45.5t15.5 59q0 60 -39.5 95.5t-97.5 35.5q-62 0 -103 -34.5t-41 -92.5h-60q0 55 26.5 96.5t72.5 63.5t105 22q86 0 140.5 -48.5t54.5 -127.5q0 -59 -32 -100.5t-94 -55.5v-2q29 -5 52 -17h239v342h285q-54 86 -89 123.5t-67 48.5t-88 11h-38v53h37q70 0 111 -14
t86 -63t110 -159h144z" />
    <glyph glyph-name="uni0914" unicode="&#x914;" horiz-adv-x="1111" 
d="M1140 740v-54h-141v-686h-63v686h-224v-686h-63v344l-181 1q29 -46 29 -102q0 -86 -55 -138.5t-146 -52.5q-63 0 -113 25.5t-78 71t-28 104.5h61q0 -64 43 -105t111 -41q67 0 106.5 39t39.5 103q0 26 -9 51.5t-27 44.5h-2l-1 2q-41 41 -114 41h-37v53h37q46 0 78 17.5
t47.5 45.5t15.5 59q0 60 -39.5 95.5t-97.5 35.5q-62 0 -103 -34.5t-41 -92.5h-60q0 55 26.5 96.5t72.5 63.5t105 22q86 0 140.5 -48.5t54.5 -127.5q0 -59 -32 -100.5t-94 -55.5v-2q29 -5 52 -17h239v342h289q-59 49 -94.5 70t-67 26.5t-90.5 5.5h-40v43h39q57 0 88.5 -5
t66 -23.5t84.5 -61.5q-50 91 -85.5 132t-67 51.5t-84.5 10.5h-41v44h40q71 0 110 -16t83.5 -76.5t115.5 -200.5h145z" />
    <glyph glyph-name="uni0915" unicode="&#x915;" horiz-adv-x="1002" 
d="M537 686v-236q22 52 67.5 84t113.5 32q60 0 107.5 -28.5t75 -79.5t27.5 -118q0 -71 -27 -123.5t-74.5 -80t-107.5 -27.5q-31 0 -61 7v52q18 -5 46 -5q70 0 115 47t45 129q0 52 -21.5 91t-59 60t-82.5 21q-55 0 -92 -26.5t-54.5 -68t-17.5 -86.5v-330h-61v221
q-22 -51 -70 -83t-117 -32q-62 0 -111 28.5t-76.5 81t-27.5 123.5q0 68 28 119.5t77.5 79.5t111.5 28q70 0 116 -31t69 -82v233h-505v54h1060v-54h-494zM307 161q56 0 94 26t56.5 66.5t18.5 81.5v1q0 44 -18 84t-56 65.5t-95 25.5q-46 0 -84.5 -21t-61 -60.5t-22.5 -91.5
q0 -82 47.5 -129.5t120.5 -47.5z" />
    <glyph glyph-name="uni0916" unicode="&#x916;" horiz-adv-x="926" 
d="M955 740v-54h-141v-686h-63v236q-21 -42 -61 -67.5t-98 -25.5q-24 0 -41 4q-28 -66 -85 -107.5t-137 -41.5q-110 0 -175.5 63t-65.5 174v162h38q66 0 105.5 34t39.5 122v133h-300v54h984zM331 54q61 0 103.5 30.5t63.5 79.5q-49 24 -77 72t-28 114q0 60 26 105.5
t71.5 70.5t101.5 25q58 0 98 -25.5t61 -67.5v228h-417v-140q0 -106 -49 -151.5t-130 -45.5h-3v-121q0 -79 48 -126.5t131 -47.5zM603 194q50 0 83 22.5t49 57.5t16 73q0 39 -15.5 74t-49 57.5t-83.5 22.5q-41 0 -76 -18t-55.5 -52.5t-20.5 -80.5q0 -73 43.5 -114.5
t108.5 -41.5z" />
    <glyph glyph-name="uni0917" unicode="&#x917;" horiz-adv-x="727" 
d="M756 740v-54h-141v-686h-63v686h-192v-282q0 -73 -37.5 -119.5t-116.5 -46.5q-76 0 -115.5 45t-39.5 117q0 20 1 30h62v-31q0 -44 21.5 -74.5t69.5 -30.5q49 0 70 31t21 77v284h-325v54h785z" />
    <glyph glyph-name="uni0918" unicode="&#x918;" horiz-adv-x="714" 
d="M743 686h-140v-686h-65v236q-30 -60 -89 -93.5t-136 -33.5q-102 0 -164 47.5t-62 135.5q0 64 40.5 105t99.5 49v2q-55 8 -88.5 45.5t-33.5 108.5v84h-134v54h772v-54zM538 686h-369v-82q0 -65 35.5 -97.5t113.5 -32.5h49v-53h-54q-81 0 -121 -34.5t-40 -89.5
q0 -66 48 -100.5t126 -34.5q59 0 107.5 25.5t76.5 70.5t28 103v325z" />
    <glyph glyph-name="uni0919" unicode="&#x919;" horiz-adv-x="649" 
d="M678 740v-54h-213v-180h-174q-57 0 -96 -20.5t-39 -72.5q0 -48 33.5 -70.5t85.5 -22.5h45q86 0 145 -39.5t59 -127.5q0 -74 -53.5 -120t-153.5 -46q-74 0 -128.5 24.5t-83 68t-29.5 100.5h63q1 -63 46.5 -103t130.5 -40q72 0 110 32.5t38 83.5q0 65 -44 92.5t-111 27.5
h-42q-74 0 -124.5 34t-50.5 107t51.5 106t128.5 33h131v133h-432v54h707zM582 443q19 0 31.5 -12.5t12.5 -30.5q0 -19 -12.5 -31.5t-31.5 -12.5t-31.5 12.5t-12.5 31.5q0 18 12.5 30.5t31.5 12.5z" />
    <glyph glyph-name="uni091A" unicode="&#x91a;" horiz-adv-x="730" 
d="M759 686h-141v-686h-64v217q-28 -52 -79.5 -82.5t-117.5 -30.5q-59 0 -107.5 24t-77.5 70.5t-29 108.5q0 59 27.5 104t77.5 69h-198v51h361v-51h-33q-52 0 -91.5 -21.5t-61 -58.5t-21.5 -84q0 -74 48.5 -116t120.5 -42q52 0 93.5 25.5t64.5 68t23 93.5v341h-583v54h788
v-54z" />
    <glyph glyph-name="uni091B" unicode="&#x91b;" horiz-adv-x="815" 
d="M618 686v-134q66 -10 108 -63t42 -143q0 -97 -47 -169t-131 -110t-193 -38q-146 0 -233 56.5t-87 162.5q0 71 41 114t105 53v3q-54 8 -87.5 45.5t-33.5 108.5v114h-131v54h873v-54h-226zM558 686h-393v-112q0 -65 35 -97.5t111 -32.5h22v-53h-21q-86 0 -128.5 -38.5
t-42.5 -99.5q0 -82 69 -125.5t187 -43.5q91 0 162 32t111 91.5t40 140.5q0 51 -17.5 86.5t-45.5 53t-60 17.5q-46 0 -81 -31t-35 -95q0 -45 18 -96h-54q-19 50 -19 102q0 76 40 117.5t102 49.5v134z" />
    <glyph glyph-name="uni091C" unicode="&#x91c;" horiz-adv-x="835" 
d="M864 686h-140v-686h-64v447h-210v-112q0 -88 -50 -142t-136 -54t-134.5 54t-48.5 142v167h64v-167q0 -62 32 -100.5t88 -38.5t89.5 38.5t33.5 100.5v167h272v184h-689v54h893v-54z" />
    <glyph glyph-name="uni091D" unicode="&#x91d;" horiz-adv-x="844" 
d="M873 686h-141v-686h-63v271l-210 1q63 -42 63 -126q0 -66 -45 -108.5t-130 -42.5q-77 0 -120.5 31t-60.5 63v-164h-61v247h57q9 -55 52 -91.5t117 -36.5q65 0 98 31t33 78q0 56 -40 88t-114 32h-51q-73 2 -121 36.5t-48 103.5q0 74 52.5 107t130.5 33h131v133h-431v54
h902v-54zM669 320v366h-205v-180h-175q-58 0 -97.5 -20.5t-39.5 -73.5q0 -48 34 -70t88 -22h395z" />
    <glyph glyph-name="uni091E" unicode="&#x91e;" horiz-adv-x="803" 
d="M832 686h-141v-686h-63v309h-113q-5 -59 -32 -106.5t-76 -75.5t-116 -28q-93 0 -149 49t-68 119h61q13 -47 52.5 -80t104.5 -33q80 0 123 51.5t43 128.5q0 48 -19 88.5t-56.5 65t-90.5 24.5q-67 0 -106.5 -34t-50.5 -80h-61q12 71 67 120t150 49q98 0 156 -57.5
t67 -145.5h114v322h-657v54h861v-54z" />
    <glyph glyph-name="uni091F" unicode="&#x91f;" horiz-adv-x="651" 
d="M366 505q-101 0 -164.5 -52.5t-63.5 -152.5q0 -56 26 -100.5t72 -69.5t103 -25q59 0 104.5 26t71 72t25.5 105h61q0 -76 -32.5 -135t-91.5 -91.5t-137 -32.5q-76 0 -136.5 31.5t-95 88.5t-34.5 130q0 84 37 143t102 88.5t150 29.5h32v126h-424v54h709v-54h-223v-181h-91z
" />
    <glyph glyph-name="uni0920" unicode="&#x920;" horiz-adv-x="677" 
d="M369 686v-134q66 -7 119.5 -39.5t84 -87t30.5 -123.5q0 -73 -34.5 -130t-95 -88.5t-135.5 -31.5t-135 31.5t-94.5 88.5t-34.5 130q0 69 30.5 123.5t83 86.5t118.5 39v135h-335v54h735v-54h-337zM540 302q0 57 -26 101.5t-72 69.5t-104 25q-57 0 -102.5 -25t-71.5 -69.5
t-26 -101.5q0 -56 26 -101t71.5 -70t102.5 -25q58 0 104 25t72 70t26 101z" />
    <glyph glyph-name="uni0921" unicode="&#x921;" horiz-adv-x="577" 
d="M291 506q-57 0 -96 -20.5t-39 -72.5q0 -48 33.5 -70.5t85.5 -22.5h45q86 0 145 -39.5t59 -127.5q0 -74 -53.5 -120t-153.5 -46q-74 0 -128.5 24.5t-83 68t-29.5 100.5h63q1 -63 46.5 -103t130.5 -40q72 0 110 32.5t38 83.5q0 65 -44 92.5t-111 27.5h-42q-74 0 -124.5 34
t-50.5 107t51.5 106t128.5 33h125v133h-426v54h634v-54h-146v-180h-168z" />
    <glyph glyph-name="uni0922" unicode="&#x922;" horiz-adv-x="637" 
d="M387 516q-112 0 -181.5 -59t-69.5 -172q0 -65 29.5 -116t83 -79.5t122.5 -28.5q77 0 127 40.5t50 104.5q0 50 -31.5 82t-80.5 32q-42 0 -71.5 -27t-29.5 -71q0 -12 3 -20h-49q-3 14 -3 28q0 63 43.5 100.5t109.5 37.5q74 0 119.5 -45t45.5 -117q0 -57 -28.5 -101
t-82 -68.5t-123.5 -24.5q-84 0 -151.5 34t-106 96.5t-38.5 144.5q0 90 38.5 152t105 92.5t152.5 30.5h45v124h-444v54h695v-54h-190v-170h-89z" />
    <glyph glyph-name="uni0923" unicode="&#x923;" horiz-adv-x="845" 
d="M874 686h-141v-686h-63v686h-212v-298q0 -87 -48 -140.5t-135 -53.5q-85 0 -133 54t-48 140v298h-123v54h903v-54zM396 686h-240v-304q0 -59 32.5 -96.5t87.5 -37.5q56 0 88 37t32 97v304z" />
    <glyph glyph-name="uni0924" unicode="&#x924;" horiz-adv-x="690" 
d="M719 686h-141v-686h-63v444h-153q-104 0 -163.5 -49t-59.5 -146q0 -93 52.5 -144t150.5 -51h23v-52h-31q-120 0 -190 64t-70 184q0 125 77.5 187t208.5 62h155v187h-544v54h748v-54z" />
    <glyph glyph-name="uni0925" unicode="&#x925;" horiz-adv-x="759" 
d="M788 740v-54h-141v-686h-64v239q-21 -56 -80.5 -96t-148.5 -40q-126 0 -197.5 72.5t-71.5 197.5q0 23 3 47h101q91 0 151.5 33t60.5 117q0 53 -32.5 88.5t-87.5 35.5q-58 0 -91.5 -35t-33.5 -94q0 -15 4 -45h-58q-5 25 -5 48q0 82 51 131.5t133 49.5q54 0 95 -23.5
t63 -64.5t22 -92q0 -100 -69 -148.5t-182 -48.5q-47 0 -63 1v-7q0 -94 54.5 -151t160.5 -57q61 0 111.5 25.5t80 73t29.5 111.5v372h205z" />
    <glyph glyph-name="uni0926" unicode="&#x926;" horiz-adv-x="609" 
d="M345 513q-89 0 -147.5 -47t-58.5 -133q0 -79 47 -126t126 -47q38 0 73.5 16t59 49.5t23.5 82.5h59v-319h-63v206q-20 -39 -65.5 -63t-102.5 -24q-65 0 -115.5 27t-78.5 78.5t-28 120.5q0 76 35.5 129t95.5 79t135 26h82v118h-451v54h667l-1 -54h-152v-173h-140z" />
    <glyph glyph-name="uni0927" unicode="&#x927;" horiz-adv-x="707" 
d="M738 686h-140v-686h-63v236q-29 -62 -89 -97.5t-139 -35.5q-94 0 -154.5 45t-60.5 127q0 62 37 100.5t87 45.5v2q-55 13 -92.5 54t-37.5 110q0 71 46.5 116.5t120.5 45.5q75 0 118.5 -43t43.5 -113l-2 -31h-50l1 25q0 46 -29 77t-80 31q-52 0 -82.5 -32.5t-30.5 -81.5
q0 -61 42.5 -96t117.5 -35h56v-53h-54q-72 0 -109.5 -31.5t-37.5 -84.5q0 -61 46 -92.5t118 -31.5q60 0 108.5 27t77 75t28.5 110v371h203v-54z" />
    <glyph glyph-name="uni0928" unicode="&#x928;" horiz-adv-x="781" 
d="M810 686h-141v-686h-64v452h-217q30 -23 48 -59t18 -82q0 -54 -24.5 -95t-68 -63.5t-97.5 -22.5q-57 0 -102 23.5t-70.5 66t-25.5 97.5q0 58 26.5 100.5t72.5 65.5t105 23h335v180h-634v54h839v-54zM265 185q59 0 97.5 37.5t38.5 95.5t-38.5 96t-97.5 38
q-62 0 -101 -37.5t-39 -97.5q0 -59 38.5 -95.5t101.5 -36.5z" />
    <glyph glyph-name="uni092A" unicode="&#x92a;" horiz-adv-x="649" 
d="M678 686h-141v-686h-63v301q-24 -45 -68 -69.5t-105 -24.5q-104 0 -158 65.5t-54 179.5v234h-118v54h707v-54zM474 686h-321v-234q0 -91 40.5 -140.5t122.5 -49.5q74 0 116 47t42 117v260z" />
    <glyph glyph-name="uni092B" unicode="&#x92b;" horiz-adv-x="985" 
d="M518 686v-236q22 52 68.5 84t115.5 32q59 0 107 -28t75.5 -79t27.5 -118q0 -72 -27 -124.5t-75 -80t-108 -27.5q-36 0 -62 8v51q21 -6 48 -6q70 0 114.5 47.5t44.5 129.5q0 52 -21.5 91t-58.5 60t-82 21q-56 0 -94 -27t-55.5 -69.5t-17.5 -90.5v-324h-63v300
q-23 -44 -64.5 -68.5t-98.5 -24.5q-99 0 -151 64.5t-52 177.5v237h-118v54h1044v-54h-497zM455 686h-302v-237q0 -89 38 -138t115 -49q69 0 109 46.5t40 115.5v262z" />
    <glyph glyph-name="uni092C" unicode="&#x92c;" horiz-adv-x="689" 
d="M718 740v-54h-140v-686h-62v215q-25 -51 -76 -83t-123 -32q-67 0 -122.5 29t-88 83t-32.5 125t31.5 125.5t86.5 84t122 29.5q73 0 124.5 -33t77.5 -85v228h-545v54h747zM326 531q-80 0 -134 -48l289 -261q19 25 28.5 56t9.5 61q0 48 -22 92t-65.5 72t-105.5 28zM131 337
q0 -58 26.5 -101t71.5 -65.5t99 -22.5q81 0 133 50l-291 261q-39 -52 -39 -122z" />
    <glyph glyph-name="uni092D" unicode="&#x92d;" horiz-adv-x="780" 
d="M809 740v-54h-141v-686h-64v398h-175v-85q0 -98 -44.5 -150t-126.5 -52q-79 0 -127.5 47t-48.5 123q0 79 51.5 124.5t133.5 45.5h102v100q0 67 -25 104.5t-77 37.5q-45 0 -73 -30.5t-28 -84.5q0 -20 4 -40h-64q-4 28 -4 42q0 77 44 123t119 46q84 0 124 -55t40 -152v-91
h175v289h205zM369 398h-100q-57 0 -92 -31.5t-35 -85.5q0 -52 32.5 -83.5t82.5 -31.5q53 0 82.5 38t29.5 106v88z" />
    <glyph glyph-name="uni092E" unicode="&#x92e;" horiz-adv-x="771" 
d="M800 686h-141v-686h-64v398h-197v-85q0 -98 -45 -150t-128 -52q-79 0 -127 47t-48 123q0 79 51.5 124.5t133.5 45.5h103v235h-367v54h829v-54zM595 686h-197v-235h197v235zM338 398h-102q-56 0 -91 -31.5t-35 -85.5q0 -52 32.5 -83.5t82.5 -31.5q53 0 83 38t30 106v88z
" />
    <glyph glyph-name="uni092F" unicode="&#x92f;" horiz-adv-x="732" 
d="M761 686h-140v-686h-64v237q-28 -52 -84.5 -85t-137.5 -33q-124 0 -193.5 76t-69.5 206q0 23 3 44h15q91 0 139.5 37.5t48.5 128.5v75h-307v54h790v-54zM557 686h-216v-85q0 -99 -53 -145.5t-153 -48.5v-11q0 -103 56 -162.5t156 -59.5q58 0 106 24.5t76 69t28 102.5v316
z" />
    <glyph glyph-name="uni0930" unicode="&#x930;" horiz-adv-x="536" 
d="M151 349v-146q0 -71 32 -114t96 -43q59 0 93.5 39.5t34.5 105.5v17h62v-16q0 -92 -50.5 -146.5t-138.5 -54.5q-93 0 -142.5 59t-49.5 156v196h107q87 0 132.5 44.5t45.5 132.5v107h-402v54h594v-54h-128v-107q0 -112 -56.5 -171t-166.5 -59h-63z" />
    <glyph glyph-name="uni0931" unicode="&#x931;" horiz-adv-x="536" 
d="M151 349v-146q0 -71 32 -114t96 -43q59 0 93.5 39.5t34.5 105.5v17h62v-16q0 -92 -50.5 -146.5t-138.5 -54.5q-93 0 -142.5 59t-49.5 156v196h107q87 0 132.5 44.5t45.5 132.5v107h-402v54h594v-54h-128v-107q0 -112 -56.5 -171t-166.5 -59h-63zM164 -100
q0 -19 -13.5 -32t-33.5 -13t-33.5 13t-13.5 32q0 20 13.5 33.5t33.5 13.5t33.5 -13.5t13.5 -33.5z" />
    <glyph glyph-name="uni0932" unicode="&#x932;" horiz-adv-x="901" 
d="M670 686v-141q73 -14 115 -73.5t42 -149.5q0 -70 -26.5 -125t-79 -86.5t-127.5 -31.5q-9 0 -33 2v57q20 -2 29 -2q83 0 128 51t45 134q0 74 -36.5 122t-103.5 48q-71 0 -108 -53.5t-37 -146.5v-13h-55v13q0 92 -35 146t-103 54q-70 0 -108 -47t-38 -123q0 -83 45 -134
t127 -51q8 0 30 2v-57q-24 -2 -34 -2q-75 0 -127.5 31.5t-79 86.5t-26.5 125q0 103 55.5 164.5t148.5 61.5q74 0 116 -44.5t56 -108.5h2q14 59 51 101.5t104 50.5v139h-636v54h959v-54h-260z" />
    <glyph glyph-name="uni0933" unicode="&#x933;" horiz-adv-x="1007" 
d="M751 686v-132q81 -14 131.5 -74.5t50.5 -150.5q0 -65 -29 -115.5t-80 -79t-114 -28.5q-78 0 -133 41.5t-72 105.5h-3q-17 -64 -72 -105.5t-132 -41.5q-64 0 -115 28.5t-80 79t-29 115.5q0 68 29 119.5t80 80t114 28.5q78 0 130 -40t75 -104h3q20 59 66.5 98t116.5 45v130
h-717v54h1065v-54h-285zM305 162q74 0 120 46.5t46 120.5q0 76 -45.5 124t-120.5 48q-74 0 -121 -47.5t-47 -124.5q0 -49 22 -87t60 -59t86 -21zM870 329q0 51 -21.5 90t-59.5 60.5t-86 21.5q-75 0 -121 -48t-46 -124q0 -74 45.5 -120.5t120.5 -46.5q48 0 86 21t60 59t22 87
z" />
    <glyph glyph-name="uni0935" unicode="&#x935;" horiz-adv-x="676" 
d="M705 740v-54h-140v-686h-63v220q-25 -53 -75.5 -84.5t-122.5 -31.5q-67 0 -119 29t-81.5 82.5t-29.5 124.5q0 68 30 120.5t82.5 81t117.5 28.5q73 0 123 -31.5t75 -83.5v231h-531v54h734zM319 156q61 0 102 27t61 68t20 84v1q0 46 -19.5 87.5t-61 68t-102.5 26.5
q-50 0 -91.5 -22t-66 -62.5t-24.5 -94.5q0 -56 23.5 -97.5t65 -63.5t93.5 -22z" />
    <glyph glyph-name="uni0936" unicode="&#x936;" horiz-adv-x="803" 
d="M160 328v-120q0 -73 35 -117t105 -44q61 0 96.5 40.5t35.5 107.5v13h62v-14q0 -94 -51.5 -148t-140.5 -54q-99 0 -152.5 59.5t-53.5 160.5v171h148q87 0 142.5 41.5t55.5 120.5q0 69 -37.5 108.5t-101.5 39.5q-62 0 -99.5 -39.5t-37.5 -106.5q0 -23 3 -47h-63
q-5 27 -5 48q0 91 55 146t147 55t147.5 -55t55.5 -153q0 -102 -67.5 -157.5t-174.5 -55.5h-104zM832 740v-54h-141v-686h-64v740h205z" />
    <glyph glyph-name="uni0937" unicode="&#x937;" horiz-adv-x="654" 
d="M683 686h-141v-686h-63v299q-24 -46 -68 -71t-107 -25q-105 0 -160 66.5t-55 182.5v234h-118v54h712v-54zM479 686h-328l328 -275v275zM316 258q59 0 98.5 29.5t55.5 77.5l-319 268v-183q0 -91 41 -141.5t124 -50.5z" />
    <glyph glyph-name="uni0938" unicode="&#x938;" horiz-adv-x="817" 
d="M846 686h-141v-686h-64v363h-490v-160q0 -71 32.5 -114t96.5 -43q60 0 94.5 40t34.5 105v11h62v-14q0 -90 -51 -143.5t-139 -53.5q-94 0 -143.5 59t-49.5 157v204h98q86 0 132 47.5t46 129.5v98h-393v54h875v-54zM641 686h-214v-98q0 -59 -20 -103t-56 -70h290v271z" />
    <glyph glyph-name="uni0939" unicode="&#x939;" horiz-adv-x="586" 
d="M285 509q-52 0 -85.5 -21.5t-33.5 -67.5q0 -35 22.5 -59t60.5 -35q27 6 59 6q95 0 149.5 -46.5t67.5 -112.5h-62q-10 43 -50.5 75t-105.5 32q-78 0 -121.5 -47t-43.5 -117q0 -71 43.5 -117.5t121.5 -46.5q63 0 103.5 32t52.5 74h62q-8 -42 -36 -78.5t-74 -59t-108 -22.5
q-73 0 -124.5 29t-77.5 78.5t-26 111.5q0 64 29.5 114t83.5 76q-39 16 -64 46.5t-25 76.5q0 63 45 94.5t118 31.5h143v130h-438v54h644v-54h-144v-177h-186z" />
    <glyph glyph-name="uni093C" unicode="&#x93c;" horiz-adv-x="0" 
d="M-332 -72q0 -19 -13.5 -32t-33.5 -13t-33.5 13t-13.5 32q0 20 13.5 33.5t33.5 13.5t33.5 -13.5t13.5 -33.5z" />
    <glyph glyph-name="uni093D" unicode="&#x93d;" horiz-adv-x="571" 
d="M81 65v55h232q44 0 68 20t24 50q0 36 -29 69t-89 85q-48 41 -77.5 70t-50.5 66t-21 77q0 60 40.5 87.5t105.5 27.5h197v-55h-183q-44 0 -69.5 -14.5t-25.5 -53.5q0 -38 30 -73t90 -85q47 -41 76 -70t49.5 -64.5t20.5 -74.5q0 -50 -36.5 -83.5t-105.5 -33.5h-246z" />
    <glyph glyph-name="uni093E" unicode="&#x93e;" 
d="M112 0v686h-141v54h345v-54h-141v-686h-63z" />
    <glyph glyph-name="uni093F" unicode="&#x93f;" 
d="M487 987q99 0 184.5 -26t138.5 -81t53 -139v-17h-64v16q0 70 -47 113.5t-118 62t-147 18.5q-129 0 -220 -42.5t-92 -151.5h141v-54h-141v-686h-63v686h-141v54h141q1 130 108.5 188.5t266.5 58.5z" />
    <glyph glyph-name="uni0940" unicode="&#x940;" 
d="M316 740v-54h-141v-686h-63v686h-141v54h142v43q0 65 -25.5 107.5t-86.5 42.5t-87.5 -42.5t-26.5 -107.5v-59h-62v57q0 93 42.5 149.5t133.5 56.5q92 0 133 -56t41 -150v-41h141z" />
    <glyph glyph-name="uni0941" unicode="&#x941;" horiz-adv-x="0" 
d="M-1 -125q0 -77 -51.5 -120.5t-141.5 -43.5q-99 0 -160 49.5t-61 141.5v12h57v-12q0 -67 44 -103.5t119 -36.5q63 0 100.5 29.5t37.5 83.5q0 41 -26 70t-71 29h-21v51h21q72 0 112.5 -42.5t40.5 -107.5z" />
    <glyph glyph-name="uni0942" unicode="&#x942;" horiz-adv-x="0" 
d="M-134 -281q-26 -2 -38 -2q-69 0 -113.5 39.5t-44.5 109.5q0 72 50.5 114.5t133.5 42.5q112 0 175 -73.5t63 -197.5q0 -19 -1 -28h-53v35q0 100 -50.5 157.5t-131.5 57.5q-61 0 -97 -29.5t-36 -79.5q0 -45 30.5 -72t77.5 -27q9 0 35 2v-49z" />
    <glyph glyph-name="uni0943" unicode="&#x943;" horiz-adv-x="0" 
d="M-58 -291q-15 -5 -37 -8.5t-42 -3.5q-77 0 -130 40.5t-53 122.5q0 72 48 118t133 46q21 0 27 -1v-45h-23q-58 0 -90.5 -33t-32.5 -83q0 -58 36 -85.5t93 -27.5q36 0 71 11v-51z" />
    <glyph glyph-name="uni0944" unicode="&#x944;" horiz-adv-x="0" 
d="M-43 -421q-18 -7 -47 -12t-58 -5q-69 0 -115 31.5t-46 94.5q0 44 25 72.5t63 37.5v2q-40 10 -64 36.5t-24 70.5q0 60 41.5 88.5t99.5 28.5h56v-39h-36q-43 0 -71.5 -19.5t-28.5 -61.5q0 -40 29.5 -60t75.5 -20h44v-48h-45q-45 0 -74.5 -19.5t-29.5 -63.5
q0 -41 30.5 -60.5t78.5 -19.5q26 0 53 5t43 11v-50z" />
    <glyph glyph-name="uni0945" unicode="&#x945;" horiz-adv-x="0" 
d="M47 987q0 -44 -21 -82t-65 -61.5t-108 -23.5t-108 23.5t-65 61.5t-21 82h56q0 -47 35 -82.5t103 -35.5q46 0 77.5 17t46.5 44t15 57h55z" />
    <glyph glyph-name="uni0947" unicode="&#x947;" horiz-adv-x="0" 
d="M-173 736q-55 88 -90.5 126.5t-68 49.5t-88.5 11h-38v53h37q71 0 112 -14t86 -64t111 -162h-61z" />
    <glyph glyph-name="uni0948" unicode="&#x948;" horiz-adv-x="0" 
d="M-423 1033q71 0 110 -16t84 -77t117 -203h-55q-61 51 -97 72t-68 27t-91 6h-40v43h39q57 0 88.5 -5t66 -23.5t84.5 -61.5q-50 91 -85.5 132t-67 51.5t-84.5 10.5h-41v44h40z" />
    <glyph glyph-name="uni0949" unicode="&#x949;" 
d="M338 987q0 -44 -21 -82t-65 -61.5t-108 -23.5t-108 23.5t-65 61.5t-21 82h56q0 -47 35 -82.5t103 -35.5q46 0 77.5 17t46.5 44t15 57h55zM112 0v686h-141v54h345v-54h-141v-686h-63z" />
    <glyph glyph-name="uni094B" unicode="&#x94b;" 
d="M316 740v-54h-141v-686h-63v686h-141v54h140q-54 86 -89 123.5t-67 48.5t-88 11h-38v53h37q70 0 111 -14t86 -63t110 -159h143z" />
    <glyph glyph-name="uni094C" unicode="&#x94c;" 
d="M316 740v-54h-141v-686h-63v686h-141v54h143q-59 49 -94.5 70t-67 26.5t-90.5 5.5h-40v43h39q57 0 88.5 -5t66 -23.5t84.5 -61.5q-50 91 -85.5 132t-67 51.5t-84.5 10.5h-41v44h40q71 0 110 -16t83.5 -76.5t115.5 -200.5h145z" />
    <glyph glyph-name="uni094D" unicode="&#x94d;" horiz-adv-x="0" 
d="M-53 -255l-119 193h64l122 -193h-67z" />
    <glyph glyph-name="uni0950" unicode="&#x950;" horiz-adv-x="1052" 
d="M580 910q-16 0 -26.5 10.5t-10.5 25.5q0 16 10.5 26.5t26.5 10.5t26 -10.5t10 -26.5q0 -15 -10 -25.5t-26 -10.5zM579 749q-63 0 -106.5 23t-65 61t-21.5 83h52q0 -30 15.5 -57t47.5 -44.5t78 -17.5t78 17.5t48 44.5t16 57h52q0 -45 -21.5 -83t-65.5 -61t-107 -23z
M773 687q101 0 145 -62.5t44 -184.5v-141q0 -136 -59.5 -204t-190.5 -68q-38 0 -98 10v54q53 -8 88 -8q109 0 153 53.5t44 164.5v146q0 92 -28.5 139t-97.5 47q-64 0 -93 -38t-29 -100q0 -93 -41.5 -133t-128.5 -40h-10q32 -47 32 -110q0 -90 -55.5 -144.5t-146.5 -54.5
q-63 0 -112.5 25.5t-77.5 71t-28 104.5h60q0 -64 43.5 -105t110.5 -41t107 41t40 108q0 58 -38 100.5t-115 42.5h-38v55h38q46 0 78 18.5t47.5 48.5t15.5 63q0 63 -40.5 100.5t-99.5 37.5q-61 0 -101 -34.5t-40 -92.5h-61q0 55 26.5 96.5t72.5 63.5t104 22q57 0 102 -23
t70.5 -64.5t25.5 -96.5q0 -63 -32 -106.5t-95 -56.5v-2q24 -4 48 -16h60q59 0 89 27.5t30 94.5q0 192 182 192z" />
    <glyph glyph-name="uni0958" unicode="&#x958;" horiz-adv-x="1002" 
d="M537 686v-236q22 52 67.5 84t113.5 32q60 0 107.5 -28.5t75 -79.5t27.5 -118q0 -71 -27 -123.5t-74.5 -80t-107.5 -27.5q-31 0 -61 7v52q18 -5 46 -5q70 0 115 47t45 129q0 52 -21.5 91t-59 60t-82.5 21q-55 0 -92 -26.5t-54.5 -68t-17.5 -86.5v-330h-61v221
q-22 -51 -70 -83t-117 -32q-62 0 -111 28.5t-76.5 81t-27.5 123.5q0 68 28 119.5t77.5 79.5t111.5 28q70 0 116 -31t69 -82v233h-505v54h1060v-54h-494zM307 161q56 0 94 26t56.5 66.5t18.5 81.5v1q0 44 -18 84t-56 65.5t-95 25.5q-46 0 -84.5 -21t-61 -60.5t-22.5 -91.5
q0 -82 47.5 -129.5t120.5 -47.5zM325 -27q0 -19 -13.5 -32t-33.5 -13t-33.5 13t-13.5 32q0 20 13.5 33.5t33.5 13.5t33.5 -13.5t13.5 -33.5z" />
    <glyph glyph-name="uni0959" unicode="&#x959;" horiz-adv-x="926" 
d="M955 740v-54h-141v-686h-63v236q-21 -42 -61 -67.5t-98 -25.5q-24 0 -41 4q-28 -66 -85 -107.5t-137 -41.5q-110 0 -175.5 63t-65.5 174v162h38q66 0 105.5 34t39.5 122v133h-300v54h984zM331 54q61 0 103.5 30.5t63.5 79.5q-49 24 -77 72t-28 114q0 60 26 105.5
t71.5 70.5t101.5 25q58 0 98 -25.5t61 -67.5v228h-417v-140q0 -106 -49 -151.5t-130 -45.5h-3v-121q0 -79 48 -126.5t131 -47.5zM603 194q50 0 83 22.5t49 57.5t16 73q0 39 -15.5 74t-49 57.5t-83.5 22.5q-41 0 -76 -18t-55.5 -52.5t-20.5 -80.5q0 -73 43.5 -114.5
t108.5 -41.5zM360 -134q0 -19 -13.5 -32t-33.5 -13t-33.5 13t-13.5 32q0 20 13.5 33.5t33.5 13.5t33.5 -13.5t13.5 -33.5z" />
    <glyph glyph-name="uni095A" unicode="&#x95a;" horiz-adv-x="727" 
d="M756 740v-54h-141v-686h-63v686h-192v-282q0 -73 -37.5 -119.5t-116.5 -46.5q-76 0 -115.5 45t-39.5 117q0 20 1 30h62v-31q0 -44 21.5 -74.5t69.5 -30.5q49 0 70 31t21 77v284h-325v54h785zM259 100q0 -19 -13.5 -32t-33.5 -13t-33.5 13t-13.5 32q0 20 13.5 33.5
t33.5 13.5t33.5 -13.5t13.5 -33.5z" />
    <glyph glyph-name="uni095B" unicode="&#x95b;" horiz-adv-x="835" 
d="M864 686h-140v-686h-64v447h-210v-112q0 -88 -50 -142t-136 -54t-134.5 54t-48.5 142v167h64v-167q0 -62 32 -100.5t88 -38.5t89.5 38.5t33.5 100.5v167h272v184h-689v54h893v-54zM316 6q0 -19 -13.5 -32t-33.5 -13t-33.5 13t-13.5 32q0 20 13.5 33.5t33.5 13.5
t33.5 -13.5t13.5 -33.5z" />
    <glyph glyph-name="uni095C" unicode="&#x95c;" horiz-adv-x="577" 
d="M291 506q-57 0 -96 -20.5t-39 -72.5q0 -48 33.5 -70.5t85.5 -22.5h45q86 0 145 -39.5t59 -127.5q0 -74 -53.5 -120t-153.5 -46q-74 0 -128.5 24.5t-83 68t-29.5 100.5h63q1 -63 46.5 -103t130.5 -40q72 0 110 32.5t38 83.5q0 65 -44 92.5t-111 27.5h-42q-74 0 -124.5 34
t-50.5 107t51.5 106t128.5 33h125v133h-426v54h634v-54h-146v-180h-168zM359 -146q0 -19 -13.5 -32t-33.5 -13t-33.5 13t-13.5 32q0 20 13.5 33.5t33.5 13.5t33.5 -13.5t13.5 -33.5z" />
    <glyph glyph-name="uni095D" unicode="&#x95d;" horiz-adv-x="637" 
d="M387 516q-112 0 -181.5 -59t-69.5 -172q0 -65 29.5 -116t83 -79.5t122.5 -28.5q77 0 127 40.5t50 104.5q0 50 -31.5 82t-80.5 32q-42 0 -71.5 -27t-29.5 -71q0 -12 3 -20h-49q-3 14 -3 28q0 63 43.5 100.5t109.5 37.5q74 0 119.5 -45t45.5 -117q0 -57 -28.5 -101
t-82 -68.5t-123.5 -24.5q-84 0 -151.5 34t-106 96.5t-38.5 144.5q0 90 38.5 152t105 92.5t152.5 30.5h45v124h-444v54h695v-54h-190v-170h-89zM391 -120q0 -19 -13.5 -32t-33.5 -13t-33.5 13t-13.5 32q0 20 13.5 33.5t33.5 13.5t33.5 -13.5t13.5 -33.5z" />
    <glyph glyph-name="uni095E" unicode="&#x95e;" horiz-adv-x="985" 
d="M518 686v-236q22 52 68.5 84t115.5 32q59 0 107 -28t75.5 -79t27.5 -118q0 -72 -27 -124.5t-75 -80t-108 -27.5q-36 0 -62 8v51q21 -6 48 -6q70 0 114.5 47.5t44.5 129.5q0 52 -21.5 91t-58.5 60t-82 21q-56 0 -94 -27t-55.5 -69.5t-17.5 -90.5v-324h-63v300
q-23 -44 -64.5 -68.5t-98.5 -24.5q-99 0 -151 64.5t-52 177.5v237h-118v54h1044v-54h-497zM455 686h-302v-237q0 -89 38 -138t115 -49q69 0 109 46.5t40 115.5v262zM315 76q0 -19 -13.5 -32t-33.5 -13t-33.5 13t-13.5 32q0 20 13.5 33.5t33.5 13.5t33.5 -13.5t13.5 -33.5z
" />
    <glyph glyph-name="uni0960" unicode="&#x960;" horiz-adv-x="965" 
d="M564 686v-251h187q90 0 90 80v64h57v-356h-42q-43 0 -71 -19t-28 -62q0 -40 29 -59.5t76 -19.5h43v-49h-46q-44 0 -73.5 -19t-29.5 -63q0 -41 30.5 -60.5t78.5 -19.5q26 0 52.5 5t43.5 11v-50q-18 -7 -47 -12t-57 -5q-70 0 -116 31t-46 94q0 44 25 73t63 37v3
q-40 9 -64 36t-24 70q0 60 41 88.5t95 28.5h4h6v147q-37 -27 -98 -27h-179v-382h-60v305l-296 -305h-79v5l375 368q-10 65 -57 106t-117 41q-56 0 -99.5 -24.5t-68 -69.5t-24.5 -105h-64q0 76 30.5 133.5t84.5 89t124 31.5q67 0 115.5 -28.5t75.5 -78.5v218h-533v54h1072
v-54h-479z" />
    <glyph glyph-name="uni0961" unicode="&#x961;" horiz-adv-x="907" 
d="M663 686v-138q75 -11 118 -71.5t43 -153.5q0 -56 -16 -100h-39q-43 0 -71 -19t-28 -62q0 -40 29 -59.5t76 -19.5h43v-49h-46q-45 0 -74 -19t-29 -63q0 -41 30.5 -60.5t78.5 -19.5q26 0 53 5t43 11v-50q-18 -7 -47 -12t-57 -5q-70 0 -116 31.5t-46 94.5q0 44 25 72.5
t63 36.5v3q-40 9 -64 36t-24 70q0 60 41 88.5t99 28.5h6q7 27 7 62q0 73 -36 121t-102 48q-71 0 -108 -53.5t-37 -146.5v-15h-55v15q0 91 -35 145.5t-103 54.5q-70 0 -108 -47t-38 -123q0 -84 44.5 -135t127.5 -51q8 0 30 2v-56q-24 -2 -34 -2q-112 0 -172.5 67t-60.5 175
q0 104 55.5 165.5t148.5 61.5q73 0 115.5 -45.5t55.5 -108.5h3q12 57 48.5 100t100.5 52v138h-630v54h960v-54h-268z" />
    <glyph glyph-name="uni0962" unicode="&#x962;" horiz-adv-x="0" 
d="M108 -417q27 0 42 6v-43q-24 -6 -47 -6q-58 0 -96.5 30.5t-38.5 87.5q0 47 29.5 79t77.5 37q4 17 4 40q0 53 -24.5 86.5t-72.5 33.5q-49 0 -75 -38.5t-26 -102.5v-11h-44v11q0 64 -25 102.5t-72 38.5q-50 0 -76.5 -33.5t-26.5 -87.5q0 -58 31.5 -93.5t89.5 -35.5
q11 0 21 2v-45q-7 -1 -24 -1q-81 0 -125 48t-44 126q0 76 40 120.5t107 44.5q54 0 84 -32t40 -78h2q11 46 42.5 78t88.5 32q64 0 102.5 -45t38.5 -120q0 -36 -11 -72h-6q-46 0 -71 -22.5t-25 -57.5q0 -39 26 -59t64 -20z" />
    <glyph glyph-name="uni0963" unicode="&#x963;" horiz-adv-x="0" 
d="M97 -524q19 0 38 3.5t31 8.5v-40q-13 -5 -34 -8.5t-42 -3.5q-51 0 -84 22.5t-33 69.5q0 32 18 52.5t45 26.5v2q-30 7 -46.5 27t-16.5 52q0 44 29.5 65.5t71.5 21.5h1q4 17 4 39q0 53 -24.5 86.5t-72.5 33.5q-49 0 -75 -38.5t-26 -102.5v-11h-44v11q0 64 -25 102.5
t-72 38.5q-50 0 -76.5 -33.5t-26.5 -87.5q0 -58 31.5 -93.5t89.5 -35.5q11 0 21 2v-45q-7 -1 -24 -1q-81 0 -125 48t-44 126q0 76 40 120.5t107 44.5q54 0 84 -32t40 -78h2q11 46 42.5 78t88.5 32q64 0 102.5 -45t38.5 -120q0 -36 -11 -72h-30q-30 0 -49.5 -13t-19.5 -43
q0 -29 20.5 -43t53.5 -14h30v-40h-30q-32 0 -53.5 -13t-21.5 -44q0 -28 22 -42t55 -14z" />
    <glyph glyph-name="uni0964" unicode="&#x964;" horiz-adv-x="266" 
d="M222 741v-741h-63v741h63z" />
    <glyph glyph-name="uni0965" unicode="&#x965;" horiz-adv-x="460" 
d="M222 741v-741h-63v741h63zM416 741v-741h-63v741h63z" />
    <glyph glyph-name="uni0966" unicode="&#x966;" horiz-adv-x="616" 
d="M65 365q0 172 53 267t190 95t190 -95t53 -267q0 -175 -53 -271t-190 -96q-138 0 -190.5 96t-52.5 271zM482 365q0 93 -13 157t-51 103t-110 39t-110 -39t-51 -103t-13 -157q0 -96 13 -160.5t51 -103.5t110 -39t110 39t51 103.5t13 160.5z" />
    <glyph glyph-name="uni0967" unicode="&#x967;" horiz-adv-x="292" 
d="M31 654v63h170v-717h-71v654h-99z" />
    <glyph glyph-name="uni0968" unicode="&#x968;" horiz-adv-x="572" 
d="M51 55q184 138 284.5 247.5t100.5 214.5q0 69 -34.5 110.5t-112.5 41.5q-76 0 -117.5 -47.5t-46.5 -126.5h-68q6 111 68.5 172.5t163.5 61.5q97 0 157 -54.5t60 -154.5q0 -121 -100.5 -234.5t-247.5 -221.5h370v-59h-477v50z" />
    <glyph glyph-name="uni0969" unicode="&#x969;" horiz-adv-x="585" 
d="M62 534q7 91 70.5 143.5t164.5 52.5q67 0 115 -24t72.5 -65.5t24.5 -93.5q0 -63 -37 -109t-105 -57v-5q71 -14 113 -61.5t42 -124.5q0 -86 -57.5 -140.5t-166.5 -54.5q-104 0 -171 54.5t-77 154.5h68q9 -67 56 -108.5t124 -41.5q76 0 116.5 40t40.5 102q0 152 -219 152
h-22v59h23q204 0 204 133q0 58 -38 93.5t-108 35.5q-68 0 -112.5 -35.5t-52.5 -99.5h-68z" />
    <glyph glyph-name="uni096A" unicode="&#x96a;" horiz-adv-x="613" 
d="M34 170v53l364 490h83v-482h107v-61h-107v-170h-69v170h-378zM415 636l-300 -405h300v405z" />
    <glyph glyph-name="uni096B" unicode="&#x96b;" horiz-adv-x="617" 
d="M517 657h-366v-256q25 35 73 57.5t104 22.5q82 0 134 -33.5t75 -87t23 -114.5q0 -70 -26.5 -126.5t-81 -89.5t-135.5 -33q-103 0 -167 53.5t-78 144.5h69q13 -66 60 -102t116 -36q87 0 131.5 51.5t44.5 136.5q0 83 -45 129.5t-129 46.5q-58 0 -102 -27t-65 -73h-66v397
h431v-61z" />
    <glyph glyph-name="uni096C" unicode="&#x96c;" horiz-adv-x="629" 
d="M477 542q-22 130 -151 130q-98 0 -145 -73t-47 -226v-26q20 60 76.5 94.5t129.5 34.5q105 0 166.5 -64.5t61.5 -177.5q0 -66 -25.5 -119.5t-78 -85.5t-130.5 -32q-149 0 -205.5 95t-56.5 269q0 370 254 370q96 0 151 -52.5t65 -136.5h-65zM327 416q-47 0 -89 -19
t-68.5 -57.5t-26.5 -94.5q0 -81 48 -135t140 -54q77 0 123 47t46 128q0 87 -45 136t-128 49z" />
    <glyph glyph-name="uni096D" unicode="&#x96d;" horiz-adv-x="533" 
d="M494 662l-279 -662h-71l282 656h-400v60h468v-54z" />
    <glyph glyph-name="uni096E" unicode="&#x96e;" horiz-adv-x="624" 
d="M204 372q-62 20 -94.5 63t-32.5 104q0 54 27.5 96.5t80.5 67t127 24.5t127 -24.5t80.5 -67t27.5 -96.5q0 -60 -32.5 -104t-94.5 -63q68 -17 107 -65t39 -117q0 -64 -31.5 -111.5t-89 -73.5t-133.5 -26t-133.5 26t-89 73.5t-31.5 111.5q0 69 39 117t107 65zM479 531
q0 66 -45 102t-122 36t-122 -35.5t-45 -102.5q0 -62 46 -99t121 -37t121 37t46 99zM312 341q-82 0 -134 -37t-52 -112q0 -72 50 -113t136 -41q85 0 135 41.5t50 112.5q0 74 -51.5 111.5t-133.5 37.5z" />
    <glyph glyph-name="uni096F" unicode="&#x96f;" horiz-adv-x="625" 
d="M158 191q11 -65 50 -100t107 -35q94 0 137.5 70.5t43.5 219.5v27q-19 -55 -72.5 -86.5t-122.5 -31.5q-105 0 -168.5 63t-63.5 175q0 67 26 121t79 85t130 31q142 0 198 -92.5t56 -265.5q0 -187 -55.5 -281t-190.5 -94q-99 0 -154 53.5t-65 140.5h65zM312 315
q47 0 86.5 19.5t63.5 57.5t24 91q0 82 -46.5 135t-133.5 53q-77 0 -123.5 -48t-46.5 -128q0 -84 46 -132t130 -48z" />
    <glyph glyph-name="uni0970" unicode="&#x970;" horiz-adv-x="498" 
d="M251 512q72 0 117 -45t45 -116q0 -70 -45 -114.5t-117 -44.5q-48 0 -86 20.5t-59 57t-21 82.5q0 70 46.5 115t119.5 45zM251 470q-54 0 -89 -33t-35 -85t35 -85t89 -33q53 0 86 32.5t33 84.5t-33.5 85.5t-85.5 33.5z" />
    <glyph glyph-name="uni0972" unicode="&#x972;" horiz-adv-x="826" 
d="M883 1011q0 -44 -21 -82t-65 -61.5t-108 -23.5t-108 23.5t-65 61.5t-21 82h56q0 -47 35 -82.5t103 -35.5q46 0 77.5 17t46.5 44t15 57h55zM853 740v-54h-141v-686h-63v344l-181 1q29 -46 29 -102q0 -86 -55 -138.5t-146 -52.5q-63 0 -113 25.5t-78 71t-28 104.5h61
q0 -64 43 -105t111 -41q67 0 106.5 39t39.5 103q0 26 -9 51.5t-27 44.5h-2l-1 2q-41 41 -114 41h-37v53h37q46 0 78 17.5t47.5 45.5t15.5 59q0 60 -39.5 95.5t-97.5 35.5q-62 0 -103 -34.5t-41 -92.5h-60q0 55 26.5 96.5t72.5 63.5t105 22q86 0 140.5 -48.5t54.5 -127.5
q0 -59 -32 -100.5t-94 -55.5v-2q29 -5 52 -17h239v342h204z" />
    <glyph glyph-name="Wgrave" unicode="&#x1e80;" horiz-adv-x="955" 
d="M512 796v-54l-205 119v63zM928 699l-198 -699h-78l-176 596l-180 -596l-76 -1l-194 700h75l160 -613l179 613h78l174 -613l161 613h75z" />
    <glyph glyph-name="wgrave" unicode="&#x1e81;" horiz-adv-x="815" 
d="M437 642v-54l-205 119v63zM800 546l-171 -546h-70l-151 458l-151 -458h-71l-171 546h71l136 -475l153 475h70l151 -476l135 476h69z" />
    <glyph glyph-name="Wacute" unicode="&#x1e82;" horiz-adv-x="955" 
d="M649 864l-205 -119v54l205 128v-63zM928 699l-198 -699h-78l-176 596l-180 -596l-76 -1l-194 700h75l160 -613l179 613h78l174 -613l161 613h75z" />
    <glyph glyph-name="wacute" unicode="&#x1e83;" horiz-adv-x="815" 
d="M581 707l-205 -119v54l205 128v-63zM800 546l-171 -546h-70l-151 458l-151 -458h-71l-171 546h71l136 -475l153 475h70l151 -476l135 476h69z" />
    <glyph glyph-name="Wdieresis" unicode="&#x1e84;" horiz-adv-x="955" 
d="M398 778q-19 0 -32.5 13.5t-13.5 32.5t13.5 32.5t32.5 13.5t32.5 -13.5t13.5 -32.5t-13.5 -32.5t-32.5 -13.5zM552 778q-19 0 -32.5 13.5t-13.5 32.5t13.5 32.5t32.5 13.5t32 -13.5t13 -32.5t-13 -32.5t-32 -13.5zM928 699l-198 -699h-78l-176 596l-180 -596l-76 -1
l-194 700h75l160 -613l179 613h78l174 -613l161 613h75z" />
    <glyph glyph-name="wdieresis" unicode="&#x1e85;" horiz-adv-x="815" 
d="M331 623q-19 0 -32.5 13.5t-13.5 32.5t13.5 32.5t32.5 13.5t32.5 -13.5t13.5 -32.5t-13.5 -32.5t-32.5 -13.5zM485 623q-19 0 -32.5 13.5t-13.5 32.5t13.5 32.5t32.5 13.5t32 -13.5t13 -32.5t-13 -32.5t-32 -13.5zM800 546l-171 -546h-70l-151 458l-151 -458h-71
l-171 546h71l136 -475l153 475h70l151 -476l135 476h69z" />
    <glyph glyph-name="uni1EA0" unicode="&#x1ea0;" horiz-adv-x="652" 
d="M485 166h-318l-61 -166h-74l255 690h79l254 -690h-74zM464 224l-138 378l-138 -378h276zM277 -131q0 20 13 35.5t37 15.5q22 0 35.5 -13.5t13.5 -36.5q0 -25 -15 -37t-35 -12q-22 0 -35.5 13t-13.5 35z" />
    <glyph glyph-name="uni1EA1" unicode="&#x1ea1;" horiz-adv-x="675" 
d="M48 274q0 84 33.5 147.5t93 98t134.5 34.5q78 0 134.5 -36t81.5 -92v120h70v-546h-70v121q-26 -56 -82.5 -92.5t-134.5 -36.5q-74 0 -133.5 35t-93 99t-33.5 148zM525 273q0 66 -27 116t-73.5 77t-102.5 27q-58 0 -104 -26t-72.5 -75.5t-26.5 -117.5q0 -67 26.5 -117.5
t72.5 -77t104 -26.5q56 0 102.5 27t73.5 77t27 116zM288 -131q0 20 13 35.5t37 15.5q22 0 35.5 -13.5t13.5 -36.5q0 -25 -15 -37t-35 -12q-22 0 -35.5 13t-13.5 35z" />
    <glyph glyph-name="uni1EA2" unicode="&#x1ea2;" horiz-adv-x="652" 
d="M485 166h-318l-61 -166h-74l255 690h79l254 -690h-74zM464 224l-138 378l-138 -378h276zM330 790q7 7 13.5 16.5t8.5 20.5t-1 18t-10 11t-16.5 5.5t-19.5 1.5q-15 0 -30 -3t-30 -7l-16 61q21 4 42 5.5t42 1.5q17 0 36.5 -2.5t36 -9t27.5 -19.5t11 -34q0 -14 -6 -27
t-16 -24.5t-21 -21.5t-22 -19z" />
    <glyph glyph-name="uni1EA3" unicode="&#x1ea3;" horiz-adv-x="675" 
d="M48 274q0 84 33.5 147.5t93 98t134.5 34.5q78 0 134.5 -36t81.5 -92v120h70v-546h-70v121q-26 -56 -82.5 -92.5t-134.5 -36.5q-74 0 -133.5 35t-93 99t-33.5 148zM525 273q0 66 -27 116t-73.5 77t-102.5 27q-58 0 -104 -26t-72.5 -75.5t-26.5 -117.5q0 -67 26.5 -117.5
t72.5 -77t104 -26.5q56 0 102.5 27t73.5 77t27 116zM341 636q7 7 13.5 16.5t8.5 20.5t-1 18t-10 11t-16.5 5.5t-19.5 1.5q-15 0 -30 -3t-30 -7l-16 61q21 4 42 5.5t42 1.5q17 0 36.5 -2.5t36 -9t27.5 -19.5t11 -34q0 -14 -6 -27t-16 -24.5t-21 -21.5t-22 -19z" />
    <glyph glyph-name="uni1EA4" unicode="&#x1ea4;" horiz-adv-x="652" 
d="M485 166h-318l-61 -166h-74l255 690h79l254 -690h-74zM464 224l-138 378l-138 -378h276zM408 941l93 146l62 -55l-109 -122zM184 764l-10 53l151 98l157 -98l-10 -53l-147 62z" />
    <glyph glyph-name="uni1EA5" unicode="&#x1ea5;" horiz-adv-x="675" 
d="M48 274q0 84 33.5 147.5t93 98t134.5 34.5q78 0 134.5 -36t81.5 -92v120h70v-546h-70v121q-26 -56 -82.5 -92.5t-134.5 -36.5q-74 0 -133.5 35t-93 99t-33.5 148zM525 273q0 66 -27 116t-73.5 77t-102.5 27q-58 0 -104 -26t-72.5 -75.5t-26.5 -117.5q0 -67 26.5 -117.5
t72.5 -77t104 -26.5q56 0 102.5 27t73.5 77t27 116zM420 787l93 146l62 -55l-109 -122zM196 610l-10 53l151 98l157 -98l-10 -53l-147 62z" />
    <glyph glyph-name="uni1EA6" unicode="&#x1ea6;" horiz-adv-x="652" 
d="M303 1008l45 69l139 -112l-29 -40zM184 764l-10 53l151 98l157 -98l-10 -53l-147 62zM485 166h-318l-61 -166h-74l255 690h79l254 -690h-74zM464 224l-138 378l-138 -378h276z" />
    <glyph glyph-name="uni1EA7" unicode="&#x1ea7;" horiz-adv-x="675" 
d="M48 274q0 84 33.5 147.5t93 98t134.5 34.5q78 0 134.5 -36t81.5 -92v120h70v-546h-70v121q-26 -56 -82.5 -92.5t-134.5 -36.5q-74 0 -133.5 35t-93 99t-33.5 148zM525 273q0 66 -27 116t-73.5 77t-102.5 27q-58 0 -104 -26t-72.5 -75.5t-26.5 -117.5q0 -67 26.5 -117.5
t72.5 -77t104 -26.5q56 0 102.5 27t73.5 77t27 116zM315 854l45 69l139 -112l-29 -40zM196 610l-10 53l151 98l157 -98l-10 -53l-147 62z" />
    <glyph glyph-name="uni1EA8" unicode="&#x1ea8;" horiz-adv-x="652" 
d="M485 166h-318l-61 -166h-74l255 690h79l254 -690h-74zM464 224l-138 378l-138 -378h276zM406 940q7 7 13.5 16.5t8.5 20.5t-1 18t-10 11t-16.5 5.5t-19.5 1.5q-15 0 -30 -3t-30 -7l-16 61q21 4 42 5.5t42 1.5q17 0 36.5 -2.5t36 -9t27.5 -19.5t11 -34q0 -14 -6 -27
t-16 -24.5t-21 -21.5t-22 -19zM184 764l-10 53l151 98l157 -98l-10 -53l-147 62z" />
    <glyph glyph-name="uni1EA9" unicode="&#x1ea9;" horiz-adv-x="675" 
d="M48 274q0 84 33.5 147.5t93 98t134.5 34.5q78 0 134.5 -36t81.5 -92v120h70v-546h-70v121q-26 -56 -82.5 -92.5t-134.5 -36.5q-74 0 -133.5 35t-93 99t-33.5 148zM525 273q0 66 -27 116t-73.5 77t-102.5 27q-58 0 -104 -26t-72.5 -75.5t-26.5 -117.5q0 -67 26.5 -117.5
t72.5 -77t104 -26.5q56 0 102.5 27t73.5 77t27 116zM418 786q7 7 13.5 16.5t8.5 20.5t-1 18t-10 11t-16.5 5.5t-19.5 1.5q-15 0 -30 -3t-30 -7l-16 61q21 4 42 5.5t42 1.5q17 0 36.5 -2.5t36 -9t27.5 -19.5t11 -34q0 -14 -6 -27t-16 -24.5t-21 -21.5t-22 -19zM196 610
l-10 53l151 98l157 -98l-10 -53l-147 62z" />
    <glyph glyph-name="uni1EAA" unicode="&#x1eaa;" horiz-adv-x="652" 
d="M485 166h-318l-61 -166h-74l255 690h79l254 -690h-74zM464 224l-138 378l-138 -378h276zM173 959q2 14 7.5 31t15.5 32t24 25.5t33 10.5q15 0 31 -5t32.5 -11t34.5 -12t37 -8q40 -5 46 36l50 -4q-3 -16 -9 -34t-15.5 -33t-23 -24.5t-32.5 -9.5q-16 0 -31.5 6t-31.5 13.5
t-32.5 13.5t-35.5 6q-17 0 -30 -11t-18 -29zM184 764l-10 53l151 98l157 -98l-10 -53l-147 62z" />
    <glyph glyph-name="uni1EAB" unicode="&#x1eab;" horiz-adv-x="675" 
d="M48 274q0 84 33.5 147.5t93 98t134.5 34.5q78 0 134.5 -36t81.5 -92v120h70v-546h-70v121q-26 -56 -82.5 -92.5t-134.5 -36.5q-74 0 -133.5 35t-93 99t-33.5 148zM525 273q0 66 -27 116t-73.5 77t-102.5 27q-58 0 -104 -26t-72.5 -75.5t-26.5 -117.5q0 -67 26.5 -117.5
t72.5 -77t104 -26.5q56 0 102.5 27t73.5 77t27 116zM185 805q2 14 7.5 31t15.5 32t24 25.5t33 10.5q15 0 31 -5t32.5 -11t34.5 -12t37 -8q40 -5 46 36l50 -4q-3 -16 -9 -34t-15.5 -33t-23 -24.5t-32.5 -9.5q-16 0 -31.5 6t-31.5 13.5t-32.5 13.5t-35.5 6q-17 0 -30 -11
t-18 -29zM196 610l-10 53l151 98l157 -98l-10 -53l-147 62z" />
    <glyph glyph-name="uni1EAC" unicode="&#x1eac;" horiz-adv-x="652" 
d="M485 166h-318l-61 -166h-74l255 690h79l254 -690h-74zM464 224l-138 378l-138 -378h276zM277 -131q0 20 13 35.5t37 15.5q22 0 35.5 -13.5t13.5 -36.5q0 -25 -15 -37t-35 -12q-22 0 -35.5 13t-13.5 35zM182 764l-10 53l151 98l157 -98l-10 -53l-147 62z" />
    <glyph glyph-name="uni1EAD" unicode="&#x1ead;" horiz-adv-x="675" 
d="M48 274q0 84 33.5 147.5t93 98t134.5 34.5q78 0 134.5 -36t81.5 -92v120h70v-546h-70v121q-26 -56 -82.5 -92.5t-134.5 -36.5q-74 0 -133.5 35t-93 99t-33.5 148zM525 273q0 66 -27 116t-73.5 77t-102.5 27q-58 0 -104 -26t-72.5 -75.5t-26.5 -117.5q0 -67 26.5 -117.5
t72.5 -77t104 -26.5q56 0 102.5 27t73.5 77t27 116zM288 -131q0 20 13 35.5t37 15.5q22 0 35.5 -13.5t13.5 -36.5q0 -25 -15 -37t-35 -12q-22 0 -35.5 13t-13.5 35zM194 610l-10 53l151 98l157 -98l-10 -53l-147 62z" />
    <glyph glyph-name="uni1EAE" unicode="&#x1eae;" horiz-adv-x="652" 
d="M485 166h-318l-61 -166h-74l255 690h79l254 -690h-74zM464 224l-138 378l-138 -378h276zM273 940l108 151l65 -53l-131 -129zM233 894q3 -15 12.5 -26.5t22.5 -20t28 -12.5t30 -4t29.5 4.5t27.5 12.5t22 19.5t12 26.5h65q-12 -66 -52.5 -99.5t-105.5 -33.5
q-63 0 -100 35.5t-48 97.5h57z" />
    <glyph glyph-name="uni1EAF" unicode="&#x1eaf;" horiz-adv-x="675" 
d="M48 274q0 84 33.5 147.5t93 98t134.5 34.5q78 0 134.5 -36t81.5 -92v120h70v-546h-70v121q-26 -56 -82.5 -92.5t-134.5 -36.5q-74 0 -133.5 35t-93 99t-33.5 148zM525 273q0 66 -27 116t-73.5 77t-102.5 27q-58 0 -104 -26t-72.5 -75.5t-26.5 -117.5q0 -67 26.5 -117.5
t72.5 -77t104 -26.5q56 0 102.5 27t73.5 77t27 116zM285 786l108 151l65 -53l-131 -129zM245 740q3 -15 12.5 -26.5t22.5 -20t28 -12.5t30 -4t29.5 4.5t27.5 12.5t22 19.5t12 26.5h65q-12 -66 -52.5 -99.5t-105.5 -33.5q-63 0 -100 35.5t-48 97.5h57z" />
    <glyph glyph-name="uni1EB0" unicode="&#x1eb0;" horiz-adv-x="652" 
d="M379 957l-31 -37l-137 96l45 62zM233 894q3 -15 12.5 -26.5t22.5 -20t28 -12.5t30 -4t29.5 4.5t27.5 12.5t22 19.5t12 26.5h65q-12 -66 -52.5 -99.5t-105.5 -33.5q-63 0 -100 35.5t-48 97.5h57zM485 166h-318l-61 -166h-74l255 690h79l254 -690h-74zM464 224l-138 378
l-138 -378h276z" />
    <glyph glyph-name="uni1EB1" unicode="&#x1eb1;" horiz-adv-x="675" 
d="M48 274q0 84 33.5 147.5t93 98t134.5 34.5q78 0 134.5 -36t81.5 -92v120h70v-546h-70v121q-26 -56 -82.5 -92.5t-134.5 -36.5q-74 0 -133.5 35t-93 99t-33.5 148zM525 273q0 66 -27 116t-73.5 77t-102.5 27q-58 0 -104 -26t-72.5 -75.5t-26.5 -117.5q0 -67 26.5 -117.5
t72.5 -77t104 -26.5q56 0 102.5 27t73.5 77t27 116zM391 803l-31 -37l-137 96l45 62zM245 740q3 -15 12.5 -26.5t22.5 -20t28 -12.5t30 -4t29.5 4.5t27.5 12.5t22 19.5t12 26.5h65q-12 -66 -52.5 -99.5t-105.5 -33.5q-63 0 -100 35.5t-48 97.5h57z" />
    <glyph glyph-name="uni1EB2" unicode="&#x1eb2;" horiz-adv-x="652" 
d="M485 166h-318l-61 -166h-74l255 690h79l254 -690h-74zM464 224l-138 378l-138 -378h276zM323 940q7 7 13.5 16.5t8.5 20.5t-1 18t-10 11t-16.5 5.5t-19.5 1.5q-15 0 -30 -3t-30 -7l-16 61q21 4 42 5.5t42 1.5q17 0 36.5 -2.5t36 -9t27.5 -19.5t11 -34q0 -14 -6 -27
t-16 -24.5t-21 -21.5t-22 -19zM233 894q3 -15 12.5 -26.5t22.5 -20t28 -12.5t30 -4t29.5 4.5t27.5 12.5t22 19.5t12 26.5h65q-12 -66 -52.5 -99.5t-105.5 -33.5q-63 0 -100 35.5t-48 97.5h57z" />
    <glyph glyph-name="uni1EB3" unicode="&#x1eb3;" horiz-adv-x="675" 
d="M48 274q0 84 33.5 147.5t93 98t134.5 34.5q78 0 134.5 -36t81.5 -92v120h70v-546h-70v121q-26 -56 -82.5 -92.5t-134.5 -36.5q-74 0 -133.5 35t-93 99t-33.5 148zM525 273q0 66 -27 116t-73.5 77t-102.5 27q-58 0 -104 -26t-72.5 -75.5t-26.5 -117.5q0 -67 26.5 -117.5
t72.5 -77t104 -26.5q56 0 102.5 27t73.5 77t27 116zM335 786q7 7 13.5 16.5t8.5 20.5t-1 18t-10 11t-16.5 5.5t-19.5 1.5q-15 0 -30 -3t-30 -7l-16 61q21 4 42 5.5t42 1.5q17 0 36.5 -2.5t36 -9t27.5 -19.5t11 -34q0 -14 -6 -27t-16 -24.5t-21 -21.5t-22 -19zM245 740
q3 -15 12.5 -26.5t22.5 -20t28 -12.5t30 -4t29.5 4.5t27.5 12.5t22 19.5t12 26.5h65q-12 -66 -52.5 -99.5t-105.5 -33.5q-63 0 -100 35.5t-48 97.5h57z" />
    <glyph glyph-name="uni1EB4" unicode="&#x1eb4;" horiz-adv-x="652" 
d="M184 960q2 14 7 31t14.5 32t23 25.5t31.5 10.5q15 0 30 -5t30.5 -11t32.5 -12t35 -8q38 -5 44 36l47 -4q-3 -16 -8.5 -34t-14.5 -33t-22 -24.5t-31 -9.5q-16 0 -30.5 6t-29.5 13.5t-30.5 13.5t-33.5 6q-16 0 -28.5 -11t-17.5 -29zM233 894q3 -15 12.5 -26.5t22.5 -20
t28 -12.5t30 -4t29.5 4.5t27.5 12.5t22 19.5t12 26.5h65q-12 -66 -52.5 -99.5t-105.5 -33.5q-63 0 -100 35.5t-48 97.5h57zM485 166h-318l-61 -166h-74l255 690h79l254 -690h-74zM464 224l-138 378l-138 -378h276z" />
    <glyph glyph-name="uni1EB5" unicode="&#x1eb5;" horiz-adv-x="675" 
d="M48 274q0 84 33.5 147.5t93 98t134.5 34.5q78 0 134.5 -36t81.5 -92v120h70v-546h-70v121q-26 -56 -82.5 -92.5t-134.5 -36.5q-74 0 -133.5 35t-93 99t-33.5 148zM525 273q0 66 -27 116t-73.5 77t-102.5 27q-58 0 -104 -26t-72.5 -75.5t-26.5 -117.5q0 -67 26.5 -117.5
t72.5 -77t104 -26.5q56 0 102.5 27t73.5 77t27 116zM196 806q2 14 7 31t14.5 32t23 25.5t31.5 10.5q15 0 30 -5t30.5 -11t32.5 -12t35 -8q38 -5 44 36l47 -4q-3 -16 -8.5 -34t-14.5 -33t-22 -24.5t-31 -9.5q-16 0 -30.5 6t-29.5 13.5t-30.5 13.5t-33.5 6q-16 0 -28.5 -11
t-17.5 -29zM245 740q3 -15 12.5 -26.5t22.5 -20t28 -12.5t30 -4t29.5 4.5t27.5 12.5t22 19.5t12 26.5h65q-12 -66 -52.5 -99.5t-105.5 -33.5q-63 0 -100 35.5t-48 97.5h57z" />
    <glyph glyph-name="uni1EB6" unicode="&#x1eb6;" horiz-adv-x="652" 
d="M485 166h-318l-61 -166h-74l255 690h79l254 -690h-74zM464 224l-138 378l-138 -378h276zM277 -131q0 20 13 35.5t37 15.5q22 0 35.5 -13.5t13.5 -36.5q0 -25 -15 -37t-35 -12q-22 0 -35.5 13t-13.5 35zM230 894q3 -15 12.5 -26.5t22.5 -20t28 -12.5t30 -4t29.5 4.5
t27.5 12.5t22 19.5t12 26.5h65q-12 -66 -52.5 -99.5t-105.5 -33.5q-63 0 -100 35.5t-48 97.5h57z" />
    <glyph glyph-name="uni1EB7" unicode="&#x1eb7;" horiz-adv-x="675" 
d="M48 274q0 84 33.5 147.5t93 98t134.5 34.5q78 0 134.5 -36t81.5 -92v120h70v-546h-70v121q-26 -56 -82.5 -92.5t-134.5 -36.5q-74 0 -133.5 35t-93 99t-33.5 148zM525 273q0 66 -27 116t-73.5 77t-102.5 27q-58 0 -104 -26t-72.5 -75.5t-26.5 -117.5q0 -67 26.5 -117.5
t72.5 -77t104 -26.5q56 0 102.5 27t73.5 77t27 116zM288 -131q0 20 13 35.5t37 15.5q22 0 35.5 -13.5t13.5 -36.5q0 -25 -15 -37t-35 -12q-22 0 -35.5 13t-13.5 35zM242 740q3 -15 12.5 -26.5t22.5 -20t28 -12.5t30 -4t29.5 4.5t27.5 12.5t22 19.5t12 26.5h65
q-12 -66 -52.5 -99.5t-105.5 -33.5q-63 0 -100 35.5t-48 97.5h57z" />
    <glyph glyph-name="uni1EB8" unicode="&#x1eb8;" horiz-adv-x="503" 
d="M150 642v-261h265v-58h-265v-265h295v-58h-365v700h365v-58h-295zM202 -131q0 20 13 35.5t37 15.5q22 0 35.5 -13.5t13.5 -36.5q0 -25 -15 -37t-35 -12q-22 0 -35.5 13t-13.5 35z" />
    <glyph glyph-name="uni1EB9" unicode="&#x1eb9;" horiz-adv-x="622" 
d="M574 301q0 -36 -2 -55h-453q3 -62 30 -106t71 -66.5t96 -22.5q68 0 114.5 33t61.5 89h74q-20 -80 -85.5 -130.5t-164.5 -50.5q-77 0 -138 34.5t-95.5 98t-34.5 148.5t34 149t95 98t139 34t136.5 -34t90 -91.5t31.5 -127.5zM503 303v5q0 58 -25 100t-69 64t-96 22
q-78 0 -133 -50t-61 -141h384zM262 -131q0 20 13 35.5t37 15.5q22 0 35.5 -13.5t13.5 -36.5q0 -25 -15 -37t-35 -12q-22 0 -35.5 13t-13.5 35z" />
    <glyph glyph-name="uni1EBA" unicode="&#x1eba;" horiz-adv-x="503" 
d="M150 642v-261h265v-58h-265v-265h295v-58h-365v700h365v-58h-295zM255 790q7 7 13.5 16.5t8.5 20.5t-1 18t-10 11t-16.5 5.5t-19.5 1.5q-15 0 -30 -3t-30 -7l-16 61q21 4 42 5.5t42 1.5q17 0 36.5 -2.5t36 -9t27.5 -19.5t11 -34q0 -14 -6 -27t-16 -24.5t-21 -21.5
t-22 -19z" />
    <glyph glyph-name="uni1EBB" unicode="&#x1ebb;" horiz-adv-x="622" 
d="M574 301q0 -36 -2 -55h-453q3 -62 30 -106t71 -66.5t96 -22.5q68 0 114.5 33t61.5 89h74q-20 -80 -85.5 -130.5t-164.5 -50.5q-77 0 -138 34.5t-95.5 98t-34.5 148.5t34 149t95 98t139 34t136.5 -34t90 -91.5t31.5 -127.5zM503 303v5q0 58 -25 100t-69 64t-96 22
q-78 0 -133 -50t-61 -141h384zM315 636q7 7 13.5 16.5t8.5 20.5t-1 18t-10 11t-16.5 5.5t-19.5 1.5q-15 0 -30 -3t-30 -7l-16 61q21 4 42 5.5t42 1.5q17 0 36.5 -2.5t36 -9t27.5 -19.5t11 -34q0 -14 -6 -27t-16 -24.5t-21 -21.5t-22 -19z" />
    <glyph glyph-name="uni1EBC" unicode="&#x1ebc;" horiz-adv-x="503" 
d="M150 642v-261h265v-58h-265v-265h295v-58h-365v700h365v-58h-295zM104 791q2 14 7 31t14.5 32t23 25.5t31.5 10.5q15 0 30 -5t30.5 -11t32.5 -12t35 -8q38 -5 44 36l47 -4q-3 -16 -8.5 -34t-14.5 -33t-22 -24.5t-31 -9.5q-16 0 -30.5 6t-29.5 13.5t-30.5 13.5t-33.5 6
q-16 0 -28.5 -11t-17.5 -29z" />
    <glyph glyph-name="uni1EBD" unicode="&#x1ebd;" horiz-adv-x="622" 
d="M574 301q0 -36 -2 -55h-453q3 -62 30 -106t71 -66.5t96 -22.5q68 0 114.5 33t61.5 89h74q-20 -80 -85.5 -130.5t-164.5 -50.5q-77 0 -138 34.5t-95.5 98t-34.5 148.5t34 149t95 98t139 34t136.5 -34t90 -91.5t31.5 -127.5zM503 303v5q0 58 -25 100t-69 64t-96 22
q-78 0 -133 -50t-61 -141h384zM165 637q2 14 7 31t14.5 32t23 25.5t31.5 10.5q15 0 30 -5t30.5 -11t32.5 -12t35 -8q38 -5 44 36l47 -4q-3 -16 -8.5 -34t-14.5 -33t-22 -24.5t-31 -9.5q-16 0 -30.5 6t-29.5 13.5t-30.5 13.5t-33.5 6q-16 0 -28.5 -11t-17.5 -29z" />
    <glyph glyph-name="uni1EBE" unicode="&#x1ebe;" horiz-adv-x="503" 
d="M150 642v-261h265v-58h-265v-265h295v-58h-365v700h365v-58h-295zM334 941l93 146l62 -55l-109 -122zM110 764l-10 53l151 98l157 -98l-10 -53l-147 62z" />
    <glyph glyph-name="uni1EBF" unicode="&#x1ebf;" horiz-adv-x="622" 
d="M394 787l93 146l62 -55l-109 -122zM170 610l-10 53l151 98l157 -98l-10 -53l-147 62zM574 301q0 -36 -2 -55h-453q3 -62 30 -106t71 -66.5t96 -22.5q68 0 114.5 33t61.5 89h74q-20 -80 -85.5 -130.5t-164.5 -50.5q-77 0 -138 34.5t-95.5 98t-34.5 148.5t34 149t95 98
t139 34t136.5 -34t90 -91.5t31.5 -127.5zM503 303v5q0 58 -25 100t-69 64t-96 22q-78 0 -133 -50t-61 -141h384z" />
    <glyph glyph-name="uni1EC0" unicode="&#x1ec0;" horiz-adv-x="503" 
d="M229 1008l45 69l139 -112l-29 -40zM110 764l-10 53l151 98l157 -98l-10 -53l-147 62zM150 642v-261h265v-58h-265v-265h295v-58h-365v700h365v-58h-295z" />
    <glyph glyph-name="uni1EC1" unicode="&#x1ec1;" horiz-adv-x="622" 
d="M289 854l45 69l139 -112l-29 -40zM170 610l-10 53l151 98l157 -98l-10 -53l-147 62zM574 301q0 -36 -2 -55h-453q3 -62 30 -106t71 -66.5t96 -22.5q68 0 114.5 33t61.5 89h74q-20 -80 -85.5 -130.5t-164.5 -50.5q-77 0 -138 34.5t-95.5 98t-34.5 148.5t34 149t95 98
t139 34t136.5 -34t90 -91.5t31.5 -127.5zM503 303v5q0 58 -25 100t-69 64t-96 22q-78 0 -133 -50t-61 -141h384z" />
    <glyph glyph-name="uni1EC2" unicode="&#x1ec2;" horiz-adv-x="503" 
d="M150 642v-261h265v-58h-265v-265h295v-58h-365v700h365v-58h-295zM332 940q7 7 13.5 16.5t8.5 20.5t-1 18t-10 11t-16.5 5.5t-19.5 1.5q-15 0 -30 -3t-30 -7l-16 61q21 4 42 5.5t42 1.5q17 0 36.5 -2.5t36 -9t27.5 -19.5t11 -34q0 -14 -6 -27t-16 -24.5t-21 -21.5
t-22 -19zM110 764l-10 53l151 98l157 -98l-10 -53l-147 62z" />
    <glyph glyph-name="uni1EC3" unicode="&#x1ec3;" horiz-adv-x="622" 
d="M574 301q0 -36 -2 -55h-453q3 -62 30 -106t71 -66.5t96 -22.5q68 0 114.5 33t61.5 89h74q-20 -80 -85.5 -130.5t-164.5 -50.5q-77 0 -138 34.5t-95.5 98t-34.5 148.5t34 149t95 98t139 34t136.5 -34t90 -91.5t31.5 -127.5zM503 303v5q0 58 -25 100t-69 64t-96 22
q-78 0 -133 -50t-61 -141h384zM392 786q7 7 13.5 16.5t8.5 20.5t-1 18t-10 11t-16.5 5.5t-19.5 1.5q-15 0 -30 -3t-30 -7l-16 61q21 4 42 5.5t42 1.5q17 0 36.5 -2.5t36 -9t27.5 -19.5t11 -34q0 -14 -6 -27t-16 -24.5t-21 -21.5t-22 -19zM170 610l-10 53l151 98l157 -98
l-10 -53l-147 62z" />
    <glyph glyph-name="uni1EC4" unicode="&#x1ec4;" horiz-adv-x="503" 
d="M99 959q2 14 7.5 31t15.5 32t24 25.5t33 10.5q15 0 31 -5t32.5 -11t34.5 -12t37 -8q40 -5 46 36l50 -4q-3 -16 -9 -34t-15.5 -33t-23 -24.5t-32.5 -9.5q-16 0 -31.5 6t-31.5 13.5t-32.5 13.5t-35.5 6q-17 0 -30 -11t-18 -29zM110 764l-10 53l151 98l157 -98l-10 -53
l-147 62zM150 642v-261h265v-58h-265v-265h295v-58h-365v700h365v-58h-295z" />
    <glyph glyph-name="uni1EC5" unicode="&#x1ec5;" horiz-adv-x="622" 
d="M574 301q0 -36 -2 -55h-453q3 -62 30 -106t71 -66.5t96 -22.5q68 0 114.5 33t61.5 89h74q-20 -80 -85.5 -130.5t-164.5 -50.5q-77 0 -138 34.5t-95.5 98t-34.5 148.5t34 149t95 98t139 34t136.5 -34t90 -91.5t31.5 -127.5zM503 303v5q0 58 -25 100t-69 64t-96 22
q-78 0 -133 -50t-61 -141h384zM159 805q2 14 7.5 31t15.5 32t24 25.5t33 10.5q15 0 31 -5t32.5 -11t34.5 -12t37 -8q40 -5 46 36l50 -4q-3 -16 -9 -34t-15.5 -33t-23 -24.5t-32.5 -9.5q-16 0 -31.5 6t-31.5 13.5t-32.5 13.5t-35.5 6q-17 0 -30 -11t-18 -29zM170 610l-10 53
l151 98l157 -98l-10 -53l-147 62z" />
    <glyph glyph-name="uni1EC6" unicode="&#x1ec6;" horiz-adv-x="503" 
d="M150 642v-261h265v-58h-265v-265h295v-58h-365v700h365v-58h-295zM202 -131q0 20 13 35.5t37 15.5q22 0 35.5 -13.5t13.5 -36.5q0 -25 -15 -37t-35 -12q-22 0 -35.5 13t-13.5 35zM108 764l-10 53l151 98l157 -98l-10 -53l-147 62z" />
    <glyph glyph-name="uni1EC7" unicode="&#x1ec7;" horiz-adv-x="622" 
d="M574 301q0 -36 -2 -55h-453q3 -62 30 -106t71 -66.5t96 -22.5q68 0 114.5 33t61.5 89h74q-20 -80 -85.5 -130.5t-164.5 -50.5q-77 0 -138 34.5t-95.5 98t-34.5 148.5t34 149t95 98t139 34t136.5 -34t90 -91.5t31.5 -127.5zM503 303v5q0 58 -25 100t-69 64t-96 22
q-78 0 -133 -50t-61 -141h384zM262 -131q0 20 13 35.5t37 15.5q22 0 35.5 -13.5t13.5 -36.5q0 -25 -15 -37t-35 -12q-22 0 -35.5 13t-13.5 35zM168 610l-10 53l151 98l157 -98l-10 -53l-147 62z" />
    <glyph glyph-name="uni1EC8" unicode="&#x1ec8;" horiz-adv-x="229" 
d="M150 699v-699h-70v699h70zM118 790q7 7 13.5 16.5t8.5 20.5t-1 18t-10 11t-16.5 5.5t-19.5 1.5q-15 0 -30 -3t-30 -7l-16 61q21 4 42 5.5t42 1.5q17 0 36.5 -2.5t36 -9t27.5 -19.5t11 -34q0 -14 -6 -27t-16 -24.5t-21 -21.5t-22 -19z" />
    <glyph glyph-name="uni1EC9" unicode="&#x1ec9;" horiz-adv-x="229" 
d="M150 546v-546h-70v546h70zM118 636q7 7 13.5 16.5t8.5 20.5t-1 18t-10 11t-16.5 5.5t-19.5 1.5q-15 0 -30 -3t-30 -7l-16 61q21 4 42 5.5t42 1.5q17 0 36.5 -2.5t36 -9t27.5 -19.5t11 -34q0 -14 -6 -27t-16 -24.5t-21 -21.5t-22 -19z" />
    <glyph glyph-name="uni1ECA" unicode="&#x1eca;" horiz-adv-x="229" 
d="M150 699v-699h-70v699h70zM65 -131q0 20 13 35.5t37 15.5q22 0 35.5 -13.5t13.5 -36.5q0 -25 -15 -37t-35 -12q-22 0 -35.5 13t-13.5 35z" />
    <glyph glyph-name="uni1ECB" unicode="&#x1ecb;" horiz-adv-x="229" 
d="M115 649q-21 0 -36 15t-15 37t15 36.5t36 14.5t36 -14.5t15 -36.5t-15 -37t-36 -15zM150 546v-546h-70v546h70zM65 -131q0 20 13 35.5t37 15.5q22 0 35.5 -13.5t13.5 -36.5q0 -25 -15 -37t-35 -12q-22 0 -35.5 13t-13.5 35z" />
    <glyph glyph-name="uni1ECC" unicode="&#x1ecc;" horiz-adv-x="788" 
d="M394 -7q-97 0 -176 45.5t-124.5 127t-45.5 184.5t45.5 184.5t124.5 127t176 45.5q98 0 177 -45.5t124 -127t45 -184.5t-45 -184.5t-124 -127t-177 -45.5zM394 54q78 0 140 36t98 103.5t36 156.5t-36 156t-98 103t-140 36t-140 -36t-98 -103t-36 -156t36 -156.5t98 -103.5
t140 -36zM345 -131q0 20 13 35.5t37 15.5q22 0 35.5 -13.5t13.5 -36.5q0 -25 -15 -37t-35 -12q-22 0 -35.5 13t-13.5 35z" />
    <glyph glyph-name="uni1ECD" unicode="&#x1ecd;" horiz-adv-x="642" 
d="M319 -8q-77 0 -138.5 34.5t-97 98t-35.5 148.5t36 148.5t98 98t139 34.5t139.5 -34.5t98 -98t35.5 -148.5q0 -84 -36 -148t-99 -98.5t-140 -34.5zM319 53q54 0 100 24.5t74.5 74t28.5 121.5t-28 121.5t-74 74t-100 24.5t-100 -24.5t-73.5 -74t-27.5 -121.5t27.5 -121.5
t73 -74t99.5 -24.5zM272 -131q0 20 13 35.5t37 15.5q22 0 35.5 -13.5t13.5 -36.5q0 -25 -15 -37t-35 -12q-22 0 -35.5 13t-13.5 35z" />
    <glyph glyph-name="uni1ECE" unicode="&#x1ece;" horiz-adv-x="788" 
d="M394 -7q-97 0 -176 45.5t-124.5 127t-45.5 184.5t45.5 184.5t124.5 127t176 45.5q98 0 177 -45.5t124 -127t45 -184.5t-45 -184.5t-124 -127t-177 -45.5zM394 54q78 0 140 36t98 103.5t36 156.5t-36 156t-98 103t-140 36t-140 -36t-98 -103t-36 -156t36 -156.5t98 -103.5
t140 -36zM398 790q7 7 13.5 16.5t8.5 20.5t-1 18t-10 11t-16.5 5.5t-19.5 1.5q-15 0 -30 -3t-30 -7l-16 61q21 4 42 5.5t42 1.5q17 0 36.5 -2.5t36 -9t27.5 -19.5t11 -34q0 -14 -6 -27t-16 -24.5t-21 -21.5t-22 -19z" />
    <glyph glyph-name="uni1ECF" unicode="&#x1ecf;" horiz-adv-x="642" 
d="M319 -8q-77 0 -138.5 34.5t-97 98t-35.5 148.5t36 148.5t98 98t139 34.5t139.5 -34.5t98 -98t35.5 -148.5q0 -84 -36 -148t-99 -98.5t-140 -34.5zM319 53q54 0 100 24.5t74.5 74t28.5 121.5t-28 121.5t-74 74t-100 24.5t-100 -24.5t-73.5 -74t-27.5 -121.5t27.5 -121.5
t73 -74t99.5 -24.5zM325 636q7 7 13.5 16.5t8.5 20.5t-1 18t-10 11t-16.5 5.5t-19.5 1.5q-15 0 -30 -3t-30 -7l-16 61q21 4 42 5.5t42 1.5q17 0 36.5 -2.5t36 -9t27.5 -19.5t11 -34q0 -14 -6 -27t-16 -24.5t-21 -21.5t-22 -19z" />
    <glyph glyph-name="uni1ED0" unicode="&#x1ed0;" horiz-adv-x="788" 
d="M394 -7q-97 0 -176 45.5t-124.5 127t-45.5 184.5t45.5 184.5t124.5 127t176 45.5q98 0 177 -45.5t124 -127t45 -184.5t-45 -184.5t-124 -127t-177 -45.5zM394 54q78 0 140 36t98 103.5t36 156.5t-36 156t-98 103t-140 36t-140 -36t-98 -103t-36 -156t36 -156.5t98 -103.5
t140 -36zM476 941l93 146l62 -55l-109 -122zM252 764l-10 53l151 98l157 -98l-10 -53l-147 62z" />
    <glyph glyph-name="uni1ED1" unicode="&#x1ed1;" horiz-adv-x="642" 
d="M404 787l93 146l62 -55l-109 -122zM180 610l-10 53l151 98l157 -98l-10 -53l-147 62zM319 -8q-77 0 -138.5 34.5t-97 98t-35.5 148.5t36 148.5t98 98t139 34.5t139.5 -34.5t98 -98t35.5 -148.5q0 -84 -36 -148t-99 -98.5t-140 -34.5zM319 53q54 0 100 24.5t74.5 74
t28.5 121.5t-28 121.5t-74 74t-100 24.5t-100 -24.5t-73.5 -74t-27.5 -121.5t27.5 -121.5t73 -74t99.5 -24.5z" />
    <glyph glyph-name="uni1ED2" unicode="&#x1ed2;" horiz-adv-x="788" 
d="M394 -7q-97 0 -176 45.5t-124.5 127t-45.5 184.5t45.5 184.5t124.5 127t176 45.5q98 0 177 -45.5t124 -127t45 -184.5t-45 -184.5t-124 -127t-177 -45.5zM394 54q78 0 140 36t98 103.5t36 156.5t-36 156t-98 103t-140 36t-140 -36t-98 -103t-36 -156t36 -156.5t98 -103.5
t140 -36zM371 1008l45 69l139 -112l-29 -40zM252 764l-10 53l151 98l157 -98l-10 -53l-147 62z" />
    <glyph glyph-name="uni1ED3" unicode="&#x1ed3;" horiz-adv-x="642" 
d="M299 854l45 69l139 -112l-29 -40zM180 610l-10 53l151 98l157 -98l-10 -53l-147 62zM319 -8q-77 0 -138.5 34.5t-97 98t-35.5 148.5t36 148.5t98 98t139 34.5t139.5 -34.5t98 -98t35.5 -148.5q0 -84 -36 -148t-99 -98.5t-140 -34.5zM319 53q54 0 100 24.5t74.5 74
t28.5 121.5t-28 121.5t-74 74t-100 24.5t-100 -24.5t-73.5 -74t-27.5 -121.5t27.5 -121.5t73 -74t99.5 -24.5z" />
    <glyph glyph-name="uni1ED4" unicode="&#x1ed4;" horiz-adv-x="788" 
d="M474 940q7 7 13.5 16.5t8.5 20.5t-1 18t-10 11t-16.5 5.5t-19.5 1.5q-15 0 -30 -3t-30 -7l-16 61q21 4 42 5.5t42 1.5q17 0 36.5 -2.5t36 -9t27.5 -19.5t11 -34q0 -14 -6 -27t-16 -24.5t-21 -21.5t-22 -19zM252 764l-10 53l151 98l157 -98l-10 -53l-147 62zM394 -7
q-97 0 -176 45.5t-124.5 127t-45.5 184.5t45.5 184.5t124.5 127t176 45.5q98 0 177 -45.5t124 -127t45 -184.5t-45 -184.5t-124 -127t-177 -45.5zM394 54q78 0 140 36t98 103.5t36 156.5t-36 156t-98 103t-140 36t-140 -36t-98 -103t-36 -156t36 -156.5t98 -103.5t140 -36z
" />
    <glyph glyph-name="uni1ED5" unicode="&#x1ed5;" horiz-adv-x="642" 
d="M319 -8q-77 0 -138.5 34.5t-97 98t-35.5 148.5t36 148.5t98 98t139 34.5t139.5 -34.5t98 -98t35.5 -148.5q0 -84 -36 -148t-99 -98.5t-140 -34.5zM319 53q54 0 100 24.5t74.5 74t28.5 121.5t-28 121.5t-74 74t-100 24.5t-100 -24.5t-73.5 -74t-27.5 -121.5t27.5 -121.5
t73 -74t99.5 -24.5zM402 786q7 7 13.5 16.5t8.5 20.5t-1 18t-10 11t-16.5 5.5t-19.5 1.5q-15 0 -30 -3t-30 -7l-16 61q21 4 42 5.5t42 1.5q17 0 36.5 -2.5t36 -9t27.5 -19.5t11 -34q0 -14 -6 -27t-16 -24.5t-21 -21.5t-22 -19zM180 610l-10 53l151 98l157 -98l-10 -53
l-147 62z" />
    <glyph glyph-name="uni1ED6" unicode="&#x1ed6;" horiz-adv-x="788" 
d="M394 -7q-97 0 -176 45.5t-124.5 127t-45.5 184.5t45.5 184.5t124.5 127t176 45.5q98 0 177 -45.5t124 -127t45 -184.5t-45 -184.5t-124 -127t-177 -45.5zM394 54q78 0 140 36t98 103.5t36 156.5t-36 156t-98 103t-140 36t-140 -36t-98 -103t-36 -156t36 -156.5t98 -103.5
t140 -36zM241 959q2 14 7.5 31t15.5 32t24 25.5t33 10.5q15 0 31 -5t32.5 -11t34.5 -12t37 -8q40 -5 46 36l50 -4q-3 -16 -9 -34t-15.5 -33t-23 -24.5t-32.5 -9.5q-16 0 -31.5 6t-31.5 13.5t-32.5 13.5t-35.5 6q-17 0 -30 -11t-18 -29zM252 764l-10 53l151 98l157 -98
l-10 -53l-147 62z" />
    <glyph glyph-name="uni1ED7" unicode="&#x1ed7;" horiz-adv-x="642" 
d="M169 805q2 14 7.5 31t15.5 32t24 25.5t33 10.5q15 0 31 -5t32.5 -11t34.5 -12t37 -8q40 -5 46 36l50 -4q-3 -16 -9 -34t-15.5 -33t-23 -24.5t-32.5 -9.5q-16 0 -31.5 6t-31.5 13.5t-32.5 13.5t-35.5 6q-17 0 -30 -11t-18 -29zM180 610l-10 53l151 98l157 -98l-10 -53
l-147 62zM319 -8q-77 0 -138.5 34.5t-97 98t-35.5 148.5t36 148.5t98 98t139 34.5t139.5 -34.5t98 -98t35.5 -148.5q0 -84 -36 -148t-99 -98.5t-140 -34.5zM319 53q54 0 100 24.5t74.5 74t28.5 121.5t-28 121.5t-74 74t-100 24.5t-100 -24.5t-73.5 -74t-27.5 -121.5
t27.5 -121.5t73 -74t99.5 -24.5z" />
    <glyph glyph-name="uni1ED8" unicode="&#x1ed8;" horiz-adv-x="788" 
d="M394 -7q-97 0 -176 45.5t-124.5 127t-45.5 184.5t45.5 184.5t124.5 127t176 45.5q98 0 177 -45.5t124 -127t45 -184.5t-45 -184.5t-124 -127t-177 -45.5zM394 54q78 0 140 36t98 103.5t36 156.5t-36 156t-98 103t-140 36t-140 -36t-98 -103t-36 -156t36 -156.5t98 -103.5
t140 -36zM345 -131q0 20 13 35.5t37 15.5q22 0 35.5 -13.5t13.5 -36.5q0 -25 -15 -37t-35 -12q-22 0 -35.5 13t-13.5 35zM250 764l-10 53l151 98l157 -98l-10 -53l-147 62z" />
    <glyph glyph-name="uni1ED9" unicode="&#x1ed9;" horiz-adv-x="642" 
d="M319 -8q-77 0 -138.5 34.5t-97 98t-35.5 148.5t36 148.5t98 98t139 34.5t139.5 -34.5t98 -98t35.5 -148.5q0 -84 -36 -148t-99 -98.5t-140 -34.5zM319 53q54 0 100 24.5t74.5 74t28.5 121.5t-28 121.5t-74 74t-100 24.5t-100 -24.5t-73.5 -74t-27.5 -121.5t27.5 -121.5
t73 -74t99.5 -24.5zM272 -131q0 20 13 35.5t37 15.5q22 0 35.5 -13.5t13.5 -36.5q0 -25 -15 -37t-35 -12q-22 0 -35.5 13t-13.5 35zM178 610l-10 53l151 98l157 -98l-10 -53l-147 62z" />
    <glyph glyph-name="uni1EDA" unicode="&#x1eda;" horiz-adv-x="788" 
d="M394 -7q-97 0 -176 45.5t-124.5 127t-45.5 184.5t45.5 184.5t124.5 127t176 45.5q98 0 177 -45.5t124 -127t45 -184.5t-45 -184.5t-124 -127t-177 -45.5zM394 54q78 0 140 36t98 103.5t36 156.5t-36 156t-98 103t-140 36t-140 -36t-98 -103t-36 -156t36 -156.5t98 -103.5
t140 -36zM630 786v-12q0 -35 -10.5 -57t-29.5 -34t-45.5 -16.5t-57.5 -4.5q-3 5 -10 6t-10 6v26q27 -1 46 2t31 12.5t17.5 26.5t5.5 45h63zM308 793l108 151l65 -53l-131 -129z" />
    <glyph glyph-name="uni1EDB" unicode="&#x1edb;" horiz-adv-x="642" 
d="M319 -8q-77 0 -138.5 34.5t-97 98t-35.5 148.5t36 148.5t98 98t139 34.5t139.5 -34.5t98 -98t35.5 -148.5q0 -84 -36 -148t-99 -98.5t-140 -34.5zM319 53q54 0 100 24.5t74.5 74t28.5 121.5t-28 121.5t-74 74t-100 24.5t-100 -24.5t-73.5 -74t-27.5 -121.5t27.5 -121.5
t73 -74t99.5 -24.5zM554 632v-12q0 -35 -10.5 -57t-29.5 -34t-45.5 -16.5t-57.5 -4.5q-3 5 -10 6t-10 6v26q27 -1 46 2t31 12.5t17.5 26.5t5.5 45h63zM241 639l108 151l65 -53l-131 -129z" />
    <glyph glyph-name="uni1EDC" unicode="&#x1edc;" horiz-adv-x="788" 
d="M394 -7q-97 0 -176 45.5t-124.5 127t-45.5 184.5t45.5 184.5t124.5 127t176 45.5q98 0 177 -45.5t124 -127t45 -184.5t-45 -184.5t-124 -127t-177 -45.5zM394 54q78 0 140 36t98 103.5t36 156.5t-36 156t-98 103t-140 36t-140 -36t-98 -103t-36 -156t36 -156.5t98 -103.5
t140 -36zM630 786v-12q0 -35 -10.5 -57t-29.5 -34t-45.5 -16.5t-57.5 -4.5q-3 5 -10 6t-10 6v26q27 -1 46 2t31 12.5t17.5 26.5t5.5 45h63zM299 860l45 70l146 -116l-33 -50z" />
    <glyph glyph-name="uni1EDD" unicode="&#x1edd;" horiz-adv-x="642" 
d="M319 -8q-77 0 -138.5 34.5t-97 98t-35.5 148.5t36 148.5t98 98t139 34.5t139.5 -34.5t98 -98t35.5 -148.5q0 -84 -36 -148t-99 -98.5t-140 -34.5zM319 53q54 0 100 24.5t74.5 74t28.5 121.5t-28 121.5t-74 74t-100 24.5t-100 -24.5t-73.5 -74t-27.5 -121.5t27.5 -121.5
t73 -74t99.5 -24.5zM554 632v-12q0 -35 -10.5 -57t-29.5 -34t-45.5 -16.5t-57.5 -4.5q-3 5 -10 6t-10 6v26q27 -1 46 2t31 12.5t17.5 26.5t5.5 45h63zM222 706l45 70l146 -116l-33 -50z" />
    <glyph glyph-name="uni1EDE" unicode="&#x1ede;" horiz-adv-x="788" 
d="M394 -7q-97 0 -176 45.5t-124.5 127t-45.5 184.5t45.5 184.5t124.5 127t176 45.5q98 0 177 -45.5t124 -127t45 -184.5t-45 -184.5t-124 -127t-177 -45.5zM394 54q78 0 140 36t98 103.5t36 156.5t-36 156t-98 103t-140 36t-140 -36t-98 -103t-36 -156t36 -156.5t98 -103.5
t140 -36zM630 786v-12q0 -35 -10.5 -57t-29.5 -34t-45.5 -16.5t-57.5 -4.5q-3 5 -10 6t-10 6v26q27 -1 46 2t31 12.5t17.5 26.5t5.5 45h63zM398 790q7 7 13.5 16.5t8.5 20.5t-1 18t-10 11t-16.5 5.5t-19.5 1.5q-15 0 -30 -3t-30 -7l-16 61q21 4 42 5.5t42 1.5
q17 0 36.5 -2.5t36 -9t27.5 -19.5t11 -34q0 -14 -6 -27t-16 -24.5t-21 -21.5t-22 -19z" />
    <glyph glyph-name="uni1EDF" unicode="&#x1edf;" horiz-adv-x="642" 
d="M319 -8q-77 0 -138.5 34.5t-97 98t-35.5 148.5t36 148.5t98 98t139 34.5t139.5 -34.5t98 -98t35.5 -148.5q0 -84 -36 -148t-99 -98.5t-140 -34.5zM319 53q54 0 100 24.5t74.5 74t28.5 121.5t-28 121.5t-74 74t-100 24.5t-100 -24.5t-73.5 -74t-27.5 -121.5t27.5 -121.5
t73 -74t99.5 -24.5zM554 632v-12q0 -35 -10.5 -57t-29.5 -34t-45.5 -16.5t-57.5 -4.5q-3 5 -10 6t-10 6v26q27 -1 46 2t31 12.5t17.5 26.5t5.5 45h63zM325 636q7 7 13.5 16.5t8.5 20.5t-1 18t-10 11t-16.5 5.5t-19.5 1.5q-15 0 -30 -3t-30 -7l-16 61q21 4 42 5.5t42 1.5
q17 0 36.5 -2.5t36 -9t27.5 -19.5t11 -34q0 -14 -6 -27t-16 -24.5t-21 -21.5t-22 -19z" />
    <glyph glyph-name="uni1EE0" unicode="&#x1ee0;" horiz-adv-x="788" 
d="M394 -7q-97 0 -176 45.5t-124.5 127t-45.5 184.5t45.5 184.5t124.5 127t176 45.5q98 0 177 -45.5t124 -127t45 -184.5t-45 -184.5t-124 -127t-177 -45.5zM394 54q78 0 140 36t98 103.5t36 156.5t-36 156t-98 103t-140 36t-140 -36t-98 -103t-36 -156t36 -156.5t98 -103.5
t140 -36zM630 786v-12q0 -35 -10.5 -57t-29.5 -34t-45.5 -16.5t-57.5 -4.5q-3 5 -10 6t-10 6v26q27 -1 46 2t31 12.5t17.5 26.5t5.5 45h63zM247 791q2 14 7 31t14.5 32t23 25.5t31.5 10.5q15 0 30 -5t30.5 -11t32.5 -12t35 -8q38 -5 44 36l47 -4q-3 -16 -8.5 -34t-14.5 -33
t-22 -24.5t-31 -9.5q-16 0 -30.5 6t-29.5 13.5t-30.5 13.5t-33.5 6q-16 0 -28.5 -11t-17.5 -29z" />
    <glyph glyph-name="uni1EE1" unicode="&#x1ee1;" horiz-adv-x="642" 
d="M319 -8q-77 0 -138.5 34.5t-97 98t-35.5 148.5t36 148.5t98 98t139 34.5t139.5 -34.5t98 -98t35.5 -148.5q0 -84 -36 -148t-99 -98.5t-140 -34.5zM319 53q54 0 100 24.5t74.5 74t28.5 121.5t-28 121.5t-74 74t-100 24.5t-100 -24.5t-73.5 -74t-27.5 -121.5t27.5 -121.5
t73 -74t99.5 -24.5zM554 632v-12q0 -35 -10.5 -57t-29.5 -34t-45.5 -16.5t-57.5 -4.5q-3 5 -10 6t-10 6v26q27 -1 46 2t31 12.5t17.5 26.5t5.5 45h63zM175 637q2 14 7 31t14.5 32t23 25.5t31.5 10.5q15 0 30 -5t30.5 -11t32.5 -12t35 -8q38 -5 44 36l47 -4q-3 -16 -8.5 -34
t-14.5 -33t-22 -24.5t-31 -9.5q-16 0 -30.5 6t-29.5 13.5t-30.5 13.5t-33.5 6q-16 0 -28.5 -11t-17.5 -29z" />
    <glyph glyph-name="uni1EE2" unicode="&#x1ee2;" horiz-adv-x="788" 
d="M394 -7q-97 0 -176 45.5t-124.5 127t-45.5 184.5t45.5 184.5t124.5 127t176 45.5q98 0 177 -45.5t124 -127t45 -184.5t-45 -184.5t-124 -127t-177 -45.5zM394 54q78 0 140 36t98 103.5t36 156.5t-36 156t-98 103t-140 36t-140 -36t-98 -103t-36 -156t36 -156.5t98 -103.5
t140 -36zM630 786v-12q0 -35 -10.5 -57t-29.5 -34t-45.5 -16.5t-57.5 -4.5q-3 5 -10 6t-10 6v26q27 -1 46 2t31 12.5t17.5 26.5t5.5 45h63zM345 -131q0 20 13 35.5t37 15.5q22 0 35.5 -13.5t13.5 -36.5q0 -25 -15 -37t-35 -12q-22 0 -35.5 13t-13.5 35z" />
    <glyph glyph-name="uni1EE3" unicode="&#x1ee3;" horiz-adv-x="642" 
d="M319 -8q-77 0 -138.5 34.5t-97 98t-35.5 148.5t36 148.5t98 98t139 34.5t139.5 -34.5t98 -98t35.5 -148.5q0 -84 -36 -148t-99 -98.5t-140 -34.5zM319 53q54 0 100 24.5t74.5 74t28.5 121.5t-28 121.5t-74 74t-100 24.5t-100 -24.5t-73.5 -74t-27.5 -121.5t27.5 -121.5
t73 -74t99.5 -24.5zM554 632v-12q0 -35 -10.5 -57t-29.5 -34t-45.5 -16.5t-57.5 -4.5q-3 5 -10 6t-10 6v26q27 -1 46 2t31 12.5t17.5 26.5t5.5 45h63zM272 -131q0 20 13 35.5t37 15.5q22 0 35.5 -13.5t13.5 -36.5q0 -25 -15 -37t-35 -12q-22 0 -35.5 13t-13.5 35z" />
    <glyph glyph-name="uni1EE4" unicode="&#x1ee4;" horiz-adv-x="661" 
d="M147 699v-440q0 -104 49.5 -154t135.5 -50t134.5 49.5t48.5 154.5v440h70v-439q0 -133 -70.5 -200t-183.5 -67t-183.5 67t-70.5 200v439h70zM281 -131q0 20 13 35.5t37 15.5q22 0 35.5 -13.5t13.5 -36.5q0 -25 -15 -37t-35 -12q-22 0 -35.5 13t-13.5 35z" />
    <glyph glyph-name="uni1EE5" unicode="&#x1ee5;" horiz-adv-x="633" 
d="M553 546v-546h-70v96q-24 -51 -74 -78t-112 -27q-98 0 -160 60.5t-62 175.5v319h69v-311q0 -89 44.5 -136t121.5 -47q79 0 126 50t47 147v297h70zM267 -131q0 20 13 35.5t37 15.5q22 0 35.5 -13.5t13.5 -36.5q0 -25 -15 -37t-35 -12q-22 0 -35.5 13t-13.5 35z" />
    <glyph glyph-name="uni1EE6" unicode="&#x1ee6;" horiz-adv-x="661" 
d="M147 699v-440q0 -104 49.5 -154t135.5 -50t134.5 49.5t48.5 154.5v440h70v-439q0 -133 -70.5 -200t-183.5 -67t-183.5 67t-70.5 200v439h70zM334 790q7 7 13.5 16.5t8.5 20.5t-1 18t-10 11t-16.5 5.5t-19.5 1.5q-15 0 -30 -3t-30 -7l-16 61q21 4 42 5.5t42 1.5
q17 0 36.5 -2.5t36 -9t27.5 -19.5t11 -34q0 -14 -6 -27t-16 -24.5t-21 -21.5t-22 -19z" />
    <glyph glyph-name="uni1EE7" unicode="&#x1ee7;" horiz-adv-x="633" 
d="M553 546v-546h-70v96q-24 -51 -74 -78t-112 -27q-98 0 -160 60.5t-62 175.5v319h69v-311q0 -89 44.5 -136t121.5 -47q79 0 126 50t47 147v297h70zM320 636q7 7 13.5 16.5t8.5 20.5t-1 18t-10 11t-16.5 5.5t-19.5 1.5q-15 0 -30 -3t-30 -7l-16 61q21 4 42 5.5t42 1.5
q17 0 36.5 -2.5t36 -9t27.5 -19.5t11 -34q0 -14 -6 -27t-16 -24.5t-21 -21.5t-22 -19z" />
    <glyph glyph-name="uni1EE8" unicode="&#x1ee8;" horiz-adv-x="661" 
d="M147 699v-440q0 -104 49.5 -154t135.5 -50t134.5 49.5t48.5 154.5v440h70v-439q0 -133 -70.5 -200t-183.5 -67t-183.5 67t-70.5 200v439h70zM678 785v-12q0 -35 -10.5 -57t-29.5 -34t-45.5 -16.5t-57.5 -4.5q-3 5 -10 6t-10 6v26q27 -1 46 2t31 12.5t17.5 26.5t5.5 45h63
zM244 793l108 151l65 -53l-131 -129z" />
    <glyph glyph-name="uni1EE9" unicode="&#x1ee9;" horiz-adv-x="633" 
d="M553 546v-546h-70v96q-24 -51 -74 -78t-112 -27q-98 0 -160 60.5t-62 175.5v319h69v-311q0 -89 44.5 -136t121.5 -47q79 0 126 50t47 147v297h70zM646 632v-12q0 -35 -10.5 -57t-29.5 -34t-45.5 -16.5t-57.5 -4.5q-3 5 -10 6t-10 6v26q27 -1 46 2t31 12.5t17.5 26.5
t5.5 45h63zM236 639l108 151l65 -53l-131 -129z" />
    <glyph glyph-name="uni1EEA" unicode="&#x1eea;" horiz-adv-x="661" 
d="M147 699v-440q0 -104 49.5 -154t135.5 -50t134.5 49.5t48.5 154.5v440h70v-439q0 -133 -70.5 -200t-183.5 -67t-183.5 67t-70.5 200v439h70zM678 785v-12q0 -35 -10.5 -57t-29.5 -34t-45.5 -16.5t-57.5 -4.5q-3 5 -10 6t-10 6v26q27 -1 46 2t31 12.5t17.5 26.5t5.5 45h63
zM235 860l45 70l146 -116l-33 -50z" />
    <glyph glyph-name="uni1EEB" unicode="&#x1eeb;" horiz-adv-x="633" 
d="M553 546v-546h-70v96q-24 -51 -74 -78t-112 -27q-98 0 -160 60.5t-62 175.5v319h69v-311q0 -89 44.5 -136t121.5 -47q79 0 126 50t47 147v297h70zM646 632v-12q0 -35 -10.5 -57t-29.5 -34t-45.5 -16.5t-57.5 -4.5q-3 5 -10 6t-10 6v26q27 -1 46 2t31 12.5t17.5 26.5
t5.5 45h63zM217 706l45 70l146 -116l-33 -50z" />
    <glyph glyph-name="uni1EEC" unicode="&#x1eec;" horiz-adv-x="661" 
d="M147 699v-440q0 -104 49.5 -154t135.5 -50t134.5 49.5t48.5 154.5v440h70v-439q0 -133 -70.5 -200t-183.5 -67t-183.5 67t-70.5 200v439h70zM678 785v-12q0 -35 -10.5 -57t-29.5 -34t-45.5 -16.5t-57.5 -4.5q-3 5 -10 6t-10 6v26q27 -1 46 2t31 12.5t17.5 26.5t5.5 45h63
zM334 790q7 7 13.5 16.5t8.5 20.5t-1 18t-10 11t-16.5 5.5t-19.5 1.5q-15 0 -30 -3t-30 -7l-16 61q21 4 42 5.5t42 1.5q17 0 36.5 -2.5t36 -9t27.5 -19.5t11 -34q0 -14 -6 -27t-16 -24.5t-21 -21.5t-22 -19z" />
    <glyph glyph-name="uni1EED" unicode="&#x1eed;" horiz-adv-x="633" 
d="M553 546v-546h-70v96q-24 -51 -74 -78t-112 -27q-98 0 -160 60.5t-62 175.5v319h69v-311q0 -89 44.5 -136t121.5 -47q79 0 126 50t47 147v297h70zM646 632v-12q0 -35 -10.5 -57t-29.5 -34t-45.5 -16.5t-57.5 -4.5q-3 5 -10 6t-10 6v26q27 -1 46 2t31 12.5t17.5 26.5
t5.5 45h63zM320 636q7 7 13.5 16.5t8.5 20.5t-1 18t-10 11t-16.5 5.5t-19.5 1.5q-15 0 -30 -3t-30 -7l-16 61q21 4 42 5.5t42 1.5q17 0 36.5 -2.5t36 -9t27.5 -19.5t11 -34q0 -14 -6 -27t-16 -24.5t-21 -21.5t-22 -19z" />
    <glyph glyph-name="uni1EEE" unicode="&#x1eee;" horiz-adv-x="661" 
d="M147 699v-440q0 -104 49.5 -154t135.5 -50t134.5 49.5t48.5 154.5v440h70v-439q0 -133 -70.5 -200t-183.5 -67t-183.5 67t-70.5 200v439h70zM678 785v-12q0 -35 -10.5 -57t-29.5 -34t-45.5 -16.5t-57.5 -4.5q-3 5 -10 6t-10 6v26q27 -1 46 2t31 12.5t17.5 26.5t5.5 45h63
zM183 791q2 14 7 31t14.5 32t23 25.5t31.5 10.5q15 0 30 -5t30.5 -11t32.5 -12t35 -8q38 -5 44 36l47 -4q-3 -16 -8.5 -34t-14.5 -33t-22 -24.5t-31 -9.5q-16 0 -30.5 6t-29.5 13.5t-30.5 13.5t-33.5 6q-16 0 -28.5 -11t-17.5 -29z" />
    <glyph glyph-name="uni1EEF" unicode="&#x1eef;" horiz-adv-x="633" 
d="M553 546v-546h-70v96q-24 -51 -74 -78t-112 -27q-98 0 -160 60.5t-62 175.5v319h69v-311q0 -89 44.5 -136t121.5 -47q79 0 126 50t47 147v297h70zM646 632v-12q0 -35 -10.5 -57t-29.5 -34t-45.5 -16.5t-57.5 -4.5q-3 5 -10 6t-10 6v26q27 -1 46 2t31 12.5t17.5 26.5
t5.5 45h63zM170 637q2 14 7 31t14.5 32t23 25.5t31.5 10.5q15 0 30 -5t30.5 -11t32.5 -12t35 -8q38 -5 44 36l47 -4q-3 -16 -8.5 -34t-14.5 -33t-22 -24.5t-31 -9.5q-16 0 -30.5 6t-29.5 13.5t-30.5 13.5t-33.5 6q-16 0 -28.5 -11t-17.5 -29z" />
    <glyph glyph-name="uni1EF0" unicode="&#x1ef0;" horiz-adv-x="661" 
d="M147 699v-440q0 -104 49.5 -154t135.5 -50t134.5 49.5t48.5 154.5v440h70v-439q0 -133 -70.5 -200t-183.5 -67t-183.5 67t-70.5 200v439h70zM678 785v-12q0 -35 -10.5 -57t-29.5 -34t-45.5 -16.5t-57.5 -4.5q-3 5 -10 6t-10 6v26q27 -1 46 2t31 12.5t17.5 26.5t5.5 45h63
zM281 -131q0 20 13 35.5t37 15.5q22 0 35.5 -13.5t13.5 -36.5q0 -25 -15 -37t-35 -12q-22 0 -35.5 13t-13.5 35z" />
    <glyph glyph-name="uni1EF1" unicode="&#x1ef1;" horiz-adv-x="633" 
d="M553 546v-546h-70v96q-24 -51 -74 -78t-112 -27q-98 0 -160 60.5t-62 175.5v319h69v-311q0 -89 44.5 -136t121.5 -47q79 0 126 50t47 147v297h70zM646 632v-12q0 -35 -10.5 -57t-29.5 -34t-45.5 -16.5t-57.5 -4.5q-3 5 -10 6t-10 6v26q27 -1 46 2t31 12.5t17.5 26.5
t5.5 45h63zM267 -131q0 20 13 35.5t37 15.5q22 0 35.5 -13.5t13.5 -36.5q0 -25 -15 -37t-35 -12q-22 0 -35.5 13t-13.5 35z" />
    <glyph glyph-name="Ygrave" unicode="&#x1ef2;" horiz-adv-x="564" 
d="M542 699l-224 -427v-272h-70v272l-226 427h79l182 -363l181 363h78zM187 860l45 70l146 -116l-33 -50z" />
    <glyph glyph-name="ygrave" unicode="&#x1ef3;" horiz-adv-x="545" 
d="M530 546l-324 -803h-73l106 260l-224 543h77l186 -466l180 466h72zM173 706l45 70l146 -116l-33 -50z" />
    <glyph glyph-name="uni1EF4" unicode="&#x1ef4;" horiz-adv-x="564" 
d="M542 699l-224 -427v-272h-70v272l-226 427h79l182 -363l181 363h78zM233 -131q0 20 13 35.5t37 15.5q22 0 35.5 -13.5t13.5 -36.5q0 -25 -15 -37t-35 -12q-22 0 -35.5 13t-13.5 35z" />
    <glyph glyph-name="uni1EF5" unicode="&#x1ef5;" horiz-adv-x="545" 
d="M530 546l-324 -803h-73l106 260l-224 543h77l186 -466l180 466h72zM272 -205q0 20 13 35.5t37 15.5q22 0 35.5 -13.5t13.5 -36.5q0 -25 -15 -37t-35 -12q-22 0 -35.5 13t-13.5 35z" />
    <glyph glyph-name="uni1EF6" unicode="&#x1ef6;" horiz-adv-x="564" 
d="M542 699l-224 -427v-272h-70v272l-226 427h79l182 -363l181 363h78zM286 790q7 7 13.5 16.5t8.5 20.5t-1 18t-10 11t-16.5 5.5t-19.5 1.5q-15 0 -30 -3t-30 -7l-16 61q21 4 42 5.5t42 1.5q17 0 36.5 -2.5t36 -9t27.5 -19.5t11 -34q0 -14 -6 -27t-16 -24.5t-21 -21.5
t-22 -19z" />
    <glyph glyph-name="uni1EF7" unicode="&#x1ef7;" horiz-adv-x="545" 
d="M530 546l-324 -803h-73l106 260l-224 543h77l186 -466l180 466h72zM276 636q7 7 13.5 16.5t8.5 20.5t-1 18t-10 11t-16.5 5.5t-19.5 1.5q-15 0 -30 -3t-30 -7l-16 61q21 4 42 5.5t42 1.5q17 0 36.5 -2.5t36 -9t27.5 -19.5t11 -34q0 -14 -6 -27t-16 -24.5t-21 -21.5
t-22 -19z" />
    <glyph glyph-name="uni1EF8" unicode="&#x1ef8;" horiz-adv-x="564" 
d="M542 699l-224 -427v-272h-70v272l-226 427h79l182 -363l181 363h78zM135 791q2 14 7 31t14.5 32t23 25.5t31.5 10.5q15 0 30 -5t30.5 -11t32.5 -12t35 -8q38 -5 44 36l47 -4q-3 -16 -8.5 -34t-14.5 -33t-22 -24.5t-31 -9.5q-16 0 -30.5 6t-29.5 13.5t-30.5 13.5t-33.5 6
q-16 0 -28.5 -11t-17.5 -29z" />
    <glyph glyph-name="uni1EF9" unicode="&#x1ef9;" horiz-adv-x="545" 
d="M530 546l-324 -803h-73l106 260l-224 543h77l186 -466l180 466h72zM126 637q2 14 7 31t14.5 32t23 25.5t31.5 10.5q15 0 30 -5t30.5 -11t32.5 -12t35 -8q38 -5 44 36l47 -4q-3 -16 -8.5 -34t-14.5 -33t-22 -24.5t-31 -9.5q-16 0 -30.5 6t-29.5 13.5t-30.5 13.5t-33.5 6
q-16 0 -28.5 -11t-17.5 -29z" />
    <glyph glyph-name="uni200C" unicode="&#x200c;" horiz-adv-x="0" 
d="M-23 -230v1041h47v-1041h-47z" />
    <glyph glyph-name="uni200D" unicode="&#x200d;" horiz-adv-x="0" 
d="M95 560l-72 75v-865h-47v865l-69 -73l-33 33l93 93l-95 95l33 33l95 -95l96 95l32 -32l-96 -96l96 -95z" />
    <glyph glyph-name="endash" unicode="&#x2013;" horiz-adv-x="649" 
d="M584 400v-59h-519v59h519z" />
    <glyph glyph-name="emdash" unicode="&#x2014;" horiz-adv-x="849" 
d="M784 400v-59h-719v59h719z" />
    <glyph glyph-name="quoteleft" unicode="&#x2018;" horiz-adv-x="197" 
d="M105 483h-81l87 216h51z" />
    <glyph glyph-name="quoteright" unicode="&#x2019;" horiz-adv-x="197" 
d="M89 699h81l-88 -216h-51z" />
    <glyph glyph-name="quotesinglbase" unicode="&#x201a;" horiz-adv-x="160" 
d="M50 96h81l-88 -216h-51z" />
    <glyph glyph-name="quotedblleft" unicode="&#x201c;" horiz-adv-x="342" 
d="M105 483h-81l87 216h51zM250 483h-81l88 216h51z" />
    <glyph glyph-name="quotedblright" unicode="&#x201d;" horiz-adv-x="342" 
d="M89 699h81l-88 -216h-51zM234 699h81l-88 -216h-51z" />
    <glyph glyph-name="quotedblbase" unicode="&#x201e;" horiz-adv-x="307" 
d="M50 96h81l-88 -216h-51zM197 96h81l-87 -216h-51z" />
    <glyph glyph-name="dagger" unicode="&#x2020;" horiz-adv-x="511" 
d="M471 489l-188 7l7 -754h-69l7 754l-188 -7v57l188 -7l-7 240h69l-7 -240l188 7v-57z" />
    <glyph glyph-name="daggerdbl" unicode="&#x2021;" horiz-adv-x="512" 
d="M284 496v-471l188 7v-57l-188 7l6 -240h-69l8 240l-188 -7v57l188 -7v471l-188 -7v57l188 -7l-8 240h69l-6 -240l188 7v-57z" />
    <glyph glyph-name="bullet" unicode="&#x2022;" horiz-adv-x="366" 
d="M182 218q-47 0 -81 33.5t-34 81.5q0 49 34 82.5t81 33.5q49 0 82.5 -33.5t33.5 -82.5q0 -48 -33.5 -81.5t-82.5 -33.5z" />
    <glyph glyph-name="ellipsis" unicode="&#x2026;" horiz-adv-x="528" 
d="M267 -5q-22 0 -36.5 15t-14.5 37t14.5 36.5t36.5 14.5q21 0 35.5 -14.5t14.5 -36.5t-14.5 -37t-35.5 -15zM442 -5q-22 0 -36.5 15t-14.5 37t14.5 36.5t36.5 14.5q21 0 35.5 -14.5t14.5 -36.5t-14.5 -37t-35.5 -15zM92 -5q-22 0 -36.5 15t-14.5 37t14.5 36.5t36.5 14.5
q21 0 35.5 -14.5t14.5 -36.5t-14.5 -37t-35.5 -15z" />
    <glyph glyph-name="perthousand" unicode="&#x2030;" horiz-adv-x="953" 
d="M41 567q0 63 39.5 102t100.5 39t100.5 -39t39.5 -102q0 -64 -39.5 -103.5t-100.5 -39.5t-100.5 39.5t-39.5 103.5zM556 700l-411 -700h-69l410 700h70zM181 663q-38 0 -61 -25.5t-23 -70.5q0 -46 23 -72t61 -26t60.5 26t22.5 72q0 45 -22.5 70.5t-60.5 25.5zM311 133
q0 64 39.5 103t100.5 39t100.5 -39t39.5 -103t-39.5 -103t-100.5 -39t-100.5 39t-39.5 103zM632 133q0 64 39.5 103t100.5 39t100.5 -39t39.5 -103t-39.5 -103t-100.5 -39t-100.5 39t-39.5 103zM451 230q-38 0 -61 -25.5t-23 -71.5q0 -45 23 -70.5t61 -25.5t60.5 25.5
t22.5 70.5q0 46 -22.5 71.5t-60.5 25.5zM772 230q-38 0 -60.5 -25.5t-22.5 -71.5q0 -45 22.5 -70.5t60.5 -25.5t61 25.5t23 70.5q0 46 -23 71.5t-61 25.5z" />
    <glyph glyph-name="guilsinglleft" unicode="&#x2039;" horiz-adv-x="265" 
d="M144 120l-99 175l99 175h71l-102 -175l102 -175h-71z" />
    <glyph glyph-name="guilsinglright" unicode="&#x203a;" horiz-adv-x="265" 
d="M152 295l-102 175h71l99 -175l-99 -175h-71z" />
    <glyph glyph-name="fraction" unicode="&#x2044;" horiz-adv-x="409" 
d="M453 700l-411 -700h-71l410 700h72z" />
    <glyph glyph-name="uni20A8" unicode="&#x20a8;" horiz-adv-x="1074" 
d="M527 496q0 -81 -47.5 -134.5t-142.5 -64.5l199 -297h-86l-192 294h-108v-294h-70v699h211q117 0 176.5 -56t59.5 -147zM150 351h141q85 0 124.5 38.5t39.5 106.5q0 147 -164 147h-141v-292zM669 402q0 -33 19 -52.5t47 -29.5t79 -22q60 -14 96.5 -27.5t62 -43.5t25.5 -83
q0 -44 -24 -79t-66.5 -54t-97.5 -19q-91 0 -148.5 45.5t-64.5 125.5h72q5 -51 42 -83t100 -32q55 0 86.5 27t31.5 70q0 34 -20 54.5t-49.5 31t-79.5 21.5q-58 13 -94 27t-61 43t-25 78q0 44 23.5 79t67.5 55t102 20q86 0 139.5 -46t59.5 -125h-71q-5 51 -38.5 83t-93.5 32
q-56 0 -88 -27t-32 -69z" />
    <glyph glyph-name="Euro" unicode="&#x20ac;" horiz-adv-x="818" 
d="M454 57q87 0 148.5 39t91.5 108h82q-39 -100 -122.5 -155t-199.5 -55q-118 0 -206.5 66.5t-120.5 178.5h-104v50h93q-4 27 -4 61q0 27 3 52h-92v50h102q19 76 66.5 134t115 89.5t147.5 31.5q116 0 200 -55.5t122 -156.5h-82q-30 70 -91.5 109.5t-148.5 39.5
q-92 0 -161 -51.5t-95 -140.5h257v-50h-268q-3 -25 -3 -52q0 -29 5 -61h266v-50h-254q28 -85 95.5 -133.5t157.5 -48.5z" />
    <glyph glyph-name="uni20B9" unicode="&#x20b9;" horiz-adv-x="646" 
d="M103 340q117 0 173.5 9t82 36t31.5 86h-335v52h338v124h-338v53h544v-53h-140v-124h140v-52h-144q-8 -71 -37.5 -109.5t-88.5 -55t-160 -16.5v-94q0 -150 132 -150q64 0 96 37t32 106h65q-1 -98 -51 -148.5t-143 -50.5q-97 0 -147 54.5t-50 151.5v144z" />
    <glyph glyph-name="uni20BA" unicode="&#x20ba;" horiz-adv-x="812" 
d="M717 406q0 -213 -87 -319.5t-273 -106.5q-65 0 -149 19v248l-170 -43v52l170 43v115l-172 -45v51l172 45v237h72v-218l190 50v-52l-190 -49v-115l188 48v-52l-188 -48v-213q36 -8 77 -8q148 0 218 91t70 270h72z" />
    <glyph glyph-name="uni20BD" unicode="&#x20bd;" horiz-adv-x="613" 
d="M199 298v-108h234v-57h-234v-133h-70v133h-85v57h85v108h-85v58h85v343h211q117 0 176.5 -55t59.5 -146q0 -90 -59 -145t-177 -55h-141zM199 356h141q85 0 125 37t40 105q0 145 -165 145h-141v-287z" />
    <glyph glyph-name="uni2113" unicode="&#x2113;" horiz-adv-x="229" 
d="M150 740v-740h-70v740h70z" />
    <glyph glyph-name="trademark" unicode="&#x2122;" horiz-adv-x="754" 
d="M27 704h238v-46h-91l1 -306h-58l1 306h-91v46zM703 704v-352h-53l-1 269l-118 -269h-42l-117 272v-272h-52v352h71l120 -284l124 284h68z" />
    <glyph glyph-name="uni2126" unicode="&#x2126;" horiz-adv-x="789" 
d="M746 350q0 -97 -44 -176t-123 -118h151v-56h-275v59q64 13 114 51.5t78 99.5t28 137q0 88 -37 155.5t-101 104.5t-143 37q-80 0 -144 -37.5t-100 -105t-36 -154.5q0 -76 28.5 -137t78 -99.5t113.5 -51.5v-59h-276v56h153q-80 39 -123.5 117.5t-43.5 176.5
q0 103 46.5 184.5t126.5 127t177 45.5t177.5 -45.5t127.5 -127t47 -184.5z" />
    <glyph glyph-name="estimated" unicode="&#x212e;" horiz-adv-x="764" 
d="M686 137q-134 -144 -295 -144q-98 0 -175.5 39.5t-121.5 115.5t-44 181q0 104 39 187.5t114 132t179 48.5q103 0 178 -45t114.5 -119t39.5 -159v-61h-544v-164q41 -54 93.5 -80t127.5 -26q73 0 132 32.5t127 99.5zM583 550q-32 46 -84 71t-117 25q-67 0 -121.5 -26.5
t-90.5 -81.5v-167h413v179z" />
    <glyph glyph-name="partialdiff" unicode="&#x2202;" horiz-adv-x="559" 
d="M40 216q0 88 33.5 166.5t94 126t137.5 47.5q55 0 92 -28t51 -96q-2 264 -165 264q-33 0 -82 -13v44q48 13 91 13q108 0 167.5 -83.5t59.5 -242.5q0 -128 -38 -224t-104 -148t-149 -52q-82 0 -135 57.5t-53 168.5zM436 328q0 84 -33.5 126.5t-94.5 42.5q-56 0 -101 -37
t-70.5 -101.5t-25.5 -142.5q0 -82 34.5 -124t89.5 -42q58 0 104 38.5t71.5 102t25.5 137.5z" />
    <glyph glyph-name="uni2206" unicode="&#x2206;" horiz-adv-x="666" 
d="M362 690l284 -635v-55h-626v55l283 635h59zM91 55h484l-243 555z" />
    <glyph glyph-name="product" unicode="&#x220f;" horiz-adv-x="736" 
d="M689 700v-56h-81v-644h-70v644h-340v-644h-70v644h-81v56h642z" />
    <glyph glyph-name="summation" unicode="&#x2211;" horiz-adv-x="436" 
d="M419 635h-320l269 -295v-56l-270 -298h321v-55h-379v80l266 299l-266 300v80h379v-55z" />
    <glyph glyph-name="minus" unicode="&#x2212;" horiz-adv-x="519" 
d="M454 400v-59h-389v59h389z" />
    <glyph glyph-name="uni2215" unicode="&#x2215;" horiz-adv-x="441" 
d="M391 940l-276 -1106h-69l274 1106h71z" />
    <glyph glyph-name="uni2219" unicode="&#x2219;" horiz-adv-x="183" 
d="M94 295q-22 0 -36.5 15t-14.5 37t14.5 36.5t36.5 14.5q21 0 35.5 -14.5t14.5 -36.5t-14.5 -37t-35.5 -15z" />
    <glyph glyph-name="radical" unicode="&#x221a;" horiz-adv-x="750" 
d="M734 859l-481 -903h-34l-118 207l-61 -35l-22 39l120 69l110 -193l433 816h53z" />
    <glyph glyph-name="infinity" unicode="&#x221e;" horiz-adv-x="691" 
d="M509 490q63 -1 103.5 -38.5t40.5 -103.5t-42 -104.5t-106 -38.5q-51 0 -88 26.5t-76 75.5q-25 -45 -65.5 -73.5t-93.5 -28.5q-64 1 -104 38.5t-40 103.5t42 104.5t106 38.5q50 0 86.5 -27.5t74.5 -77.5q26 46 67.5 75.5t94.5 29.5zM187 258q37 0 70 24t55 64
q-35 46 -62 69t-61 23q-42 0 -66.5 -25t-24.5 -66t23.5 -65t65.5 -24zM502 257q42 0 66.5 25t24.5 66t-23.5 65t-65.5 24q-38 0 -71 -25t-56 -67q33 -43 61 -65.5t64 -22.5z" />
    <glyph glyph-name="integral" unicode="&#x222b;" horiz-adv-x="253" 
d="M143 786q7 65 39.5 95t93.5 30h23l-6 -59h-19q-27 0 -42 -14.5t-19 -51.5l-93 -836q-8 -68 -38.5 -98.5t-92.5 -30.5h-25l6 58h22q29 0 41 15t17 56z" />
    <glyph glyph-name="approxequal" unicode="&#x2248;" horiz-adv-x="487" 
d="M38 421q11 64 42.5 96.5t81.5 32.5q27 0 48 -9.5t48 -27.5q26 -16 40.5 -23t31.5 -7q27 0 44.5 18t21.5 48h53q-21 -129 -124 -129q-25 0 -44.5 9t-48.5 27q-24 16 -39.5 23.5t-34.5 7.5q-26 0 -44 -18.5t-23 -47.5h-53zM38 221q11 64 42.5 96.5t81.5 32.5q27 0 48 -9.5
t48 -27.5q26 -16 40.5 -23t31.5 -7q27 0 44.5 18t21.5 48h53q-21 -129 -124 -129q-25 0 -44.5 9t-48.5 27q-24 16 -39.5 23.5t-34.5 7.5q-26 0 -44 -18.5t-23 -47.5h-53z" />
    <glyph glyph-name="notequal" unicode="&#x2260;" horiz-adv-x="664" 
d="M426 442l-121 -144h288v-59h-337l-85 -102h-55l85 102h-118v59h167l120 144h-287v60h337l84 101h56l-84 -101h117v-60h-167z" />
    <glyph glyph-name="lessequal" unicode="&#x2264;" horiz-adv-x="476" 
d="M160 409l249 -194h-93l-252 193l252 194h93zM68 157h341v-54h-341v54z" />
    <glyph glyph-name="greaterequal" unicode="&#x2265;" horiz-adv-x="476" 
d="M67 215l249 194l-249 193h92l253 -194l-253 -193h-92zM66 157h341v-54h-341v54z" />
    <glyph glyph-name="lozenge" unicode="&#x25ca;" horiz-adv-x="551" 
d="M511 349l-236 -236l-235 236l236 236zM117 349l158 -160l160 160l-159 160z" />
    <glyph glyph-name="uni25CC" unicode="&#x25cc;" horiz-adv-x="651" 
d="M344 498q0 -19 -12 -30.5t-31 -11.5t-31 11.5t-12 30.5t12 30.5t31 11.5t31 -11.5t12 -30.5zM465 483q0 -19 -12 -30.5t-31 -11.5t-31 11.5t-12 30.5t12 30.5t31 11.5t31 -11.5t12 -30.5zM227 456q0 -19 -12 -30.5t-31 -11.5t-31 11.5t-12 30.5t12 30.5t31 11.5t31 -11.5
t12 -30.5zM557 409q0 -19 -12 -30.5t-31 -11.5t-31 11.5t-12 30.5t12 30.5t31 11.5t31 -11.5t12 -30.5zM151 357q0 -19 -12 -30.5t-31 -11.5t-31 11.5t-12 30.5t12 30.5t31 11.5t31 -11.5t12 -30.5zM601 295q0 -19 -12 -30.5t-31 -11.5t-31 11.5t-12 30.5t12 30.5t31 11.5
t31 -11.5t12 -30.5zM136 236q0 -19 -12 -30.5t-31 -11.5t-31 11.5t-12 30.5t12 30.5t31 11.5t31 -11.5t12 -30.5zM591 175q0 -19 -12 -30.5t-31 -11.5t-31 11.5t-12 30.5t12 30.5t31 11.5t31 -11.5t12 -30.5zM181 123q0 -19 -12 -30.5t-31 -11.5t-31 11.5t-12 30.5t12 30.5
t31 11.5t31 -11.5t12 -30.5zM518 79q0 -19 -12 -30.5t-31 -11.5t-31 11.5t-12 30.5t12 30.5t31 11.5t31 -11.5t12 -30.5zM279 47q0 -19 -12 -30.5t-31 -11.5t-31 11.5t-12 30.5t12 30.5t31 11.5t31 -11.5t12 -30.5zM403 33q0 -19 -12 -30.5t-31 -11.5t-31 11.5t-12 30.5
t12 30.5t31 11.5t31 -11.5t12 -30.5z" />
    <glyph glyph-name="fi" unicode="&#xfb01;" horiz-adv-x="548" 
d="M168 546h305v-546h-70v487h-235v-487h-70v487h-75v59h75v38q0 89 45.5 131t147.5 42v-60q-68 0 -95.5 -26t-27.5 -87v-38zM439 752q21 0 36 -14.5t15 -36.5t-15 -37t-36 -15t-36 15t-15 37t15 36.5t36 14.5z" />
    <glyph glyph-name="fl" unicode="&#xfb02;" horiz-adv-x="555" 
d="M295 487h-127v-487h-70v487h-76v59h76v38q0 89 45.5 131t147.5 42v-60q-68 0 -95.5 -26t-27.5 -87v-38h127v-59zM475 740v-740h-70v740h70z" />
    <glyph glyph-name="dvK_SSA" horiz-adv-x="785" 
d="M814 740v-54h-141v-686h-61v386h-288q-15 -9 -29 -14q-52 -26 -82.5 -46t-51 -50t-20.5 -72q0 -52 33.5 -86t90.5 -34q59 0 93.5 37.5t34.5 93.5h55v-267h-59v164q-11 -29 -47.5 -55.5t-95.5 -26.5q-76 0 -123 46t-47 117q0 54 25.5 92t62 61.5t98.5 55.5
q-70 13 -115.5 58t-45.5 117q0 54 25 93t68 59.5t95 20.5q50 0 91.5 -19.5t66 -57.5t24.5 -89q0 -49 -20.5 -84.5t-58.5 -64.5h220v305h202zM159 573q0 -62 46 -99t118 -39q45 28 69.5 60t24.5 78q0 54 -37.5 87t-91.5 33t-91.5 -31t-37.5 -89z" />
    <glyph glyph-name="dvJ_NYA" horiz-adv-x="796" 
d="M825 740v-54h-141v-686h-63v478h-230q51 -23 80.5 -67t29.5 -106q0 -55 -24 -97.5t-66.5 -66t-97.5 -23.5q-63 0 -110 27.5t-68 67.5v-170h-62v271h60q6 -68 53 -105.5t111 -37.5q67 0 106 41t39 106q0 75 -51.5 117.5t-132.5 42.5h-15v53h378v155h-650v54h854z" />
    <glyph glyph-name="dvK" horiz-adv-x="748" 
d="M537 686v-236q22 52 67.5 84t113.5 32q60 0 107.5 -28.5t75 -80t27.5 -118.5h-64q0 52 -21.5 91t-59 60t-82.5 21q-55 0 -92 -26.5t-54.5 -68t-17.5 -86.5v-330h-61v221q-22 -51 -70 -83t-117 -32q-62 0 -111 28.5t-76.5 81t-27.5 123.5q0 68 28 119.5t77.5 79.5
t111.5 28q70 0 116 -31t69 -82v233h-505v54h957v-54h-391zM307 161q56 0 94 26t56.5 66.5t18.5 81.5v1q0 44 -18 84t-56 65.5t-95 25.5q-46 0 -84.5 -21t-61 -60.5t-22.5 -91.5q0 -82 47.5 -129.5t120.5 -47.5z" />
    <glyph glyph-name="dvKH" horiz-adv-x="676" 
d="M152 349v-121q0 -79 48 -126.5t131 -47.5q62 0 104 31.5t64 80.5q-50 24 -77.5 71t-27.5 110q0 94 58 148.5t154 54.5t154.5 -54.5t58.5 -148.5q0 -63 -27 -109t-75.5 -70.5t-110.5 -24.5q-26 0 -54 5q-28 -66 -85.5 -108t-137.5 -42q-110 0 -175.5 63t-65.5 174v162h38
q66 0 105.5 34t39.5 122v133h-300v54h848v-54h-485v-140q0 -106 -49 -151.5t-130 -45.5h-3zM451 347q0 -70 42.5 -112t112.5 -42q71 0 113.5 42t42.5 112t-42.5 112t-113.5 42q-70 0 -112.5 -42t-42.5 -112z" />
    <glyph glyph-name="dvG" horiz-adv-x="462" 
d="M491 686h-131v-282q0 -73 -37.5 -119.5t-116.5 -46.5q-76 0 -115.5 45t-39.5 117q0 20 1 30h62v-31q0 -44 21.5 -74.5t69.5 -30.5q49 0 70 31t21 77v284h-325v54h520v-54z" />
    <glyph glyph-name="dvGH" horiz-adv-x="432" 
d="M169 686v-82q0 -65 35.5 -97.5t113.5 -32.5h49v-53h-54q-81 0 -121 -34.5t-40 -89.5q0 -66 48 -100.5t126 -34.5q60 0 108.5 25.5t76 71t27.5 102.5h55q0 -71 -33.5 -128.5t-94.5 -90.5t-139 -33q-111 0 -175 47t-64 136q0 64 40.5 105t99.5 49v2q-55 8 -88.5 45.5
t-33.5 108.5v84h-134v54h622v-54h-424z" />
    <glyph glyph-name="dvNG" horiz-adv-x="649" 
d="M678 740v-54h-213v-180h-174q-57 0 -96 -20.5t-39 -72.5q0 -48 33.5 -70.5t85.5 -22.5h45q86 0 145 -39.5t59 -127.5q0 -74 -53.5 -120t-153.5 -46q-74 0 -128.5 24.5t-83 68t-29.5 100.5h63q1 -63 46.5 -103t130.5 -40q72 0 110 32.5t38 83.5q0 65 -44 92.5t-111 27.5
h-42q-74 0 -124.5 34t-50.5 107t51.5 106t128.5 33h131v133h-432v54h707zM582 443q19 0 31.5 -12.5t12.5 -30.5q0 -19 -12.5 -31.5t-31.5 -12.5t-31.5 12.5t-12.5 31.5q0 18 12.5 30.5t31.5 12.5zM405 -291l-119 193h64l122 -193h-67z" />
    <glyph glyph-name="dvC" horiz-adv-x="458" 
d="M609 686h-638v54h638v-54zM609 345v-4q0 -65 -29.5 -119t-85 -86t-126.5 -32q-63 0 -114 23.5t-81 69.5t-30 110q0 59 27.5 104t77.5 69h-198v51h361v-51h-33q-52 0 -91.5 -21.5t-61 -58.5t-21.5 -84q0 -74 48.5 -116t120.5 -42q52 0 93.5 25.5t64.5 68t23 93.5h55z" />
    <glyph glyph-name="dvCH" horiz-adv-x="815" 
d="M165 686v-112q0 -65 35 -97.5t111 -32.5h22v-53h-21q-86 0 -128.5 -38.5t-42.5 -99.5q0 -82 69 -125.5t187 -43.5q91 0 162 32t111 91.5t40 140.5q0 51 -17.5 86.5t-45.5 53t-60 17.5q-46 0 -81 -31t-35 -95q0 -45 18 -96h-54q-19 50 -19 102q0 86 50.5 127.5t121.5 41.5
q49 0 90 -23.5t65.5 -70.5t24.5 -114q0 -97 -47 -169t-131 -110t-193 -38q-146 0 -233 56.5t-87 162.5q0 71 41 114t105 53v3q-54 8 -87.5 45.5t-33.5 108.5v114h-131v54h873v-54h-679z" />
    <glyph glyph-name="dvJ" horiz-adv-x="544" 
d="M691 740v-54h-720v54h720zM691 447h-241v-112q0 -88 -50 -142t-136 -54t-134.5 54t-48.5 142v167h64v-167q0 -62 32 -100.5t88 -38.5t89.5 38.5t33.5 100.5v167h303v-55z" />
    <glyph glyph-name="dvJH" horiz-adv-x="572" 
d="M289 506q-58 0 -97.5 -20.5t-39.5 -73.5q0 -48 34 -70t88 -22h407v-49l-222 1q63 -42 63 -126q0 -66 -45 -108.5t-130 -42.5q-77 0 -120.5 31t-60.5 63v-164h-61v247h57q9 -55 52 -91.5t117 -36.5q65 0 98 31t33 78q0 56 -40 88t-114 32h-51q-73 2 -121 36.5t-48 103.5
q0 74 52.5 107t130.5 33h131v133h-431v54h710v-54h-217v-180h-175z" />
    <glyph glyph-name="dvNY" horiz-adv-x="546" 
d="M661 740v-54h-690v54h690zM291 567q98 0 156 -57.5t67 -145.5h147v-55h-146q-5 -59 -32 -106.5t-76 -75.5t-116 -28q-93 0 -149 49t-68 119h61q13 -47 52.5 -80t104.5 -33q80 0 123 51.5t43 128.5q0 48 -19 88.5t-56.5 65t-90.5 24.5q-67 0 -106.5 -34t-50.5 -80h-61
q12 71 67 120t150 49z" />
    <glyph glyph-name="dvTT" horiz-adv-x="651" 
d="M366 505q-101 0 -164.5 -52.5t-63.5 -152.5q0 -56 26 -100.5t72 -69.5t103 -25q59 0 104.5 26t71 72t25.5 105h61q0 -76 -32.5 -135t-91.5 -91.5t-137 -32.5q-76 0 -136.5 31.5t-95 88.5t-34.5 130q0 84 37 143t102 88.5t150 29.5h32v126h-424v54h709v-54h-223v-181h-91z
M430 -230l-119 193h64l122 -193h-67z" />
    <glyph glyph-name="dvTTH" horiz-adv-x="677" 
d="M369 686v-134q66 -7 119.5 -39.5t84 -87t30.5 -123.5q0 -73 -34.5 -130t-95 -88.5t-135.5 -31.5t-135 31.5t-94.5 88.5t-34.5 130q0 69 30.5 123.5t83 86.5t118.5 39v135h-335v54h735v-54h-337zM540 302q0 57 -26 101.5t-72 69.5t-104 25q-57 0 -102.5 -25t-71.5 -69.5
t-26 -101.5q0 -56 26 -101t71.5 -70t102.5 -25q58 0 104 25t72 70t26 101zM428 -227l-119 193h64l122 -193h-67z" />
    <glyph glyph-name="dvDD" horiz-adv-x="577" 
d="M291 506q-57 0 -96 -20.5t-39 -72.5q0 -48 33.5 -70.5t85.5 -22.5h45q86 0 145 -39.5t59 -127.5q0 -74 -53.5 -120t-153.5 -46q-74 0 -128.5 24.5t-83 68t-29.5 100.5h63q1 -63 46.5 -103t130.5 -40q72 0 110 32.5t38 83.5q0 65 -44 92.5t-111 27.5h-42q-74 0 -124.5 34
t-50.5 107t51.5 106t128.5 33h125v133h-426v54h634v-54h-146v-180h-168zM404 -291l-119 193h64l122 -193h-67z" />
    <glyph glyph-name="dvDDH" horiz-adv-x="637" 
d="M387 516q-112 0 -181.5 -59t-69.5 -172q0 -65 29.5 -116t83 -79.5t122.5 -28.5q77 0 127 40.5t50 104.5q0 50 -31.5 82t-80.5 32q-42 0 -71.5 -27t-29.5 -71q0 -12 3 -20h-49q-3 14 -3 28q0 63 43.5 100.5t109.5 37.5q74 0 119.5 -45t45.5 -117q0 -57 -28.5 -101
t-82 -68.5t-123.5 -24.5q-84 0 -151.5 34t-106 96.5t-38.5 144.5q0 90 38.5 152t105 92.5t152.5 30.5h45v124h-444v54h695v-54h-190v-170h-89zM440 -266l-119 193h64l122 -193h-67z" />
    <glyph glyph-name="dvNN" horiz-adv-x="559" 
d="M588 686h-130v-298q0 -87 -48 -140.5t-135 -53.5q-85 0 -133 54t-48 140v298h-123v54h617v-54zM396 686h-240v-304q0 -59 32.5 -96.5t87.5 -37.5q56 0 88 37t32 97v304z" />
    <glyph glyph-name="dvT" horiz-adv-x="395" 
d="M-29 686v54h571v-54h-571zM542 444h-180q-104 0 -163.5 -49t-59.5 -146q0 -93 52.5 -144t150.5 -51h23v-52h-31q-120 0 -190 64t-70 184q0 125 77.5 187t208.5 62h182v-55z" />
    <glyph glyph-name="dvTH" horiz-adv-x="471" 
d="M640 349q0 -73 -35.5 -129t-98.5 -86.5t-143 -30.5q-131 0 -204.5 72t-73.5 198q0 23 3 47h101q91 0 151.5 33t60.5 117q0 53 -32.5 88.5t-87.5 35.5q-58 0 -91.5 -35t-33.5 -94q0 -15 4 -45h-58q-5 25 -5 48q0 82 51 131.5t133 49.5q54 0 95 -23.5t63 -64.5t22 -92
q0 -100 -69 -148.5t-182 -48.5q-47 0 -63 1v-7q0 -94 54.5 -151t160.5 -57q64 0 114 23.5t78.5 66.5t28.5 101h57z" />
    <glyph glyph-name="dvD" horiz-adv-x="608" 
d="M345 513q-89 0 -147.5 -47t-58.5 -133q0 -79 47 -126t126 -47q38 0 73.5 16t59 49.5t23.5 82.5h59v-319h-63v206q-20 -39 -65.5 -63t-102.5 -24q-65 0 -115.5 27t-78.5 78.5t-28 120.5q0 76 35.5 129t95.5 79t135 26h82v118h-451v54h667l-1 -54h-152v-173h-140zM583 -290
l-119 193h64l122 -193h-67z" />
    <glyph glyph-name="dvDH" horiz-adv-x="428" 
d="M591 332q0 -67 -33.5 -119t-95 -81t-144.5 -29q-100 0 -163 44.5t-63 127.5q0 62 37 100.5t87 45.5v2q-55 13 -92.5 54t-37.5 110q0 71 46.5 116.5t120.5 45.5q75 0 118.5 -43t43.5 -113l-2 -31h-50l1 25q0 46 -29 77t-80 31q-52 0 -82.5 -32.5t-30.5 -81.5
q0 -61 42.5 -96t117.5 -35h56v-53h-54q-72 0 -109.5 -31.5t-37.5 -84.5q0 -62 47.5 -93t118.5 -31q64 0 112 22t74 62t26 91h56z" />
    <glyph glyph-name="dvN" horiz-adv-x="508" 
d="M656 740v-54h-685v54h685zM66 317q0 58 26.5 100.5t72.5 65.5t105 23h386v-54h-268q30 -23 48 -59t18 -82q0 -54 -24.5 -95t-68 -63.5t-97.5 -22.5q-57 0 -102 23.5t-70.5 66t-25.5 97.5zM265 185q59 0 97.5 37.5t38.5 95.5t-38.5 96t-97.5 38q-62 0 -101 -37.5
t-39 -97.5q0 -59 38.5 -95.5t101.5 -36.5z" />
    <glyph glyph-name="dvP" horiz-adv-x="369" 
d="M153 686v-234q0 -90 40.5 -140t122.5 -50q74 0 116 47t42 117h54q0 -63 -26 -112.5t-75 -78t-116 -28.5q-108 0 -165 65.5t-57 179.5v234h-118v54h557v-54h-375z" />
    <glyph glyph-name="dvPH" horiz-adv-x="747" 
d="M518 686v-236q22 52 68.5 84t115.5 32q99 0 154.5 -61t55.5 -166h-65q0 81 -42 126.5t-120 45.5q-56 0 -94 -27t-55.5 -69.5t-17.5 -90.5v-324h-63v300q-23 -44 -64.5 -68.5t-98.5 -24.5q-99 0 -151 64.5t-52 177.5v237h-118v54h941v-54h-394zM455 686h-302v-237
q0 -89 38 -138t115 -49q69 0 109 46.5t40 115.5v262z" />
    <glyph glyph-name="dvB" horiz-adv-x="421" 
d="M569 740v-54h-598v54h598zM322 577q81 0 136.5 -35t82.5 -89.5t27 -113.5q0 -65 -29 -120t-84.5 -87.5t-130.5 -32.5q-71 0 -128 29.5t-89.5 83.5t-32.5 125t32 125.5t88 84.5t128 30zM479 220q19 25 28.5 56t9.5 61q0 48 -22 92.5t-66 72.5t-106 28q-38 0 -72.5 -12.5
t-60.5 -36.5zM129 335q0 -58 27 -100.5t71.5 -65.5t97.5 -23q82 0 134 50l-291 261q-39 -52 -39 -122z" />
    <glyph glyph-name="dvBH" horiz-adv-x="502" 
d="M626 398h-197v-85q0 -98 -44.5 -150t-126.5 -52q-79 0 -127.5 47t-48.5 123q0 79 51.5 124.5t133.5 45.5h102v100q0 67 -25 104.5t-77 37.5q-45 0 -73 -30.5t-28 -84.5q0 -20 4 -40h-64q-4 28 -4 42q0 77 44 123t119 46q84 0 124 -55t40 -152v-91h197v-53zM369 398h-100
q-57 0 -92 -31.5t-35 -85.5q0 -52 32.5 -83.5t82.5 -31.5q53 0 82.5 38t29.5 106v88z" />
    <glyph glyph-name="dvM" horiz-adv-x="498" 
d="M398 686v-235h224v-53h-224v-85q0 -98 -45 -150t-128 -52q-79 0 -127 47t-48 123q0 79 51.5 124.5t133.5 45.5h103v235h-367v54h651v-54h-224zM338 398h-102q-56 0 -91 -31.5t-35 -85.5q0 -52 32.5 -83.5t82.5 -31.5q53 0 83 38t30 106v88z" />
    <glyph glyph-name="dvY" horiz-adv-x="449" 
d="M615 363q0 -69 -33.5 -125t-95 -87.5t-140.5 -31.5q-129 0 -201.5 75.5t-72.5 206.5q0 23 3 44h15q91 0 139.5 37.5t48.5 128.5v75h-307v54h644v-54h-274v-85q0 -99 -53 -145.5t-153 -48.5v-11q0 -104 57.5 -163t156.5 -59q57 0 105 24t75.5 67t27.5 98h58z" />
    <glyph glyph-name="dvR" horiz-adv-x="536" 
d="M151 349v-146q0 -71 32 -114t96 -43q59 0 93.5 39.5t34.5 105.5v17h62v-16q0 -92 -50.5 -146.5t-138.5 -54.5q-93 0 -142.5 59t-49.5 156v196h107q87 0 132.5 44.5t45.5 132.5v107h-402v54h594v-54h-128v-107q0 -112 -56.5 -171t-166.5 -59h-63zM362 -289l-119 193h64
l122 -193h-67z" />
    <glyph glyph-name="dvL" horiz-adv-x="672" 
d="M-29 686v54h856v-54h-856zM452 395q15 65 58 109t122 44q59 0 103 -28.5t68 -79.5t24 -118l-64 -1q0 74 -36.5 122t-103.5 48q-71 0 -108 -53.5t-37 -146.5v-13h-55v13q0 92 -35 146t-103 54q-70 0 -108 -47t-38 -123q0 -83 45 -134t127 -51q8 0 30 2v-57q-24 -2 -34 -2
q-75 0 -127.5 31.5t-79 86.5t-26.5 125q0 103 55.5 164.5t148.5 61.5q74 0 116 -44.5t56 -108.5h2z" />
    <glyph glyph-name="dvV" horiz-adv-x="404" 
d="M-29 686v54h594v-54h-594zM565 336q0 -58 -27 -111t-82.5 -87t-135.5 -34q-72 0 -128 29t-87 82.5t-31 124.5q0 68 31.5 120.5t87.5 81t127 28.5q81 0 136.5 -34t82 -87.5t26.5 -112.5zM136 339q0 -56 24 -97.5t66 -63.5t95 -22q60 0 101 27t61 68.5t20 84.5
q0 46 -19.5 87.5t-60.5 68t-102 26.5q-51 0 -93.5 -22t-67 -62.5t-24.5 -94.5z" />
    <glyph glyph-name="dvSH" horiz-adv-x="534" 
d="M432 208h62v-14q0 -94 -51.5 -148t-140.5 -54q-99 0 -152.5 59.5t-53.5 160.5v171h148q87 0 142.5 41.5t55.5 120.5q0 69 -37.5 108.5t-101.5 39.5q-62 0 -99.5 -39.5t-37.5 -106.5q0 -23 3 -47h-63q-5 27 -5 48q0 91 55 146t147 55t147.5 -55t55.5 -153
q0 -102 -67.5 -157.5t-174.5 -55.5h-104v-120q0 -73 35 -117t105 -44q61 0 96.5 40.5t35.5 107.5v13z" />
    <glyph glyph-name="dvSS" horiz-adv-x="388" 
d="M529 686h-378l378 -314q0 -40 -25.5 -79t-74.5 -64.5t-114 -25.5q-111 0 -168.5 66.5t-57.5 182.5v234h-118v54h558v-54zM317 258q64 0 105 31.5t50 72.5l-321 271v-183q0 -92 41.5 -142t124.5 -50z" />
    <glyph glyph-name="dvS" horiz-adv-x="527" 
d="M427 588q0 -59 -20 -103t-56 -70h282v-52h-482v-160q0 -71 32.5 -114t96.5 -43q60 0 94.5 40t34.5 105v11h62v-14q0 -90 -51 -143.5t-139 -53.5q-94 0 -143.5 59t-49.5 157v204h98q86 0 132 47.5t46 129.5v98h-393v54h662v-54h-206v-98z" />
    <glyph glyph-name="dvH" horiz-adv-x="586" 
d="M285 509q-52 0 -85.5 -21.5t-33.5 -67.5q0 -35 22.5 -59t60.5 -35q27 6 59 6q95 0 149.5 -46.5t67.5 -112.5h-62q-10 43 -50.5 75t-105.5 32q-78 0 -121.5 -47t-43.5 -117q0 -71 43.5 -117.5t121.5 -46.5q63 0 103.5 32t52.5 74h62q-8 -42 -36 -78.5t-74 -59t-108 -22.5
q-73 0 -124.5 29t-77.5 78.5t-26 111.5q0 64 29.5 114t83.5 76q-39 16 -64 46.5t-25 76.5q0 63 45 94.5t118 31.5h143v130h-438v54h644v-54h-144v-177h-186zM391 -380l-119 193h64l122 -193h-67z" />
    <glyph glyph-name="dvLL" horiz-adv-x="1007" 
d="M-29 686v54h1065v-54h-1065zM502 253q-17 -64 -72 -105.5t-132 -41.5q-64 0 -115 28.5t-80 79t-29 115.5q0 68 29 119.5t80 80t114 28.5q78 0 130 -40t75 -104h3q22 63 74 103.5t131 40.5q63 0 114 -28.5t80 -80t29 -119.5q0 -65 -29 -115.5t-80 -79t-114 -28.5
q-78 0 -133 41.5t-72 105.5h-3zM137 329q0 -49 22 -87t60 -59t86 -21q74 0 120 46.5t46 120.5q0 76 -45.5 124t-120.5 48q-74 0 -121 -47.5t-47 -124.5zM536 329q0 -74 45.5 -120.5t120.5 -46.5q48 0 86 21t60 59t22 87q0 51 -21.5 90t-59.5 60.5t-86 21.5q-75 0 -121 -48
t-46 -124z" />
    <glyph glyph-name="dvK_germandbls" horiz-adv-x="522" 
d="M324 386q-15 -9 -29 -14q-52 -26 -82.5 -46t-51 -50t-20.5 -72q0 -52 33.5 -86t90.5 -34q59 0 93.5 37.5t34.5 93.5h55v-267h-59v164q-11 -29 -47.5 -55.5t-95.5 -26.5q-76 0 -123 46t-47 117q0 54 25.5 92t62 61.5t98.5 55.5q-70 13 -115.5 58t-45.5 117q0 54 25 93
t68 59.5t95 20.5q50 0 91.5 -19.5t66 -57.5t24.5 -89q0 -49 -20.5 -84.5t-58.5 -64.5h239v-49h-307zM159 573q0 -62 46 -99t118 -39q45 28 69.5 60t24.5 78q0 54 -37.5 87t-91.5 33t-91.5 -31t-37.5 -89z" />
    <glyph glyph-name="dvJ_NY" horiz-adv-x="532" 
d="M702 740v-54h-731v54h731zM243 531h459v-53h-311q51 -23 80.5 -67t29.5 -106q0 -55 -24 -97.5t-66.5 -66t-97.5 -23.5q-63 0 -110 27.5t-68 67.5v-170h-62v271h60q6 -68 53 -105.5t111 -37.5q67 0 106 41t39 106q0 75 -51.5 117.5t-132.5 42.5h-15v53z" />
    <glyph glyph-name="dvKx" horiz-adv-x="748" 
d="M537 686v-236q22 52 67.5 84t113.5 32q60 0 107.5 -28.5t75 -80t27.5 -118.5h-64q0 52 -21.5 91t-59 60t-82.5 21q-55 0 -92 -26.5t-54.5 -68t-17.5 -86.5v-330h-61v221q-22 -51 -70 -83t-117 -32q-62 0 -111 28.5t-76.5 81t-27.5 123.5q0 68 28 119.5t77.5 79.5
t111.5 28q70 0 116 -31t69 -82v233h-505v54h957v-54h-391zM307 161q56 0 94 26t56.5 66.5t18.5 81.5v1q0 44 -18 84t-56 65.5t-95 25.5q-46 0 -84.5 -21t-61 -60.5t-22.5 -91.5q0 -82 47.5 -129.5t120.5 -47.5zM325 -27q0 -19 -13.5 -32t-33.5 -13t-33.5 13t-13.5 32
q0 20 13.5 33.5t33.5 13.5t33.5 -13.5t13.5 -33.5z" />
    <glyph glyph-name="dvKHx" horiz-adv-x="676" 
d="M152 349v-121q0 -79 48 -126.5t131 -47.5q62 0 104 31.5t64 80.5q-50 24 -77.5 71t-27.5 110q0 94 58 148.5t154 54.5t154.5 -54.5t58.5 -148.5q0 -63 -27 -109t-75.5 -70.5t-110.5 -24.5q-26 0 -54 5q-28 -66 -85.5 -108t-137.5 -42q-110 0 -175.5 63t-65.5 174v162h38
q66 0 105.5 34t39.5 122v133h-300v54h848v-54h-485v-140q0 -106 -49 -151.5t-130 -45.5h-3zM451 347q0 -70 42.5 -112t112.5 -42q71 0 113.5 42t42.5 112t-42.5 112t-113.5 42q-70 0 -112.5 -42t-42.5 -112zM360 -134q0 -19 -13.5 -32t-33.5 -13t-33.5 13t-13.5 32
q0 20 13.5 33.5t33.5 13.5t33.5 -13.5t13.5 -33.5z" />
    <glyph glyph-name="dvGx" horiz-adv-x="462" 
d="M491 686h-131v-282q0 -73 -37.5 -119.5t-116.5 -46.5q-76 0 -115.5 45t-39.5 117q0 20 1 30h62v-31q0 -44 21.5 -74.5t69.5 -30.5q49 0 70 31t21 77v284h-325v54h520v-54zM259 100q0 -19 -13.5 -32t-33.5 -13t-33.5 13t-13.5 32q0 20 13.5 33.5t33.5 13.5t33.5 -13.5
t13.5 -33.5z" />
    <glyph glyph-name="dvJx" horiz-adv-x="544" 
d="M691 740v-54h-720v54h720zM691 447h-241v-112q0 -88 -50 -142t-136 -54t-134.5 54t-48.5 142v167h64v-167q0 -62 32 -100.5t88 -38.5t89.5 38.5t33.5 100.5v167h303v-55zM316 6q0 -19 -13.5 -32t-33.5 -13t-33.5 13t-13.5 32q0 20 13.5 33.5t33.5 13.5t33.5 -13.5
t13.5 -33.5z" />
    <glyph glyph-name="dvPHx" horiz-adv-x="747" 
d="M518 686v-236q22 52 68.5 84t115.5 32q99 0 154.5 -61t55.5 -166h-65q0 81 -42 126.5t-120 45.5q-56 0 -94 -27t-55.5 -69.5t-17.5 -90.5v-324h-63v300q-23 -44 -64.5 -68.5t-98.5 -24.5q-99 0 -151 64.5t-52 177.5v237h-118v54h941v-54h-394zM455 686h-302v-237
q0 -89 38 -138t115 -49q69 0 109 46.5t40 115.5v262zM315 76q0 -19 -13.5 -32t-33.5 -13t-33.5 13t-13.5 32q0 20 13.5 33.5t33.5 13.5t33.5 -13.5t13.5 -33.5z" />
    <glyph glyph-name="dvReph" horiz-adv-x="0" 
d="M-172 727v90q0 87 39.5 136.5t119.5 49.5q72 0 111.5 -42.5t39.5 -109.5v-7h-56v3q0 44 -25.5 73t-68.5 29q-100 0 -100 -132v-90h-60z" />
    <glyph glyph-name="dvEyelash" horiz-adv-x="278" 
d="M-29 686v54h374v-54h-374zM366 398q-16 -8 -44.5 -13.5t-59.5 -5.5q-94 0 -162.5 46t-69.5 145h61q1 -74 53.5 -108.5t125.5 -34.5q24 0 40 3t35 8z" />
    <glyph glyph-name="dvRashtrasign" horiz-adv-x="0" 
d="M-75 -97l-146 154l-146 -154h-68l171 179h86l172 -179h-69z" />
    <glyph glyph-name="dvK_RA" horiz-adv-x="1002" 
d="M537 686v-236q22 52 67.5 84t113.5 32q60 0 107.5 -28.5t75 -79.5t27.5 -118q0 -71 -27 -123.5t-74.5 -80t-107.5 -27.5q-31 0 -61 7v52q18 -5 46 -5q70 0 115 47t45 129q0 52 -21.5 91t-59 60t-82.5 21q-55 0 -92 -26.5t-54 -68t-18 -86.5v-330h-61v223q-15 -35 -45 -62
l-218 -207h-71l167 158q-6 -1 -20 -1q-61 0 -110 28t-77 79.5t-28 120.5q0 68 28 119.5t77.5 79.5t111.5 28q70 0 116 -31t69 -82v233h-505v54h1060v-54h-494zM393 182q41 23 62 65.5t21 87.5v1q0 44 -18 84t-56 65.5t-95 25.5q-46 0 -84.5 -21t-61 -60.5t-22.5 -91.5
q0 -82 47.5 -129.5t120.5 -47.5q34 0 68 12l12 12z" />
    </font>
</defs>
</svg>
